<mxfile host="65bd71144e">
    <diagram name="cmd-flow" id="324fc303-7c7a-9875-b535-36983a8aa33b">
        <mxGraphModel dx="971" dy="552" grid="1" gridSize="10" guides="1" tooltips="1" connect="1" arrows="1" fold="1" page="1" pageScale="1" pageWidth="1100" pageHeight="850" background="#ffffff" math="0" shadow="0">
            <root>
                <mxCell id="0"/>
                <mxCell id="1" parent="0"/>
                <mxCell id="5" value="" style="edgeStyle=none;rounded=0;html=1;startArrow=ERmany;startFill=0;endFill=1;jettySize=auto;orthogonalLoop=1;strokeColor=#030303;fontColor=#000000;" parent="1" source="23" target="18" edge="1">
                    <mxGeometry relative="1" as="geometry"/>
                </mxCell>
                <mxCell id="11" value="" style="group;fontColor=#000000;" parent="1" vertex="1" connectable="0">
                    <mxGeometry x="545.5" y="421" width="150" height="75" as="geometry"/>
                </mxCell>
                <mxCell id="12" value="" style="shadow=0;dashed=0;html=1;strokeColor=none;shape=mxgraph.azure.powershell_file;fillColor=#00188D;fontSize=15;fontColor=#000000;" parent="11" vertex="1">
                    <mxGeometry x="51" width="47" height="50" as="geometry"/>
                </mxCell>
                <mxCell id="13" value="&lt;span&gt;&lt;font style=&quot;font-size: 12px&quot; face=&quot;Courier New&quot;&gt;Get-SqlObjFilePath&lt;/font&gt;&lt;/span&gt;" style="text;html=1;resizable=0;points=[];autosize=1;align=left;verticalAlign=top;spacingTop=-4;fontSize=12;labelBackgroundColor=#ffffff;fontColor=#000000;" parent="11" vertex="1">
                    <mxGeometry y="57" width="150" height="20" as="geometry"/>
                </mxCell>
                <mxCell id="14" value="" style="group;fontColor=#000000;" parent="1" vertex="1" connectable="0">
                    <mxGeometry x="520.5" y="297" width="200" height="80" as="geometry"/>
                </mxCell>
                <mxCell id="15" value="" style="shadow=0;dashed=0;html=1;strokeColor=none;shape=mxgraph.azure.powershell_file;fillColor=#00188D;fontSize=15;fontColor=#000000;" parent="14" vertex="1">
                    <mxGeometry x="71" width="47" height="50" as="geometry"/>
                </mxCell>
                <mxCell id="16" value="&lt;font face=&quot;Courier New&quot;&gt;Write-SqlObjectToLocalPath&lt;/font&gt;&lt;br&gt;" style="text;html=1;resizable=0;points=[];autosize=1;align=left;verticalAlign=top;spacingTop=-4;fontSize=12;labelBackgroundColor=#ffffff;fontColor=#000000;" parent="14" vertex="1">
                    <mxGeometry y="59" width="200" height="20" as="geometry"/>
                </mxCell>
                <mxCell id="17" value="" style="group;fontColor=#000000;" parent="1" vertex="1" connectable="0">
                    <mxGeometry x="510.5" y="180" width="210" height="76" as="geometry"/>
                </mxCell>
                <mxCell id="18" value="" style="shadow=0;dashed=0;html=1;strokeColor=none;shape=mxgraph.azure.powershell_file;fillColor=#00188D;fontSize=15;fontColor=#000000;" parent="17" vertex="1">
                    <mxGeometry x="76" width="47" height="50" as="geometry"/>
                </mxCell>
                <mxCell id="19" value="&lt;font face=&quot;Courier New&quot;&gt;Write-SqlObjListToLocalPath&lt;/font&gt;&lt;br&gt;" style="text;html=1;resizable=0;points=[];autosize=1;align=left;verticalAlign=top;spacingTop=-4;fontSize=12;labelBackgroundColor=#ffffff;fontColor=#000000;" parent="17" vertex="1">
                    <mxGeometry y="56" width="210" height="20" as="geometry"/>
                </mxCell>
                <mxCell id="20" value="" style="group;fontColor=#000000;" parent="1" vertex="1" connectable="0">
                    <mxGeometry x="107" y="46" width="200" height="75" as="geometry"/>
                </mxCell>
                <mxCell id="21" value="" style="group;fontColor=#000000;" parent="20" vertex="1" connectable="0">
                    <mxGeometry width="200" height="75" as="geometry"/>
                </mxCell>
                <mxCell id="22" value="" style="group;fontColor=#000000;" parent="21" vertex="1" connectable="0">
                    <mxGeometry x="20" width="160" height="75" as="geometry"/>
                </mxCell>
                <mxCell id="23" value="" style="shadow=0;dashed=0;html=1;strokeColor=none;shape=mxgraph.azure.powershell_file;fillColor=#00188D;fontSize=15;fontColor=#000000;" parent="22" vertex="1">
                    <mxGeometry x="56" width="47" height="50" as="geometry"/>
                </mxCell>
                <mxCell id="24" value="&lt;font face=&quot;Courier New&quot;&gt;Request-DBCodeReview&lt;/font&gt;&lt;br&gt;" style="text;html=1;resizable=0;points=[];autosize=1;align=left;verticalAlign=top;spacingTop=-4;fontSize=12;labelBackgroundColor=#ffffff;fontColor=#000000;" parent="22" vertex="1">
                    <mxGeometry y="55" width="160" height="20" as="geometry"/>
                </mxCell>
                <mxCell id="25" value="" style="group;fontColor=#000000;" parent="1" vertex="1" connectable="0">
                    <mxGeometry x="147" y="176" width="120" height="70" as="geometry"/>
                </mxCell>
                <mxCell id="26" value="" style="group;fontColor=#000000;" parent="25" vertex="1" connectable="0">
                    <mxGeometry width="120" height="70" as="geometry"/>
                </mxCell>
                <mxCell id="27" value="" style="shadow=0;dashed=0;html=1;strokeColor=none;shape=mxgraph.azure.powershell_file;fillColor=#00188D;fontSize=15;fontColor=#000000;" parent="26" vertex="1">
                    <mxGeometry x="36" width="47" height="50" as="geometry"/>
                </mxCell>
                <mxCell id="28" value="&lt;span&gt;&lt;font style=&quot;font-size: 12px;&quot; face=&quot;Courier New&quot;&gt;Enter-GitBranch&lt;/font&gt;&lt;/span&gt;" style="text;html=1;resizable=0;points=[];autosize=1;align=left;verticalAlign=top;spacingTop=-4;fontSize=12;labelBackgroundColor=#ffffff;fontColor=#000000;" parent="26" vertex="1">
                    <mxGeometry y="55" width="120" height="20" as="geometry"/>
                </mxCell>
                <mxCell id="29" value="" style="group;fontColor=#000000;" parent="1" vertex="1" connectable="0">
                    <mxGeometry x="142" y="296" width="130" height="70" as="geometry"/>
                </mxCell>
                <mxCell id="30" value="" style="group;fontColor=#000000;" parent="29" vertex="1" connectable="0">
                    <mxGeometry width="130" height="70" as="geometry"/>
                </mxCell>
                <mxCell id="31" value="" style="shadow=0;dashed=0;html=1;strokeColor=none;shape=mxgraph.azure.powershell_file;fillColor=#00188D;fontSize=15;fontColor=#000000;" parent="30" vertex="1">
                    <mxGeometry x="41" width="47" height="50" as="geometry"/>
                </mxCell>
                <mxCell id="32" value="&lt;span&gt;&lt;font style=&quot;font-size: 12px;&quot; face=&quot;Courier New&quot;&gt;Assert-GitBranch&lt;/font&gt;&lt;/span&gt;" style="text;html=1;resizable=0;points=[];autosize=1;align=left;verticalAlign=top;spacingTop=-4;fontSize=12;labelBackgroundColor=#ffffff;fontColor=#000000;" parent="30" vertex="1">
                    <mxGeometry y="60" width="130" height="20" as="geometry"/>
                </mxCell>
                <mxCell id="44" value="" style="group;fontColor=#000000;" parent="1" vertex="1" connectable="0">
                    <mxGeometry x="35.5" y="175.5" width="120" height="75" as="geometry"/>
                </mxCell>
                <mxCell id="45" value="" style="group;fontColor=#000000;" parent="44" vertex="1" connectable="0">
                    <mxGeometry width="120" height="75" as="geometry"/>
                </mxCell>
                <mxCell id="46" value="" style="shadow=0;dashed=0;html=1;strokeColor=none;shape=mxgraph.azure.powershell_file;fillColor=#00188D;fontSize=15;fontColor=#000000;" parent="45" vertex="1">
                    <mxGeometry x="36" width="47" height="50" as="geometry"/>
                </mxCell>
                <mxCell id="47" value="&lt;span&gt;&lt;font style=&quot;font-size: 12px&quot; face=&quot;Courier New&quot;&gt;Get-GitRepo&lt;/font&gt;&lt;/span&gt;" style="text;html=1;resizable=0;points=[];autosize=1;align=left;verticalAlign=top;spacingTop=-4;fontSize=12;labelBackgroundColor=#ffffff;fontColor=#000000;" parent="45" vertex="1">
                    <mxGeometry x="15" y="55" width="90" height="20" as="geometry"/>
                </mxCell>
                <mxCell id="49" value="" style="group;fontColor=#000000;" parent="1" vertex="1" connectable="0">
                    <mxGeometry x="142.5" y="423" width="130" height="73" as="geometry"/>
                </mxCell>
                <mxCell id="50" value="" style="group;fontColor=#000000;" parent="49" vertex="1" connectable="0">
                    <mxGeometry width="130" height="73" as="geometry"/>
                </mxCell>
                <mxCell id="51" value="" style="shadow=0;dashed=0;html=1;strokeColor=none;shape=mxgraph.azure.powershell_file;fillColor=#00188D;fontSize=15;fontColor=#000000;" parent="50" vertex="1">
                    <mxGeometry x="41" width="47" height="50" as="geometry"/>
                </mxCell>
                <mxCell id="52" value="&lt;span&gt;&lt;font style=&quot;font-size: 12px&quot; face=&quot;Courier New&quot;&gt;Get-GitBranch&lt;/font&gt;&lt;/span&gt;" style="text;html=1;resizable=0;points=[];autosize=1;align=left;verticalAlign=top;spacingTop=-4;fontSize=12;labelBackgroundColor=#ffffff;fontColor=#000000;" parent="50" vertex="1">
                    <mxGeometry x="15" y="53" width="110" height="20" as="geometry"/>
                </mxCell>
                <mxCell id="54" value="" style="group;fontColor=#000000;" parent="1" vertex="1" connectable="0">
                    <mxGeometry x="276.5" y="176" width="160" height="75" as="geometry"/>
                </mxCell>
                <mxCell id="55" value="" style="shadow=0;dashed=0;html=1;strokeColor=none;shape=mxgraph.azure.powershell_file;fillColor=#00188D;fontSize=15;fontColor=#000000;" parent="54" vertex="1">
                    <mxGeometry x="51" width="47" height="50" as="geometry"/>
                </mxCell>
                <mxCell id="56" value="&lt;span&gt;&lt;font style=&quot;font-size: 12px&quot; face=&quot;Courier New&quot;&gt;Format-SqlObjectList&lt;/font&gt;&lt;/span&gt;" style="text;html=1;resizable=0;points=[];autosize=1;align=left;verticalAlign=top;spacingTop=-4;fontSize=12;labelBackgroundColor=#ffffff;fontColor=#000000;" parent="54" vertex="1">
                    <mxGeometry y="55" width="160" height="20" as="geometry"/>
                </mxCell>
                <mxCell id="61" value="" style="group;fontColor=#000000;" parent="1" vertex="1" connectable="0">
                    <mxGeometry x="781.5" y="180" width="110" height="70" as="geometry"/>
                </mxCell>
                <mxCell id="58" value="Get-SqlObject" style="text;html=1;resizable=0;points=[];autosize=1;align=left;verticalAlign=top;spacingTop=-4;fontFamily=Courier New;fontColor=#000000;" parent="61" vertex="1">
                    <mxGeometry y="56" width="110" height="20" as="geometry"/>
                </mxCell>
                <mxCell id="60" value="" style="shadow=0;dashed=0;html=1;strokeColor=none;shape=mxgraph.azure.powershell_file;fillColor=#00188D;fontSize=15;fontColor=#000000;" parent="61" vertex="1">
                    <mxGeometry x="29.5" width="47" height="50" as="geometry"/>
                </mxCell>
                <mxCell id="63" value="" style="group;fontColor=#000000;" parent="1" vertex="1" connectable="0">
                    <mxGeometry x="779.5" y="302" width="120" height="70" as="geometry"/>
                </mxCell>
                <mxCell id="59" value="Get-SqlObjectID&lt;br&gt;" style="text;html=1;resizable=0;points=[];autosize=1;align=left;verticalAlign=top;spacingTop=-4;fontFamily=Courier New;fontColor=#000000;" parent="63" vertex="1">
                    <mxGeometry y="56" width="120" height="20" as="geometry"/>
                </mxCell>
                <mxCell id="62" value="" style="shadow=0;dashed=0;html=1;strokeColor=none;shape=mxgraph.azure.powershell_file;fillColor=#00188D;fontSize=15;fontColor=#000000;" parent="63" vertex="1">
                    <mxGeometry x="33" width="47" height="50" as="geometry"/>
                </mxCell>
                <mxCell id="64" style="edgeStyle=none;rounded=0;html=1;entryX=0.5;entryY=0;entryPerimeter=0;startArrow=ERmany;startFill=0;jettySize=auto;orthogonalLoop=1;fontFamily=Courier New;strokeColor=#030303;fontColor=#000000;" parent="1" source="58" target="62" edge="1">
                    <mxGeometry relative="1" as="geometry"/>
                </mxCell>
                <mxCell id="65" value="" style="group;fontColor=#000000;" parent="1" vertex="1" connectable="0">
                    <mxGeometry x="271.5" y="297" width="180" height="80" as="geometry"/>
                </mxCell>
                <mxCell id="66" value="" style="shadow=0;dashed=0;html=1;strokeColor=none;shape=mxgraph.azure.powershell_file;fillColor=#00188D;fontSize=15;fontColor=#000000;" parent="65" vertex="1">
                    <mxGeometry x="61" width="47" height="50" as="geometry"/>
                </mxCell>
                <mxCell id="67" value="&lt;font face=&quot;Courier New&quot;&gt;Get-SqlServerFromConfig&lt;/font&gt;&lt;br&gt;" style="text;html=1;resizable=0;points=[];autosize=1;align=left;verticalAlign=top;spacingTop=-4;fontSize=12;labelBackgroundColor=#ffffff;fontColor=#000000;" parent="65" vertex="1">
                    <mxGeometry y="59" width="180" height="20" as="geometry"/>
                </mxCell>
                <mxCell id="72" style="edgeStyle=none;rounded=0;html=1;entryX=0.5;entryY=0;entryPerimeter=0;startArrow=ERmany;startFill=0;jettySize=auto;orthogonalLoop=1;fontFamily=Courier New;strokeColor=#030303;fontColor=#000000;" parent="1" source="56" target="66" edge="1">
                    <mxGeometry relative="1" as="geometry"/>
                </mxCell>
                <mxCell id="81" style="edgeStyle=none;rounded=0;html=1;entryX=0.5;entryY=0;entryPerimeter=0;startArrow=ERmany;startFill=0;jettySize=auto;orthogonalLoop=1;fontFamily=Courier New;strokeColor=#030303;fontColor=#000000;" parent="1" source="28" target="31" edge="1">
                    <mxGeometry relative="1" as="geometry"/>
                </mxCell>
                <mxCell id="82" style="edgeStyle=none;rounded=0;html=1;entryX=0.5;entryY=0;entryPerimeter=0;startArrow=ERmany;startFill=0;jettySize=auto;orthogonalLoop=1;fontFamily=Courier New;strokeColor=#030303;fontColor=#000000;" parent="1" source="32" target="51" edge="1">
                    <mxGeometry relative="1" as="geometry"/>
                </mxCell>
                <mxCell id="83" style="edgeStyle=none;rounded=0;html=1;entryX=0.5;entryY=0;entryPerimeter=0;startArrow=ERmany;startFill=0;jettySize=auto;orthogonalLoop=1;fontFamily=Courier New;strokeColor=#030303;fontColor=#000000;" parent="1" source="24" target="27" edge="1">
                    <mxGeometry relative="1" as="geometry"/>
                </mxCell>
                <mxCell id="84" style="edgeStyle=none;rounded=0;html=1;entryX=0.9;entryY=0.1;entryPerimeter=0;startArrow=ERmany;startFill=0;jettySize=auto;orthogonalLoop=1;fontFamily=Courier New;strokeColor=#030303;fontColor=#000000;" parent="1" source="24" target="46" edge="1">
                    <mxGeometry relative="1" as="geometry"/>
                </mxCell>
                <mxCell id="85" style="edgeStyle=none;rounded=0;html=1;entryX=0.04;entryY=0.04;entryPerimeter=0;startArrow=ERmany;startFill=0;jettySize=auto;orthogonalLoop=1;fontFamily=Courier New;strokeColor=#030303;fontColor=#000000;" parent="1" source="24" target="55" edge="1">
                    <mxGeometry relative="1" as="geometry"/>
                </mxCell>
                <mxCell id="87" style="edgeStyle=none;rounded=0;html=1;entryX=0.5;entryY=0;entryPerimeter=0;startArrow=ERmany;startFill=0;jettySize=auto;orthogonalLoop=1;fontFamily=Courier New;strokeColor=#030303;fontColor=#000000;" parent="1" source="19" target="15" edge="1">
                    <mxGeometry relative="1" as="geometry"/>
                </mxCell>
                <mxCell id="88" style="edgeStyle=none;rounded=0;html=1;entryX=0.5;entryY=0;entryPerimeter=0;startArrow=ERmany;startFill=0;jettySize=auto;orthogonalLoop=1;fontFamily=Courier New;strokeColor=#030303;fontColor=#000000;" parent="1" source="16" target="12" edge="1">
                    <mxGeometry relative="1" as="geometry"/>
                </mxCell>
                <mxCell id="90" style="edgeStyle=none;rounded=0;html=1;exitX=1;exitY=0.5;exitPerimeter=0;entryX=0;entryY=0.5;entryPerimeter=0;startArrow=ERmany;startFill=0;jettySize=auto;orthogonalLoop=1;fontFamily=Courier New;strokeColor=#030303;fontColor=#000000;" parent="1" source="18" target="60" edge="1">
                    <mxGeometry relative="1" as="geometry"/>
                </mxCell>
                <mxCell id="93" value="" style="group;fontColor=#000000;" parent="1" vertex="1" connectable="0">
                    <mxGeometry x="930.5" y="302" width="150" height="76" as="geometry"/>
                </mxCell>
                <mxCell id="94" value="Get-SqlCreateTable&lt;br&gt;" style="text;html=1;resizable=0;points=[];autosize=1;align=left;verticalAlign=top;spacingTop=-4;fontFamily=Courier New;fontColor=#000000;" parent="93" vertex="1">
                    <mxGeometry y="56" width="150" height="20" as="geometry"/>
                </mxCell>
                <mxCell id="95" value="" style="shadow=0;dashed=0;html=1;strokeColor=#9673a6;shape=mxgraph.azure.powershell_file;fillColor=#e1d5e7;fontSize=15;fontColor=#000000;" parent="93" vertex="1">
                    <mxGeometry x="33" width="47" height="50" as="geometry"/>
                </mxCell>
                <mxCell id="97" style="rounded=0;html=1;entryX=0.04;entryY=0.04;entryPerimeter=0;labelBackgroundColor=#ffffff;jettySize=auto;orthogonalLoop=1;strokeWidth=1;fontFamily=Courier New;fontSize=12;fontColor=#000000;startArrow=ERmany;startFill=0;strokeColor=#030303;" parent="1" source="58" target="95" edge="1">
                    <mxGeometry relative="1" as="geometry"/>
                </mxCell>
            </root>
        </mxGraphModel>
    </diagram>
    <diagram id="49a998e8-c4e4-6cd6-72c3-6952d2878da2" name="git-flow">
        <mxGraphModel dx="1348" dy="898" grid="1" gridSize="10" guides="1" tooltips="1" connect="1" arrows="1" fold="1" page="1" pageScale="1" pageWidth="1169" pageHeight="827" background="#ffffff" math="0" shadow="0">
            <root>
                <mxCell id="0"/>
                <mxCell id="1" parent="0"/>
                <mxCell id="23" style="edgeStyle=orthogonalEdgeStyle;rounded=0;html=1;exitX=0.5;exitY=1;entryX=0.5;entryY=1;startArrow=ERmany;startFill=0;endArrow=classic;endFill=1;jettySize=auto;orthogonalLoop=1;strokeColor=#000000;curved=1;" edge="1" source="24" target="29" parent="1">
                    <mxGeometry relative="1" as="geometry">
                        <Array as="points">
                            <mxPoint x="86" y="358.5"/>
                            <mxPoint x="261" y="358.5"/>
                        </Array>
                    </mxGeometry>
                </mxCell>
                <mxCell id="24" value="0-Target" style="shape=cylinder;whiteSpace=wrap;html=1;boundedLbl=1;fillColor=#f8cecc;strokeColor=#b85450;" vertex="1" parent="1">
                    <mxGeometry x="56" y="275.5" width="60" height="40" as="geometry"/>
                </mxCell>
                <mxCell id="25" style="edgeStyle=orthogonalEdgeStyle;curved=1;rounded=0;html=1;exitX=0.5;exitY=1;entryX=0.5;entryY=1;startArrow=ERmany;startFill=0;endArrow=classic;endFill=1;jettySize=auto;orthogonalLoop=1;strokeColor=#000000;" edge="1" source="26" target="34" parent="1">
                    <mxGeometry relative="1" as="geometry">
                        <Array as="points">
                            <mxPoint x="776" y="348.5"/>
                            <mxPoint x="612" y="348.5"/>
                        </Array>
                    </mxGeometry>
                </mxCell>
                <mxCell id="26" value="1-Source" style="shape=cylinder;whiteSpace=wrap;html=1;boundedLbl=1;fillColor=#d5e8d4;strokeColor=#82b366;" vertex="1" parent="1">
                    <mxGeometry x="746" y="268.5" width="60" height="40" as="geometry"/>
                </mxCell>
                <mxCell id="27" style="edgeStyle=orthogonalEdgeStyle;curved=1;rounded=0;html=1;exitX=0.25;exitY=0;entryX=0.5;entryY=1;startArrow=ERmany;startFill=0;endArrow=classic;endFill=1;jettySize=auto;orthogonalLoop=1;strokeColor=#000000;dashed=1;" edge="1" source="29" target="33" parent="1">
                    <mxGeometry relative="1" as="geometry"/>
                </mxCell>
                <mxCell id="28" style="edgeStyle=orthogonalEdgeStyle;rounded=0;html=1;exitX=0.75;exitY=0;entryX=0.25;entryY=0;startArrow=none;startFill=0;endArrow=classic;endFill=1;jettySize=auto;orthogonalLoop=1;strokeColor=#000000;fontSize=15;curved=1;" edge="1" source="29" target="34" parent="1">
                    <mxGeometry relative="1" as="geometry">
                        <Array as="points">
                            <mxPoint x="279" y="208.5"/>
                            <mxPoint x="595" y="208.5"/>
                        </Array>
                    </mxGeometry>
                </mxCell>
                <mxCell id="29" value="prod-base" style="shape=image;aspect=fixed;image=data:image/png,iVBORw0KGgoAAAANSUhEUgAABEwAAANSCAYAAAEIfWtJAAAAAXNSR0IArs4c6QAAAARnQU1BAACxjwv8YQUAAAAJcEhZcwAADdcAAA3XAUIom3gAAGcfSURBVHhe7d17kJz1eSd6Vc1oJO3WVoJAEqAbEroAAoRG4iJhsB0uwRdhMDYIFGdlTGzjYHbLyqWWU9mttZOsg9jEdnm9PoGi1gcHHIM2wevKAU4qfyTYZwtD+TiUt44pjs0lDsFOBdg4LJiU5jy/4TeT1ju/aU13vzP99sznU/WlW/P29PQ0v3n66afffnvRXFq8ePE5kU+Xctttt43dfPPNY/v27RvPFVdcMXb++eePZ8uWLWMbNmwYW7ly5VhcdsZJl1+3bt3496frSdcZP+MfY9vEzz073zT6Kf5H/ELkp5Hi/8iG5eXItnzTmStxp3+g5X/CwGR4eHhX/hWYC6X/CYOS/Csw2+LOPlS981Mee+yxsVZHjhy5Lk7W5W+bc9Gv7C3dzsihfBFmU/WOj3L+ZN7USHH7vla5zT/Nm5hNlTt9IEr5IN7mgRZ38oHKnf543tRoUVUebL3dIyMj1+RNzIa4k19ovcOXLFmyMW9qvNbbHQvn6fxlZkPrnZ2SvzwQBvm2D5zKnf1i/vJASLe39fbnL1O3uHO/1XpHRw7kTQMh3d7K7X84b6JOlTt5IP8i58Pv0GjVO3hQ7+Tq79D0GVBjLF26dN1E4o7b15q4E78ceS7doYX8OHLU5Qck6XZP+X3i93wqcm9K/Lv0fXOV61r/n9SZ/L98ZkZGRtJY+9XIlDtLFkzSK/7Tv4wRG19pubDI1PYhvqiKSCmv5CUyPr6+tXCBlyKj+SIsALEODlbWwHjy5uIzlpvyJhag6nqIBXRXacPXx7/Igta6JmKhPJ/KzW+0fjFfjgUu1kJrz/p6+kLaG91C4ShRQJ45al3EfywUprBQmBELhRmJhXLfUevilltu+cJRX4AQCyW9pvVP6+LDH/7w5D/GvwBhykK54YYbLBSmmLJQrr32WguFKaYslGuuucZCYYopC+Wqq66yUJhiykJ597vfbaEwxZSF8o53vMNCYYopC+Wyyy6zUJhiykJ5+9vfbqEwxZSFcvHFF1soTDFloezZs8dCYYopCyUdLfGoL0CYslB27txpoTDFlIVyzjnnWChMMWWhnHXWWRYKU0xZKGeeeaaFwhRTFsoZZ5xhoTDFlIVy+umnWyhMMWWhnHbaaRYKU0xZKOmTJ476AoQpC2Xz5s0WClNMWSibNm2yUJhiykI59dRTLRSmmLJQ0idrHfUFCFMWyimnnGKhMMWUhbJ+/XoLhSmmLJT04YxHfQHClIWydu1aC4UppiyUNWvWWChMMWWhrF692kJhiikL5aSTTrJQmGLKQjnxxBMtFKaYslBWrVploTDFlIWyYsUKC4UppiyUE044wUJhiikL5fjjj7dQmGLKQjnuuOMsFKawUJgRC4UZsVCYEQuFGbFQmBELhRmxUJgRC4UZsVCYEQuFGbFQmBELhRmxUJgRC4UZsVCYEQuFGbFQmJEpC2X58uUWClNYKMyIhcKMWCjMiIXCjFgozIiFwoxYKMyIhcKMWCjMiIXCjFgozIiFwoxYKMyIhcKMWCjMyJSF4hhulExZKCeffLKFwhRTForP66FkykLxKaWUTFko1Y/cT/JlWcCmLJTR0dEpC+XIkSP/T+Ss/D0sMGkNtK6JlEUXXHDBlC8ukLw+h3kt/kKfaUDui9xbStzG0n00mUVvf/vbixtEWrPofe97X3GDSGsWffKTnyxuEGlNbl9mX/yws+Kx8Dfi9NPV3HbbbQ/efPPNYyn79u0bu+KKK8Zz/vnnj6VnZekp/MqVK8cTl59x0uXT96brSUnX/ZGPfOQLse3TIyMje+NUw95vsSi+3fo/rcmJ2/pgvtnMldL/iAHIi/nmM9vizv5M5c4fpHwm/xrMpsIdP55WR44c2RfZnL+lL/7Tf/pPxduZNzNbhoaGLhm0O716eyOjeROzIRrAp1vv8Pj33XlTY8XtrD48Pp43MRsqd/bAlO5Bvd0DqXJnv5q/3HhxW19uve35y9QtHloOtt7RkUN5U+Ol21q57QfyJuoUd+xA/zW23vbIy/nL1KlyJw/6IvGQU7e4U7/eegfHQ89zedPASLe58js0/pnZwCj0ImMjIyPX5M0DI273gervkTcxnaVLl66byNDQ0KVxp+1ryY2xOA7H6U8jR92xOR+ItF5+EJJuc+l3eTV+14m9vNIfROl75yTxx7e59f9Lncn/248tbsjDkdIdJQsk8Yfw9LJly9bkJfFPYuOHqheWhZ1YLHfm5THeU+wpXUgksm18kRQ2pHxufCMLwpIlSzZFsTjq2V3OS+lV28urG/L3sQDF//8pbceU2UC+LAtYrIknjloTrf9ICyZfjgUsPbNpXRfVRXJvvhwLXOu6sEgoal0XFglFreuiukgO5suwwLWui6P+EdmXL8MC17ouLBKKWteFRUJR67qwSChqXRcWCUWt68Iioah1XVgkFLWuC4uEotZ1YZFQ1LouLBKKWteFRUJR67qwSChqXRcWCUWt68Iioah1XVgkFLWuC4uEotZ1YZFQ1LouLBKKWteFRUJR67qwSChqXRcWCUWt68Iioah1XVgkFLWuC4uEotZ1YZFQ1LouLBKKWteFRUJR67qwSChqXRcWCUWt68Iioah1XVgkFLWuC4uEotZ1YZFQ1LouLBKKWteFRUJR67qwSChqXRcWCUWt68Iioah1XVgkFLWuC4uEotZ1YZFQ1LouLBKKWteFRUJR67qwSChqXRcWCUWt68Iioah1XVgkFLWuC4uEotZ1YZFQ1LouLBKKWteFRUJR67qwSChqXRcWCUWt68Iioah1XVgkFLWuC4uEotZ1YZFQ1LouLBKKWteFRUJR67qwSChqXRcWCUWt68Iioah1XVgkFLWuC4uEotZ1YZFQ1LouLBKKWteFRUJR67qwSChqXRcWCUWt68Iioah1XVgkFLWuC4uEotZ1YZFQ1LouLBKKWtdFdZF8KF+GBa51XRz1j3POOWcsX4YFrnVdHPWP4447buzIkSPfyJdjARobG7s0MrkmUqoPNwslr89lhoeHn4880+d8L3JvKXEbS/fRZBbqIpEOYpHIMWORyDGT25XBFb/EaDyuHozcF0mPu8/H116LpH6g+EvL4jci6f55Ld9fj8fpXSMjI9fkuxUWhlj8H4qU/kikvrwYBWZXvsthflm2bNmaWOQ/qix6mcVEQXk23/0wP+RC8lJ1sXeTaOfHdu/ePXbzzTeP3XbbbWO/+Zu/OfYf/+N/HLvzzjvHHnjggYkcjMvuG+REIUhP/6pj1kcixfulTV5K93/+XwGDLf4Qni4s8qMSl3nyC1/4wo0/+clPRsfGxtblb6WNF154Ye+qVauK92dr0v2fvwUGVyzmO6qLu5I0SNydL04Xli5dui7ux2N1fofyxWHwLFmyZFMs4navzLwal9mYL04P8lPJVyr3b2tezheFwRMdx/2FRT2Z2P6JfFFqkF4eLt3PE4n7++58URgcsXhHI2mfiOLCjjyeL0qN0v1auZ9b83rqFvNFYTDEwm23qFORGc0XpUbpfs33b+l+T3koXxSaLxbs/soCrsaCnkXp/q3c39XszxeF5oqFuiOSdokvLeIUrfYsM/hm4MUi/XBl0U7J8PDwPfnizKJjDb8jXpKnWWJR7ox8s2WRtsur9sacG6nzSPd35f6fkigoz0UO6lSYkbywDqRHq8gP4vyLkfEjdRRSXHQiCzSlv5Gm5+X0dx45nB4o4t/dv9gR37wt8o1I6c4RkYWbl1KByaVienFBb+8XkZnm9lw6jhbV5pnChadL2g8htULpe9LBdY56d6qIDFTS05n0tCYdLCs9zSn9zRcT33P0CyLxhedKF2xNXOZuw09YOOJv/ldKtaCaoaGhyye+4Z7SBVry4fELAgtS1Ig0hC3Vhok8nmYk2yPT7SD208jOfH3AAha1oN1e6a+lC3y68sXJRDU6nK8HIHUoz5ZqReT1YxWTe/N1AKRiMu2LNIoJMGOKCVCLqAnfK9WKlLbFJOLDy4FJqcEo1InxLPr4xz/+j6UNOYoJMKltMfmX//JfFjfkKCbApLbFZN++fcUNOYoJMKltMXnf+95X3JCjmACT2haTq6++urghRzEBJrUtJldeeWVxQ45iAkxqW0ze+c53FjfkKCbApLbF5Od//ueLG3IUE2BS22JyySWXFDfkKCbApLbF5G1ve1txQ45iAkxqW0ze8pa3FDfkKCbApLbF5IILLihuyFFMgElti8m5555b3JCjmACT2haTHTt2FDfkKCbApLbF5Oyzzy5uyFFMgElti8mZZ55Z3JCjmACT2haTbdu2FTfkKCbApLbF5IwzzihuyFFMgElti8lpp51W3JCjmACT2haTrVu3FjfkKCbApLbFZMuWLcUNOYoJMKltMdm0aVNxQ45iAkxqW0xOPfXU4oYcxQSY1LaYbNy4sbghRzEBJrUtJhs2bChuyFFMgElti8n69euLG3IUE2BS22Kybt264oYcxQSYpJgAtWhbTNasWVPckKOYAJPaFpPVq1cXN+QoJsCktsXk5JNPLm7IUUyASW2LyYknnljckKOYAJPaFpNVq1YVN+QoJsCktsVk5cqVxQ05igkwqW0xWbFiRXFDjmICTGpbTI4//vjihhzFBJjUtpgsX768uCFHMQEmtS0mxx13XHFDjmICTFJMgFooJkAtFBOgFooJUAvFBKiFYgLUQjEBaqGYALVQTIBaKCZALRQToBaKCVALxQSohWIC1EIxAWqhmAC1aFtMHGkNmCnFBKiFYgLUQjEBaqGYALVQTIBaKCZALRQToBaKCVALxQSohWIC1EIxAWqhmAC1UEyAWigmQC0UE6AWiglQi7bFZNWqVcUNOYoJMKltMVm3bl1xQ45iAkxqW0xOPfXU4oYcxQSY1LaYnH766cUNKbt37x47cuTItfl6gAWubTHZvn17cUPK1q1bx5IoKF/J1wUsYFFMDpdqRcqic889t7jhWEkVasDy5bjdN0b2LcSMjIxcvXTp0vWRdfM0a/N6p0fRP2yMHBjvJCpiLU2bRRdeeGFxg4hIJ1n0rne9q7hBRKSTLPrFX/zF4gYRkU6SnyXNH0uWLNkQv9jZIyMje+P00x3k9ttuu+3lf/Nv/s3YzTffPJl9+/ZN5oorrpjM+eefP5ktW7ZMZuXKlZOJ65yVtP6M1p89cXsuu+yysSuvvHL8Nn/0ox/9bnzP5O85PDz8G3F6TuTsdF/luw2IonFN/IHcFX8cj8TpM3H6cuT1yBuR4h+jjN8/KS/HffaDyOHIwfj3aL5bYeGIxf9/xOJ/KVL6Y5Hu8tO4X5+OfDzfzTC/xaJ/rPJHIDUnCsqd+e6G+SkWukIyR1FQmLdigR+qLniZ3URBOZjvfpgfli1btiYWtxnJ3OeldN/n/w0w+GJRf6ayyLvOxo0bx97//vePv/R72223jd1+++1jd95559gDDzwwmbjcDZHirukDkhuiq7gr0vqWgvvi61PujxnkM/l/Awy+WNAz7krOPvvs/E6CqY4cOXJjZF+cvTSyLs4vuPd0fPzjH1+T7ovSfTdNXsrfCoMtFvP+yuIu5md+5mc+9z//5/+8OgrE+oVYJDr1t3/7t50Ulf3522BwxUKeySs4H84Xp0MrVqzYE/ffq5X7s5qH8sVhcMVCTnu1lhb4RL6eL0qX4j78bOU+reblfFEYTLGIj/UU55XItnxxujSTV8uGhoYuzReHwTM8PHx/aWFPJLbfky9Kj+L+/Fz1/q3kjnxRGDxRLJ4rLOrJxKPl5fmi9Cjuz+2R11rv39bE/4un8kVhsCxZsmRTLOL07tbi4o68kC9KTVLBKNzPE3nVDmwMpFjYnygs6Ml4ilO/uF/vqN7PlXiJmMETC/eRykI+Kp7i1C8NWUv39USigN+fLwqDIxbvi9XF3BIvVc6SdN9W7uvJRDF5Ll8MBsOxHiEjj+SLUrN031bu69b8NOKIbAyOWLBtn7vHI6S3xs+SdN+W7vOWeImYwREL+unCIp6IR8dZlO7bfB+X7vtUyJ/OF4Vmi6c4l5UW8UQ8b5996T4u3fc5qdDszBeF5oqF/GBl8R6V2O4VhVmW7uPSfT+R2O5leZotFunuWKzT7oWZcyBfnFmS7uPKfV6N90TRbFFMnqws2mpeXbJkycZ8cWbJDPY+TvFubZonFua2yOMtC7WYKDbeHzJH4r5u+76oHMeRoTli0aaXIlPbXFqsRyUue3f+NmZZ3Nf3lP4fVBOXe9DeyHRt2bJlq5cuXbqumpGRkc2xwK6LlA5yPJFDsQDvjdPUiRzrwEfVfD5Suk6pP+m+Lv0/mC5pj+X0Ma2tB7FOH9066Afn7jpp58vS30nDM7uHPM17pKbPrXk8FsizcZoO8zfxmbXVlBaayEJN6W+kyXkt/safj9P0t35X+jzvXAa6l4++lbqImTx3FpH5m/QM4qEoLHtzeZi5KCBpjuFDr0Skmm9EZrZbQFzw0ZZvFBGp5sVoOHblklEWF/LB4CIyk/zNtEfei0rztcI3iIgUEzVj6q4a8cWPly7cJuMT38gPIocjrS8HisgAJf6e0ys3z8Rpp7tqTN0jPa5oRq/YxOWeiNP9S5cuXZ+/FZhH0g6I8Xfe9s22lfxO/tbxQnJL4QJHJS7z7MjIyJX5W4B5Lv7ud0SO+RaXyOP5W8a/6Vjf8Fi+KLDApL//Sj2o5tXxZyrxfOfU9I/KxslER/Jkvk5ggUrPTEr1YSLjO7PFmRurG1qShqy78/UBC1QacRTqw2SiTvyrVHH+sLQx5+F8XcACF7Wi3XGZH0kX+H5hw0Qc0QwYF7Xi7kKNmMifpgv8sLAh5fVobTbn6wEWuKgJ6VASpVqR8mjbYpKObZCvB1jgoiakY7SUasV4FBNgRqImKCZA76ImKCZA76ImKCZA76ImKCZA70ZGRq4u1InJtCsmL+brAFgUzcX6qAvpgNOlejF9MYmvP5OvAyAVk3VRG6YvJvGfv6l+MUUxAVrNpJgUNygmQCvFBKiFYgLUQjEBaqGYALVQTIBaKCZALRQToBaKCVALxQSohWIC1EIxAWqhmAC1UEyAWigmQC0UE6AWiglQC8UEqIViAtRCMQFqoZgAtVBMgFooJkAtFBOgFooJUAvFBKiFYgLUQjEBaqGYALVQTIBaKCZALRQToBaKCVALxQSohWIC1EIxAWqhmAC1UEyAWigmQC0UE6AWiglQC8UEqIViAtRCMQFqoZgAtVBMgFooJkAtFBOgFooJUAvFBKiFYgLUQjEBaqGYALVQTIBaKCZALRQToBaKCVALxQSohWIC1EIxAWqhmAC1UEyAWigmQC0UE6AWiglQC8UEqIViAtRCMQFqoZgAtVBMgFooJkAtFBOgFooJUAvFBKiFYgLUQjEBaqGYALVQTIBaKCZALRQToBaKCVALxQSohWIC1EIxAWqhmAC1UEyAWigmQC0UE6AWiglQC8UEqIViAtRCMQFqoZgAtVBMgFooJkAtFBOgFooJUAvFBKiFYgLUQjEBaqGYALVQTIBaKCZALRQToBaKCVALxQSohWIC1EIxAWqhmAC1UEyAWigmQC0UE6AWiglQC8UEqIViAtRCMQFqoZgAtVBMgFooJkAtFBOgFooJUAvFBKiFYgLUQjEBaqGYALVQTIBaKCZALRQToBaKCVALxQSohWIC1EIxAWqhmAC1UEyAWigmQC0UE6AWiglQC8UEqIViAtRCMQFqoZgAtVBMgFooJkAtFBOgFooJUAvFBKiFYgLUopdi8ny+DoDui0lKkq8HWOB6LiZJvi5gAeu5mBw5cuTv83UBC9inP/3p06Mu9FRMfhL5o3Q+XyewQMSf/cbIgfT3n5TqxETaFpPpMjw8fF/k3kFK3O5DkX0LOKOpTZ2vyWufGkTNuPTN0jFVrKNp01UxkYHMG5HUos7XvBwPGs/I8DNxXzwSp8UH1XaJ7yutmxlHMRGRWqKYiEgtUUxEpJYoJiJSSxQTEakliomI1JL8yjJNsGzZsjVLliw5Jf7H7BwZGbkmTm+I3BT53eHh4a9Evhq5P/79Z3H6/cgPZyNx/X8d+btIcdFI4/Jq5G9K/y9zvh/b05q5P5LWUMpX4mu/G0nr6/qhoaHLY81tSWswL0cAFopoPjbGg8DeeEBIO+U+FA8ST8Xpi5H0AJP2v0r7l5UegERmM2ntpTX4Yl6TD0XuiOyPbM/LF4D5Ior7hyKPRf4hUnpgEGlqXotmJe2o/8U43ZWXNACDKIr5RENSKvgig5Y0UblTgwIwYKJwXxD5WhTyNB4vFXiRQU56+fGLkW15yQPQVGkfkmhKnmgp4iLzNd8YGhp6Z176ADSNpuTNz4KUWcuzcR+37iw9XYr/b2YjcZueSOs+/wkA0BRz2ZScdNJJYx/5yEfG7r///rEf/vCH+cDh3Tty5MiNkX05Vx8+fHj0gQceWP/Vr351Xcp/+2//bXX+NWmAZcuWrS4dor8l62OdjMaavDpOb9y0aVNxHdUVzQlAw0RxHo2kt1j+dKJY15EvfOELuXU4WqWRuC6+dGmcbo7TdSlxfm2+aTDpO9/5zponn3xyb1pDL7744lg0E8V110XSuk/rfzT/KAD6JR2YKgry5yKvREpFu5Okd/B8+N/9u3/nA+qYdf/9v//3NY8++uiVq1at+lJlHXaTlyN35KsGoF+iGB8YHh5+rqVAd5MfRQ4tXbrUpIO+iPWX1vGTLWuy48T3Px2n+/NVAjDXogj3/BJOFPO0U+PH81VC39Swn9Tr8f33L1myZFO+SgDmUhTidGj5NMIuFeljJor4t+PB4D356qDvem1O4nvT9PBAvjoA5srQ0NClUYAfby3KHeaFKOKfyFcHjRFrc3+szfSyTGndHit2hAXohyi8vUxLXo3Cf0/6UL98ddAosT5/NdZpOmZKaf0eK+nQ9QfzVQEw29JHxUfx7WVa8ni6jnx10DixRnvZfyp9SvYjEVMTgNmW3h4czwbvjqLb7efgeAmHgRBrtZd3nKVp4qF8VQDMlpGRkWuiWD9VKcIzjXctMDDSOk3rNa3byjqeadJk8NJ8dQDULe0TEoX6nii4XU1L4nsd54GBktZrXrfFNX2MOOgawGyKItvLaDvt8Hp3eikoXx00Xq8vXWrGAWZJFNeeDqYWBfqp9DJQvjoYGD2+fOntwwB1q+HzcIy0GWhp/eZ1XFrfx4r1D1CneLZ4MArrCy2FttPYCZCB1usBBeNv6LnILfnqAOhWFNNbU1EtFdsZxtsmmRfSOs7rubTOj5n4O/IRDADdSp/0G8U0FeL0yb/FQjvDmJYwL/Q6NUmJ5sSHVgJ0KgroTZHHWgtql3FobuaVWNM9TU1yUrN/KDX/+WoBqIpng++OJuLuyLOVItptHJabeaeOqUlLHo+/t1+J0x356gEWjvTsLLJuZGRkcy6uByLpnQYPR3HsZR+S6ZKmJb+efzzMG2ldp/VdWe+95LVI2rk8NSr3RA6mtyjHv0fjb3Z9+rstZdmyZavzTQI4tnQ469wAXBe5IRWbyF2RezvI4VysfhBJr013k+fjOtLoORW/dGjtbg+v3U1+HD//2crtERnkpInijyvrfLaSpo4Tf7OlpIO+pScA/sYWXn4Q/+/TY8PhSOmxQ+rLl+O+Ti/h3hi5Lj2upyf4jX5iEDd0Z9zwWyLpUO1poaTpQ2oEUuEoFRsREREZ3LQ+MUgHX0wHUUyvQOyPzP3uC9EtvTN+8GfixjwRpy9FujoSqoiIiMy7pJ7gpdwjfCb1DLl9qFdccd07hoqIiMgCSO4dvhinu3Jb0b24og9F6njbrIiIiCzspJd+fj9OO3+5J77pAxENiYiIiNSaaE6eGBkZuTK3HO3FN2yLb/jf43Su9rqfSOue9iIiIjK3KT02z1qi10jvrmr/+VlxwR1xoQfjNL2ttnhFXeaVuN6n4/SROP2DOJ1429G+yORbj0rHKRAREZHZTcvxvdLhPdJjc3qMPhSP2ffHaTqgYi8fYjtt4vrT52ftzW3I0eICdTYlqREZ3xs3/cBly5atyT8GABhA8Zie+oT0obYPRuo6KOnrcV33p+Oe5R/zpvjCxtiQjkGS3pNc+saZJh3D5GCcbstXDQDMQ/FYX9dnyr0QvcMn8tW+KX0hbahcsJOkG/ahfHUAwAIRj/+pQenl87PS1OTwyMjIGeNXODQ0dHl8sdsr9AmhALDARS+Q3jhzd5y+kvuDjhLfmz5i4EPpJZwNceZ3Ix1/hHlcyXORW/NtAgAWsLQ/afQHn4t005y8nBqbRWnH1PjHn0XSB2WVLjhdUiNzR74tAABpcjIaeSTSaV+R3q78p+kKPh0dyg9bNsw0j6e3FeXbAQAwLvqK9CaYFyt9w7HSU2OSdlK5N73vOd8GAIBx0Sfsiz7hmUrvMJO8oDEBAGoVfUK3jcmYxgQAqFX0CRoTAKAZok/QmAAAzRB9gsYEAGiG6BPmvDF5Nb7nrmXLlq3OtwEAYFz0Cd0ey6S7xiQu/2yc3pB/PgDApPSKSvQK90avkI5NUuwlpku3jUkaz+zLPx8AYFJPjckv//IvfzfOvFrd0C4aEwBgOj01Jh/72MeKG9pFYwIATKenxuRDH/pQcUO7aEwAgOn01Jjs37+/uKFdNCYAwHR6akyuv/764oZ20ZgAANPpqTG57rrrihvaRWMCAEynp8bk/e9/f3FDu2hMAIDp9NSYXHPNNcUN7aIxAQCm01Nj8t73vre4oV00JgDAdHpqTK666qrihnbRmAAA0+mpMXnPe95T3NAuGhMAYDo9NSZ79+4tbmgXjQkAMJ2eGpN3vetdxQ3tojEBAKbTU2Pyzne+s7ihXTQmAMB0empMrrjiiuKGdtGYAADT6akxufzyy4sb2kVjAgBMp6fG5NJLLy1uaBeNCQAwnZ4ak5/7uZ8rbmgXjQkAMJ2eGpO3v/3txQ3tojEBAKbTU2Py1re+tbihXTQmAMB0empMLrroouKGdtGYAADT6akxufDCC4sb2kVjAgBMp6fGZPfu3cUN7aIxAQCm01NjcsEFFxQ3tIvGBACYTk+NyXnnnVfc0C4aEwBgOj01Jrt27SpuaBeNCQAwnZ4ak9HR0eKGdtGYAADT6akxOeecc4ob2kVjAgBMp6fGZPv27cUN7aIxAQCm01NjctZZZxU3tIvGBACYjsYEAGiMnhqTM888s7ihXTQmAMB0empMtm3bVtzQLhoTAGA6GhMAoDF6akzOOOOM4oZ20ZgAANPpqTE5/fTTixvaRWMCAExHYwIANEZPjclpp51W3NAuGhMAYDo9NSZbt24tbmgXjQkAMB2NCQDQGD01Jlu2bCluaBeNCQAwnZ4ak82bNxc3tIvGBACYjsYEAGiMnhqTTZs2FTe0i8YEAJhOT43JqaeeWtzQLhoTAGA6GhMAoDF6akw2btxY3NAuGhMAYDoaEwCgMXpqTDZs2FDc0C4aEwBgOj01JqecckpxQ7toTACA6WhMAIDG6KkxWb9+fXFDu2hMAIDp9NSYrFu3rrihXTQmAMB0NCYAQGNoTACAxuipMVm7dm1xQ7toTACA6WhMAIDG6KkxWbNmTXFDu2hMAIDp9NSYrF69urihXTQmAMB0NCYAQGP01JicfPLJxQ3tojEBAKbTU2Ny0kknFTe0i8YEAJiOxgQAaIyeGpMTTzyxuKFdNCYAwHQ0JgBAY/TUmKxataq4oV00JgDAdHpqTFauXFnc0C4aEwBgOhoTAKAxempMVqxYUdzQLhoTAGA6PTUmJ5xwQnFDu2hMAIDpaEwAgMboqTE5/vjjixvaRWMCAEynp8Zk+fLlxQ3tojEBAKajMQEAGqOnxuS4444rbmgXjQkAMB2NCQDQGBoTAKAxNCYAQGNoTACAxtCYAACNoTEBABpDYwIANIbGBABoDI0JANAYGhMAoDE0JgBAY2hMAIDG0JgAAI2hMQEAGkNjAgA0hsYEAGgMjQkA0BgaEwCgMTQmAEBjaEwAgMbQmAAAjaExAQAaQ2MCADSGxgQAaAyNCQDQGBoTAKAxNCYAQGNoTACAxtCYAACNoTEBABpDYwIANIbGBABoDI0JANAYPTUmy5cvL25oF40JADAdjQkA0BgaEwCgMTQmAEBjaEwAgMbQmAAAjaExAQAaQ2MCADSGxgQAaAyNCQDQGBoTAKAxNCYAQGNoTACAxtCYAACNoTEBABpDYwIANIbGBABoDI0JANAYGhMAoDE0JgBAY2hMAIDG0JgAAI2hMQEAGkNjAgA0hsYEAGgMjQkA0BgaEwCgMTQmAEBjaEwAgMbQmAAAjaExAQAaQ2MCADSGxgQAaIyeGpPjjz++uKFdNCYAwHR6akxWrlxZ3NAuGhMAYDo9NSYnnXRScUO7aEwAgOn01JisWbOmuKFdNCYAwHR6akzWrVtX3NAuGhMAYDo9NSYbNmwobmgXjQkAMJ2eGpNNmzYVN7SLxgQAmE5PjcnWrVuLG46Viy66aOzIkSMX5tsAADCup8bkjDPOKG44Vnbt2jU2Id8OAIDeGpOzzjqruOFY2bZtW25L/km+PQDAAtZTY7Jjx47ihmMl7TQ74ciRIy/k27Io/vn+fBYAWECiHxiNXBP5t6XeYSZZlF6SKW2YSVrFjXgj8nr+51Hi658499xzd+3evXt96qJkVrM2rw8AqF08pk80Hwfzw3xRqW+YSRadf/75xQ2zmDTWkdnLa5GXh4eHn488Iwsu34v//4/E6X2Re2Xg8uX4/3cocmNkn0jKyMjI1XE6Gk885+rJ/fprr7129Prrr79m3759bZuPduI2d5VFe/bsKW4QERGRxuSNSOnJaF0p/cy+ZFF6229pg4iIiMhcZ9Hll19e3CAiIiIy11l01VVXFTeIiIiIzHUWXX/99cUNIiIiInOdRf/6X//r4gYRERGRuU5+VzJNNjIyckb8zzo7ZXh4eHfk5jj/25FPz0Zuu+22L0S+G/nHyNjNN99czAc+8IGxffv2Tcl73/vesSuuuKKY9Pb0UrZs2VLMypUri4n7pLigm5p/9s/+WfH3KP3O6aCHpfto4j6cuJ8/+tGPprz8kY985MH4GbdHSv8/fzutl7Ru4vz4GkpJayovLwAoS+8fjweMLUNDQ5fHg8f1kV+IB5Rfi/yXyFdzHox8J/JXkR/ORuLn/k3k1UjxQVYal7+L/HXp/2UkrZO0XtK6mVhDKWlN/Vp83y/EmrsmTncuWbLklLwUAViI4oFgYzQhl8aDwoHIoXig+HLkcJx/PE5/EHk2zr8YSU1CI99vLgOT1vWTktbUi2mNRSYOyvYHcZoO7nUgrcu0PvNSBWA+i8K/Mx4EboncE+dTE/JcnL4cSUdt1XhIP5IO3jRx1OC0HtO6vCfyiWhSLlu2bNmavHwBmC+i2I9GfivycC7+Xi6RJietzxci34p8JhqUd+alDMCgi0ZkV+T3c6H/aaT0QCDS1LwUeTTyobykARhUuSm5M4p62l+kVPRFBiWPRTQnAINKUyLzMJoTgEEUxXtb5IsRTYnMt2hOAAbN8PDwwUh6y2+psIsMelJz8oG83AFosvQOhija32gp4iLzLa9G4/21yAV52QPQROmYD1G0PxNJ72QoFXSR+ZIfRQ45zglAg42MjOyNZ5FPVAq4yLxMWutpzeflD0CTmJa8mXiwekZmLc/Hfdx6pODpUvx/MwtJa/0zpiYADdTUaUn6JNuzzz57/NNpP/jBD45/OvDHPvaxsfTpwSm33377eO68887xfOUrXxl74IEHjsqf/MmfpOu6MbJP+pr0/2Dis5XubZPxz12KTFkPdSd+lqkJQNPM9bTk8ssvH/ud3/mdsccff3zstddeG+vFkSNHDkZuiOyLXBdfujSakc1f/epX16U89NBDa/OvSUMsXbp0bfpE6ukSjcLm/CGR10fj8KvV9VNzTE0AmiZ92FkU5/S5IqXC3XM+9alPjb3xxhtvdhIzVGk4Uq6OjEbWx+Z1KXF+df4VmMc++tGP7jh8+PCt3//+98d2795dXGM95lvpbyD/OAD6LZ6VfiKKc/osnFLR7iobNmwY+/u///vxJqNVNBMaDrry3e9+d0fk1rSObrrppuK66zIvpL+B/GMA6KclS5ZsjKJ8TxTnOj4x+MeRr3/yk5/81c9//vPXR2Ny6SuvvLJZw0GdfvSjH+34xje+ceujjz5aWoPdJB3X5J70t5B/BAD9knd6/XahWHeaF+N67vzUpz61J181zKr7779/x1/8xV/8SmEtdpPHh4aGLs9XDUC/REH+nUivO72+Ek3JlyK78tXCnIl1V8dHKHg5B6DflixZsimK8f1RlHs9dsQ349nmu/PVwpyK9bct1vHdcfpKy5rsNF7OAei3NLqOgtzT8SKimD8XOZivEvpiZGTkyliHvR6HJ72cc2m+SgDmWhTyXt+Nk55l/nGc7shXCX1Rx7F4UpMdpwfyVQIwl+p4N058/5NxqpDTCDUcvTgdLv9QvjoA5lIaWUcR7uVlnPR6/ufSkTrzVUJf1TA1eT0am/vTvlf5KgGYK1GED+TRdalAHzPxvU/H6f58ddAINbz93duGAfohCvChSBpdl4rzsfLTyEOR0Xx10Ag1vETpbcMAc62GtwmnhuaOfHXQKLG2b4l0Ow1MO3Tf7UP9AOZQr/uXROH2Mg6NFetzV6zP/yvyxsSa7SDpex6JmAYCzJUour3sX+JlHBotTTvS1CPWaFcv58T3PjUyMnJNvjoAZlsU3zsi3e5f4mUcGi+ai16O0ZM+98lBAwHmQhTd0UiaeKTJR6kot00UbC/j0Hg9HtXY4ekB5koaUadRdaEYzyRexmEg1LCDt8PTA8yFNKKOovtipQjPNF7GYWDEWu36LfHxd+Lw9ACzrYadAhVrBkZaq3nNFtfzMZIaGoenB5hNUWjT/iXprZDdvI0yxXibgdHj2+Idnh5gtkWx3R/FNu28WirEx4odAhkoaa2mNZvWbmUtzzQOTw8wm6LQ9nIYem+hZOCkNZvWbmUtzzQOTw8wW3p9l0J8r4NOMXB6fBeaKSHAbOnxuA4O081ASms2r91e9qvycg5A3dJIOopst0fC9MFmDKRe34kW8XIOQN1q2AlQcWZgpbWb1nBlTc80Xs4BqNvIyMjeKK7fLhTdmcY4m4HV48uYKdY/QJ2isKZ347zUUmg7ieM5MNB63fE7kiaG3pEGUIcoqjsjD0e6+tC+iCNgMvDSGs5rubTGj5XXojF5ME6356sDoFtRUG+NdHtYboehZ15Ia7jHvwOfqg3QqyikO6Kgpmd6r00U2C7iMPQMvLSG01qurO1O8krkc0uXLl2XrxKATkVTcrCXZ4kR+5cwL9Swn0mamjwZp6aHAN2IZ4jvjiL6zdbC2kXsX8K8kdZyXtOltT6TpLcO/3Gc7shXCcBMRPHcFflSFNA0fi4V2BklrsPr6swbsZZ72s8kJX1/xDt0AGYqimZqSu6MItrtB5dNxGHomVdq2M9kIt9ME8l8tQBMJxXLaErSpKTXpiTFYeiZV+rYzyTnlfR3Fjk3XzUAraJQbosimT7ePe1T0tPLNy15MV1n/hEwL8S67nU/k4mkv48vjYyMXKl5B8jiGeDGKIzviQJ5d+TZQvHsOnF9T6WPjM8/CuaFWNv7Y22nfaeK677DpMnJE3H6ucj+iJc9gYUhnpGtTsdPiKxPxS81DFEQ01uB74mkz8Cpa0oykbR/yZ/GdZ+fbwLMC2lNp7Wd13hp7XeT1KCkZuehyB2RA2l/lvg73Zz/bktZm28SQPdSMakUl3aZaCKujtN9XeaGKHipAbkrcm/kvvjaI3H6VJym/Ui6/bTgYyUV7W/Gz/l4nJZul8hAJq/p9JJnnY3JRNLHPrwcPyO98+fxOD0cSX+3pXw5LpNeVroxUrytMn+THxdG0+NE5XFDak56Yp8fwgdbes04LZqWpiIVj0OpmFSKS7tMNBHfizzTZdLLMxMNSNphL2U2CmopP4mf/1eV2yMy6PmrtLYra322MvE3W0o6GnNqYp6v3D5ZGPle/P9Pjw/3RUqPH1Jf0hP7tA/mDa0NYX64b7Z0Y+NGT7xEcndeNBNNxfPx77TDXCompSIzXeaqiRARkcFKenwoPW5IvUlP7NPO6s+mx/Q4nx7b/yBO08Ry/GXXtL9mbgX6L+88ujffwIfixra+RKKpEBERmV9Jj+0TE8uJl13T/pqfiCbl8r41KXFD0ofb3ZJvTNp59KVIen249EuIiIjI/E0aRrwQmWhSbonzc/PRE/GD0vE+Ph55MJI6pdnaeVREREQGL+ngoumjJ1KfkHaW35ZbiPrlo6Km4308Ez8ojXFKN0hERETktdQvpL4h9Q+5lahHXPlsHBVVRERE5n9S3/Bo5EO5rehNNCS74sq+GKe1HhVVREREFlQei/TWnKSmJFLHp+yKiIiIdN+caEpERERkFvLo0NDQO3O7MTPxTdsiX4xoSkRERKTOpMOLfDYd7j63Hcc2/OaRW+1TIiIiIrUneown4/RAbjvaiwt+IPKtiW+eozissIiISP8y10dqT8c6+aM43Z7bj7K4QDqa6x+nb8jfWHfSL996zH0fxCQiItLfVD8wt/XDb2etYYmf83Sc7s8tSFlc6NZIOppr8Uq6TDoQ28RhatNHmE9+SmHER1eLiIj0N+vT43B+PN6XHp/T43Rk4sN4UwNRenzvNen4Jp9btmzZmtyGHC02pmnJg3Fa1xFd0xHfJg5JezB9sE/80pvjBqzOPxIAaKjUMMRj+Whkf+Rz8Vj+RH58rzOPRX9wSf6RR4sfWNu0JF1PJDUkt8a/5+ZDfACAWZGalJGRkb3xmP6ZeGyvrUHJfcfUnWDji9tTIxGnvU5L0ljmm3Fd6aUaDQkAzCO5QbkyHue/FI/zdRxS5OXIHfnq/0l8cX/8kF5fQ0o7tH6p9g/qAQAaJR7v6zoI608jD0V25qt+U3zhjkjqWkrfNJOkpuTOdEPzVQIA81hdzUlcx/dGRkauyVc73pSkHVtSt5K6luI3HSOaEgBYgFqakx9XeoMZJ77/+Ti9KV9lzy/jvBLf+6V0w/LVAQALSPQAeyJfi56g22OgpVdsfnfJkiUbxq8w/nEof7F04WPlm/YpAYCFLfqBA9GcpMPMl3qFYyUdXuQrcXrWopGRkdPjH/fHP9IRWUsXnjbxfektwQfzbQIAFqh0oLboDT4bSR/QV+wb2uT16CfSIUZ2p8YkvSf58coFZpLU3aS3F3tLMAAw3lNEb/DtSr8wo8T3fSdycxq9/FKc+UH1AjPIC/F9piUAwLglS5ZsjN7gnugROt7XJL7vr+L0t1Nj8qlIN2/zeTwdYj7fFgCAtCNsOsBqx31FfN8P4/TT6Qq62Ys2vRZ0f3RGm/LtAABIL+dcEz3CU4XeoW0mG5P4z59GOt3xNb2D51C+DQAA46I/SMdGeyTyRqTUQxTTU2MS35wOhHJjvg0AAOOWLl26PvqE+6JP6HTo8Tc33XTTF7ptTJ6J0335NgAAjEtvG44+4d7oEzptTF6NxuS7GhMAoDY9NCZjH/3oR/9RYwIA1KaXxuTGG28c05gAALXppTHZv3+/xgQAqE8vjcn73/9+jQkAUJ9eGpOrrrpKYwIA1KeXxuQd73iHxgQAqE8vjckll1yiMQEA6tNLY/LWt75VYwIA1KeXxuTiiy/WmAAA9emlMXnLW96iMQEA6rNs2bLV0SfcFX3Cq629w0xy4YUXdt2YfG9kZOTqfBsAACZFn3Aw+oUXq/3DsbJ79+6uGpP0Mcbp44xH888HAJgUPcIN0Zw8m/uGGeeCCy7oqjF5PX7YfUuXLl2ffz4AwKToFfZFr5B2+yj1EdPmvPPO67oxuTft3JJ/PgDApOgVumpMzj33XI0JAFCv6BW6akx27do13pg8GtGYAAC1iF6hq8ZkdHR0vDF5obrhGNGYAADTil6hq8Zkx44d441JcWObaEwAgGlFr9BVY7J9+3aNCQBQr+gVumpMzj77bI0JAFCv6BW6akzOOussjQkAUK/oFbpqTLZt26YxAQDqFb1CV43JGWecoTEBAOoVvUJXjcnpp5+uMQEA6hW9QleNydatWzUmAEC9olfoqjHZsmWLxgQAqFf0Cl01Jps2bdKYAAD1il6hq8bk1FNP1ZgAAPWKXqGrxmTjxo0aEwCgXtErdNWYnHLKKRoTAKBe0St01ZisX79eYwIA1Ct6ha4ak3Xr1mlMAIB6Ra/QVWOydu1ajQkAUK/oFbpqTNasWaMxAQDqFb1CV43JySefrDEBAOoVvUJXjclJJ52kMQEA6hW9QleNyYknnqgxAQDqFb1CV43JypUrNSYAQL2iV+iqMVmxYoXGBACoV/QKGhMAoBmiV9CYAADNEL2CxgQAaIboFTQmAEAzRK+gMQEAmiF6BY0JANAM0StoTACAZoheQWMCADRD9AoaEwCgGaJX0JgAAM0QvYLGBABohugVNCYAQDNEr6AxAQCaIXoFjQkA0AzRK2hMAIBmiF5BYwIANEP0ChoTAKAZolfQmAAAzRC9gsYEAGiG6BU0JgBAM0SvoDEBAJoheoWuGpMTTjhBYwIA1Ct6BY0JANAM0StoTACAZoheQWMCADRD9AoaEwCgGaJX0JgAAM0QvYLGBABohugVNCYAQDNEr6AxAQCaIXoFjQkA0AzRK2hMAIBmiF5BYwIANEP0ChoTAKAZolfQmAAAzRC9gsYEAGiG6BU0JgBAM0SvoDEBAJohegWNCQDQDNEraEwAgGaIXkFjAgA0Q/QKGhMAoBmiV+iqMTn++OM1JgBAvaJX0JgAAM0QvYLGBABohugVNCYAQDNEr6AxAQCaIXoFjQkA0AzRK2hMAIBmiF5BYwIANEP0ChoTAKAZolfQmAAAzRC9gsYEAGiG6BU0JgBAM0SvoDEBAJohegWNCQDQDNEraEwAgGaIXkFjAgA0Q/QKGhMAoBmiV9CYAADNEL2CxgQAaIboFTQmAEAzRK+gMQEAmiF6BY0JANAM0St01ZgsX75cYwIA1Ct6BY0JANAM0StoTACAZoheQWMCADRD9AoaEwCgGaJX0JgAAM0QvYLGBABohugVNCYAQDNEr6AxAQCaIXoFjQkA0AzRK2hMAIBmiF5BYwIANEP0ChoTAKAZolfQmAAAzRC9gsYEAGiG6BU0JgBAM0SvoDEBAJohegWNCQDQDNEraEwAgGaIXkFjAgA0Q/QKGhMAoBmiV9CYAADNEL1CV43JcccdpzEBAOoVvYLGBABohugVNCYAQDNEr6AxAQCaIXoFjQkA0AzRK2hMAIBmiF5BYwIANEP0ChoTAKAZolfQmAAAzRC9gsYEAGiG6BU0JgBAM0SvoDEBAJohegWNCQDQDNEraEwAgGaIXkFjAgA0Q/QKGhMAoBmiV9CYAADNEL2CxgQAaIboFTQmAEAzRK+gMQEAmiF6BY0JANAM0St01Zj87M/+rMYEAKhX9AoaEwCgGaJX0JgAAM0QvYLGBABohugVNCYAQDNEr6AxAQCaIXoFjQkA0AzRK2hMAIBmiF5BYwIANEP0ChoTAKAZolfQmAAAzRC9gsYEAGiG6BU0JgBAM0SvoDEBAJohegWNCQDQDNEraEwAgGaIXkFjAgA0Q/QKGhMAoBmiV9CYAADNEL2CxgQAaIboFTQmAEAzRK+gMQEAmiF6BY0JANAM0StoTACAZoheQWMCADRD9AoaEwCgGaJX6KoxOe644zQmAEC9olfQmAAAzRC9gsYEAGiG6BU0JgBAM0Sv0FVjsnz5co0JAFCv6BU0JgBAM0SvoDEBAJohegWNCQDQDNErdNWYHH/88RoTAKBe0StoTACAZoheQWMCADRD9AoaEwCgGaJX6KoxOeGEEzQmAEC9olfQmAAAzRC9gsYEAGiG6BU0JgBAM0Sv0FVjsmLFCo0JAFCv6BU0JgBAM0SvoDEBAJohegWNCQDQDNErdNWYrFy5UmMCANQregWNCQDQDNEraEwAgGaIXkFjAgA0Q/QKXTUmq1at0pgAAPWKXkFjAgA0Q/QKGhMAoBmiV9CYAADNEL1CV43JiSeeqDEBAOoVvYLGBABohugVNCYAQDNEr6AxAQCaIXqFrhqTk046SWMCANQregWNCQDQDNEraEwAgGaIXkFjAgA0Q/QKXTUmJ598ssYEAKhX9AoaEwCgGaJX0JgAAM0QvYLGBABohugVumpMVq9erTEBAOoVvYLGBABohugVNCYAQDNEr6AxAQCaIXqFrhqTNWvWaEwAgHpFr6AxAQCaIXoFjQkA0AzRK2hMAIBmiF6hq8Zk7dq1GhMAoF7RK2hMAIBmiF5BYwIANEP0ChoTAKAZolfoqjFZt26dxgQAqFf0ChoTAKAZolfQmAAAzRC9gsYEAGiG6BU0JgBAM0SvoDEBAJohegWNCQDQDNErdNWYrF+/XmMCANQregWNCQDQDNEraEwAgGaIXkFjAgA0Q/QKXTUmp5xyisYEAKhX9AoaEwCgGaJX0JgAAM0QvYLGBABohugVumpMNmzYoDEBAOoVvYLGBABohugVNCYAQDNEr6AxAQCaIXqFrhqTjRs3akwAgHpFr6AxAQCaIXoFjQkA0AzRK2hMAIBmiF6hq8bk1FNP1ZgAAPWKXkFjAgA0Q/QKGhMAoBmiV9CYAADNEL1CV43Jpk2bNCYAQL2iV9CYAADNEL2CxgQAaIboFTQmAEAzRK/QVWOyefNmjQkAUK/oFTQmAEAzRK+gMQEAmiF6BY0JANAM0St01Zhs2bJFYwIA1Ct6BY0JANAM0StoTACAZoheQWMCADRD9ApdNSZbt27VmAAA9YpeQWMCADRD9AoaEwCgGaJX0JgAAM0QvUJXjclpp52mMQEA6hW9gsYEAGiG6BU0JgBAM0SvoDEBAJoheoWuGpPTTz9dYwIA1Ct6BY0JANAM0StoTACAZoheQWMCADRD9ApdNSZnnHGGxgQAqFf0ChoTAKAZolfQmAAAzRC9QleNybZt2zQmAEC9olfQmAAAzRC9gsYEAGiG6BU0JgBAM0Sv0FVjcuaZZ2pMAIB6Ra+gMQEAmiF6BY0JANAM0StoTACAZoheoavG5KyzztKYAAD1il5BYwIANEP0ChoTAKAZolfQmAAAzRC9QleNydlnn60xAQDqFb2CxgQAaIboFTQmAEAzRK+gMQEAmiF6ha4ak+3bt2tMAIB6Ra+gMQEAmiF6BY0JANAM0StoTACAZoheoavG5JxzztGYAAD1il5BYwIANEP0ChoTAKAZolfQmAAAzRC9QleNyY4dOzQmAEC9olfQmAAAzRC9gsYEAGiG6BU0JgBAM0Sv0FVjMjo6qjEBAOoVvYLGBABohugVNCYAQDNEr6AxAQCaIXqFrhqTnTt3akwAgHpFrzCnjclY/LDDe/bs2Zp/PgDApOgV5rYxSTly5MjNkbX5NgAAjIs+Ye4bkxan5dsBANB1Y7Jr167eG5N8GwAAxkWf0L/GJMm3AwCg/41Jkm8LALDARZ/Q38bkyJEj/286zbcHAFjAok+4KRqT56u9w7Fy7rnn9t6YRFPy08gj6YbE6UXpa+O3CgBYMOLhf2Pk0ugFbjx06FCxdzhWamlMkrgRz0S+FvnTyFHTk/j3qfksADCPxGP8aOSayMHxhiDrS2Pyxhtv5B//prhRr0eO/mJ23nnnvef888/fnI4WK7ObZcuWrc7rBQBqFQ/p41ORyIH0+D6dvjQmnWZ4ePhw5F6Z9dwVORj3+Q2RfbKgct3Q0NClIyMjngQMaDyxoImmm4q0021jct55581dY9KS12VW82rkxWhOno08IwsqP4j/94/HqScBgxtPLKSaOX/Ccf3112++9tprL73uuuvaTkXaGbTGRERmN6WGVQYjnlhINXP+hCN+XqmuzEk0JiIiIoORUiNbV0o/ry/RmIiIiEhjcv7552tMREREpBnRmIiIiEhjojERERGRxkRjIiIiIo3JBRdcoDERERGRZkRjIiIiIo2JxkREREQak927d2tMREREpBnRmIiIiEhjojERERGRxmS8MQFmbunSpeuXLFmyMWfTyMjIGcPDw7vjdG/8Uf1C5EORm1ry4dj+r+L0U3F6d+Rrcf6RyJ8OWP4s8mjc/ifj9IXI/4oUC4uIdJT0t/RC/tt6NJL+1kp/g9PlkVRXUn2J86nOpHrz4UhrHZpIqk+/kOpVXC7VrTNSHUv1LNW2XOYAAAD+ybJly9akJw7xZGJ0aGjo0ngicXWcvy5yQ+TGeHJxME4PxeldkS9H0qeD3xc5HF9PA5D0qeTfi/wg0vqJ5enT65+P7S9GXo6kT7V/LVL6gM9ByBuR0pM+Eekt6W+r9Dd3rKR6kupKqi8vpnqT605rHZpIqk/fi8s9HkmDlsORVMdSTbsrvpZqXKp1N0auT3Uw1cM4P5rqY6qTuWQCAADzTWr4o/nfHk8CLovT/fHk4BNxmp4kpL0/7o/z1eHHTAYehggiMmhpHdCUhi7V4cr9kbQXS6qXqW7ujzp6eZymYcrGXGIBAIBBMTIycno09ZdEU39DNPnpldPPxemDcfqtOH06TtPbSyYGIYYfIiJTMzFcmRiqpLcQpfqZhikPxfl74jQNUm5Jb/eJ8zvsjQIAAA0VjfuuaNrT+/W/GPnz+PdTcZqGI69E0quppScFIiLSWX4aSYOUl6LOPhd5IvLH8e/bIx+IjOayDAAA9NPEoCRO74zTxyLprTSlJl9ERGYnaYDyN5HHohb/fpymmrwrl2kAAGAuGZSIiDQyqRanwUmqzQYnAAAwV6IBH81NeHoV06BERKSZMTgBAIC5sHTp0rVDQ0Pvjsb7UOTRSNr9u9Ski4hIczIxOBl/q07EMU4AAKAu0WBvixyIhjt9FPCTcT4dyLXUmIuISDOThtxp2H0oDb/TEDyXeAAAoBvRXO8YHh7+eOSPI8/Ev9PBBUvNuIiINDuvpKF35O44fyCyLZd6AACgE9FMp2HJrZEHI8/Fv308sIjIYOfVqOfPRNIQ/OPx7x255AMAADORmuhopg1LZCZ5XaSheSNSWrMLPa+lup7r+63xb0MTAACYidQ8pyY6N9OGJfMw8f/1XpF5nPsih2OtPxJ5PM5/L/KDSNqzops8G3m+9W9oHsTQBAAAOpGa5tQ85yZ6wQxLli9fPnbaaaeNXXTRRWNXXXXV2E033TR22223jf3e7/3e2D333DP2J3/yJ2N//ud/PvbEE0+Mff/73x978cUXx/7hH/5hbK488MADB//wD//wxji94atf/eq+1sTXrjt8+PDVcXppnI6OjIxsXrp06frIOpEFmvXp7yD+tkeHhoYujfNXx/nrIvu6zA2RG6MmHozTQ3F6V+QP4nyxngxQDE0AAGAmolneHk3zLbl5HthhSRp+7N27d+w//If/MD7o+OEPf5jHDnPryJEjByM3Rm6I7KvkusjVcbFL43Q0sjmyPv69biLx77WR1fl/D9AQy5YtW52GMhs3btwc2bVp06a9H/vYx279r//1v47F6djWrVuLtamhaR2a3BL/3p5/TQAAIFmyZMnGaJT3R8N8T+TpON/4T8NZsWLF2K/92q+N/eVf/uVYHY70OOBIia8ZcsACdfjw4TX333//jj/6oz/a+/nPf/7WqAnjvvvd7479+q//+vgwt1TLGpB0INinU/2P8/vT40H+lQAAgKGhocujUb4j8njk5Uipqe5rfuZnfmbsk5/85FFvhfnLv/zLg6+88kppyGHAAfTVd77znTXf/e53dzz55JN743RygHL48OGxf/Ev/kWxzvUxqe6n+n9HejzIvwIAACxs0SDvHH7zvfkPR16I/DRSaqjnMi9G0sEavxT5lX//7//9e37zN39z13/+z/958+c///n13/72tw05gIHyt3/7t+MDlL/4i7/Ye/jw4Vv/x//4H2OrVq0q1b9+JNX9VP8fipr7iTgdzTcbAAAWpmiKm3bckh9H0qDkzji9KU535ZsKMK989atfXffAAw9cuHLlyo9GrUvD4SdbamE/4q05AACQLFu2bM3IyMg10RzfHXkqNcstjfNcJzXq6aM7vxY5GNmTbybAvLZ06dK1Q0ND7446eCjyzciPcl3sR7w1BwAAoiEeTcOJOH0kkt4C80ak1EDPdl6J2/Fk5O44fyCyLd9EgAUjauDuXJO/Hqf92uPPW3MAAFjYGvSpOC/Fz38iTj87MjJy5dKlS9flmwiw4EQt3BE18dZIP98mmfb4eypyd9oLMe2NmG8eAADMfw35VJy02/k3Iofi9rxTUw7QiKFJ2tsw7XX4SPz8tMeLvUwAAFgYUvMbTXDa1fqhSD8+Fee1/CQg7XaejleyO980AELUx34PTexlAgDAwtKAA71OvD/+4fj56ZXLnfmmAdAi6mM/hyb2MgEAYGFJTW9ufvt1oFefwAAwQ1Erd+aa/XBkrvcI9DHDAAAsDA3Yu0TzDdChoaGhy6Jmpo8c/lbkpUipvs5WJobc6VhTl+abBAAA80s0vP3cu8RHVQJ0IQ+790bd/FzUz2/H6SuRUp2djbweP/O5yP1x/sCSJUs25ZsFAADzQwP2LvFWHIAupUFF1M8DaXCRBhhx/vVIqdbORuxlAgDA/BWNbj/3LvFWHIAepWFF1ND01py5/jh4e5kAADA/pQFFNLn708AiDS7i/FzuXeKtOAA16HMtt5cgAADzTx9flUzRZAPUJGppv/YWNPwGAGB+6fP73r0VB6BGfT4eVarpT6WfnW5Dui35ZgEAwODp494l6VXP9OrnI9Fcp1dDvRoJUINUT3Ndneu9TNR1AADmhwbsXeKVSICa2csEAAB6lI4ZEs3tHZG53rvEe90BZlGqq7m+PpTrbaq7pXpcd+xlAgDAYEtNbJ+a6RQHegWYZX0cijs+FQAAg6nPu2u/Hj/zucj9cf5AeltQvlkA1KjPb7s0GAcAYPBEA9uvAwKmTDTRh9IBZ/NNAmAWpDqb6m2uu956CQAA00m7Rkfjuj8a2HsiT8d5e5cAzFN93svEW3MAABgcfXxPe4q9SwDmWB/3MkmZqPvemgMAQHNFw7pz+M234jwcmesDvXqlEaAP+rxnobfmAADQbNGkbo9m9ZbIg5G0W/ZrkVJzOxvxMZMAfZTqbq6//Th2lYE5AADN1OdXF1NSs/xU5O706TzpU3ryTQNgDvT509FSXomf++04/Vzcjr0eBwAA6LvcJO9NTWpuVl/Jzetcxd4lAA2Q6m+uw/3YyyTlpci3Iuk4VpflmwUAAHOvZVjymWiSn8jNaqmJnc3YuwSgARqwl8nE8Uwejp+fBjc7800DAIC5s3Tp0nXRGF8ZDelnozHt17DE3iUADZLqcK7H/drL5LX4+ek4Wl9PtyOyO980AACYfdGIbosciEY0vYr4ZJyf67fhTMTeJQAN0oC9TCbyo8g3IuntOe/0+AAAwKyLBnhPJL1q97XIs9GM9qsZ9lGSAA2U6nF6nIjTfu1lMpGX4nakPSA/m/aITHtG5psIAAD1iaZzVzSdN8XpnXH6eOTHkVKDOld5OZJuxx1DQ0OX55sJQJ81aC+TlPTpOU+m2xLnD0S25ZsJAADdW7p06dpoMvdEg/nhOE2Dksci6dXCUlM6l3k9bs9zkfvj/IElS5ZsyjcZgAaI2tyUvUxS0ts3n42kPSPTHpJ78s0EAICZy0OSC6LBTK/EHcoNZjpOSb/3KGnNxN4l6b3pl+abDkBDNGwvk4mkx7HH4/bcFafphYA93qYDAEBbqWGMxnF3NJDVIUk6aF4TmtzW2LsEYABEjU57maRjTD0UScecSseeKtX1uc6P82Pc1yPpk95uHXnzI/J3xmPKxnzzAQBYSNIrfmnAEE3haDruR5zuj0Yx7TL9uUj6CMamDklaY+8SgAGRH2vuyHU71e9SXe9XXoukA8OmIfy34/zDcXpPnN4Rp2nQsz/f/tH02OmTdgAAuhBN1Or0Vpa0p8YcZ/3IyMjm1Myl4UGcvzrOXxfZl3ND5MZo/NJQJO05knaNTntmpPeUp92Sn47T9Kpf+ljg1DiWGsomZeKTcf7PuO2/Gr/z2+J33pLuh8r9IiIi/U16fNqS6nSq16lu5/rdlL1MSkm3Lb1gkAY7L+THyDToeSQ9dkbSgWPTY2l6TL0xkh5jJx5vZ5rr0mN1esyO86PpMTzdV5X7TkTmX9am5wv5qQPA3KgMKo41PKgz1UHEXZEvR+6d49wXORy3YWIA8r3IDyLP5KSD3D0f29IB91IDmBrB1yP9PPher/lJ+t3i9Btx+seRr0RK942IiPQ3qT7/ca7XqW7/JNfxQUt6zEyPnRPDlBfj93k+kh5jJx5vZ5r0GP29uI6JQczhSHosL91/IjJ/kp4npOMn9Tp0FWlSpnsRwIBwrqTdX1veQpKGINfE+QO50FQHFccaHtSZ0iAi7aGRGqp+ZJAHIN1mooEVEZFmZyE+Rs0kHsdEFk7S84Q6hq4iTcp0LwKUBoTXtw5XvNW1Q+nOijtue9yBl8VpOq5Geu9wuoOrbyF5KvJcnG83qNCYiYiIiIiIiMxNWl8EKA0Iq8OV1re6Vo8btrAPwF4YjqSp0+fi9ME4/VacThxXY2IgYggiIiIiIiIiMviZGK5MDFVajxv2UJyvHoA9zQ22z9s9UvKAZMfIyMje+KVvjfOfidPqcGRQDjoqIiIiIiIiIvWndAD2NDdI84M0R7g1zRXi/I6BHqCkA73EL3NB/CIHImk3m3Rwzici6e00L0UMR0RERERERETkWEnzg5fSPCHPFdJB5Q9F0vFNL0jzhzyKaK7CkORrkSfj/I8iaUpU+sVFRERERERERGaaNF/4UZo3pLlDnE/Dkw9ERvN4ojnSjco3zpBEREREREREROYqae7wN5HHhoeHfz9OPxSnu/K4on/Sjcg3Jt2ox/KNNCQRERERERERkblO+jTdNDi5M077MzhpGZSkG5EGJelGlW6siIiIiIiIiMhcZnxwEvliJL0bZlseZ8ye+CHprTete5QYlIiIiIiIiIhI0/Lq8PDwM5H0ATQfj3/vyKONeqWDuQ4NDb07fkA6kMqjkfTWm9INEhERERERERFpQl4bfvOTer8epwcju/OYox5xxTsjvxRX/KVIOpjrK5HSDRERERERERERaVrSh9J8I3JoaGjoncuWLVuTRx7dSVeQriiu8PbIfNir5I3I65Wkz3JOB6l9OfLi8PDw85FnI2m3HREREREREZH5nPT89/n0fDg/L07Pj9Pz5Opz5/R8uvQ8e5DyUuRbkTQ0uSyPPjqXhiUjIyN744o+E3feE/mKSz+wSflppDr8+EHke/HvxyOPxPnDkfsi9+Z8OXJXbEsfh3wwTm+M3BDZJyIiIiIiIjLPk57/3pifD6fnxXfl58kTz5nT8+fDse2RyONx/qlIeovLxICl9Ny8qUkzgxciD8fvkH7fnXkEMnMDNCxJU6+X0v+syLfjfPql74nTO/Ivn4Yf18fvcvXQ0NClcX40zm9eunTp+si6nLXx+67OvzoAAAAsWOn5cXqe3PKceX16Hp2eT6fn1XH+mjh/ID/nTs+903Pw9Fz825E0SCk9d29Sxo9pEnkwckv8e3v+1Y+t4cOS1gHJE+kXjH+n23lrvs07lyxZsjH/KgAAAMAsSs/B03Px9Jw8PTfPz9HTMCI9Z2/qACV9ek7aU+buNABKc5D860yvocOS9BabH8XtSQeb/Xrks3F+YkCyY0a/GAAAADDr0nP09Fy9ZYDy2fRcPj+nLz3n70fS8VjSW4rSYTvSnjKj+eZPLx30JC6YPjY4HQSl38OSH6c7NPK1OJ9uU9rlZ3faJSjfXAAAAKDB0nP4eC6/J57TfzhO74zTxyJpWFGaA8xl0l4mT0fSW4r2L1my5NR8k6eKC4zGBT8Rpw9F0kFQ0sFQSlc620l33GP5jkx36J64g9fmmwkAAAAMoHh+vyue538oP99vwuAkHbQ2fUBM+tScy/PNPFp+z9H+uNH3RJ6O8+ltMKUrm820DkrSHbgr3zwAAABgnkjP9/Pz/n4PTtIBYNMn6/5BnC/vZZImKbHxjkiarMz1xwL9OJI+mijdUTelOy7fLAAAAGCeSs//F7/5zpIvRdIxTl6JlOYGs5XWY5n8WmR3vmlvig0744v9eCtOer/Qs5GvRQ5G9uSbBAAAACwA6RAcQ0ND71785rFLvxn5UZ4ZzFXSbOJ7kf8S539hZGTkjPEbtmTJklPiH++PDXdHnkoXbPmm2cwr8fPSAV3vjvMHItvGbxAAAACw4AwPD++OpE+sSZ+okz6O+LVIaZ5Qd16Pn5d25rg/zn84ck7rDfq1+MIjkbQbStodpXQFdeal+JnpI4s/OzIycqVPvQEAAAAWL168Y3h4+NbIg5G5GppMvC3nzyKfSh+HvCjtZhL/+IW4Ef8l8r04Pxd7l6Q9S74dp59LNyJ9PnO+XwAAAIAFbvGbhw1Je5o8HJmrw4akt+V8P5IOGfIbE3uX/KtImtw8Hxd4vfINdaf6Gccb8/0BAAAAMK4PH0yT3pbzwzj908in08Dk5kg6dsl34guzfQNajzybJkWj+X4AAAAAmLRkyZJNixcvPjA8PHx/JL01Z7Z38Dh6YBL/+e1IGmD8VZzO9vuC0t4lT0XuHhkZucZbcQAAAIDpDA0NXbr4zU/OmYu9TKYMTD6d/pG/OJvTGnuXAAAAADM2MjKyefHixTcODw8fjsz2YUTSdf91JB349fa5HJhMfETPfXH+hqVLl67Pvz8AAADAFOkTdRcvXrxveHj43sgzabaQZwyzkbSjx9/Fz3nypptuenCuBybPpF8yzu/zMcIAAABAO3M8MJnI/7rpppteNjABAAAAGqlPA5OxX/qlXxozMAEAAAAaqV8Dk1/8xV80MAEAAACaqV8Dk3379hmYAAAAAM3Ur4HJe9/7XgMTAAAAoJn6NTDZu3evgQkAAADQTP0amFx++eUGJgAAAEAz9Wtg8ra3vc3ABAAAAGimfg1MLr74YgMTAAAAoJn6NTC56KKLDEwAAACAZlq6dOnaxYsXXzc8PPzlyA/i/Gt5xjCrufDCC+d0YPJa+uXSLxnnr0u/dP79AQAAAIqGhoYuXbx48aHI45GXI6WZQ63Zs2fPnA5M0i+VfrlD6ZfNvzcAAADAtEZGRjYvXrz4xuHh4cOR5+P8rL8t54ILLpizgUl6O87z6ZeL8zemXzb/3gAAAADT6sdxTM4///w5HZg4fgkAAADQkX4MTM477zwDEwAAAKC5+jEw2bVr1/jA5PbIn0X+OmJgAgAAADRGPwYmO3fuHFt0yy23PBg/8Mn4wt9F3mi9QI0xMAEAAAA61o+Byejo6PjAJH16zf+qbqw5BiYAAABAx/oxMDnnnHPGBybFjTXHwAQAAADoWD8GJtu3bx9b9NGPfrS4seYYmAAAAAAd68fA5KyzzhpbdNNNNxU31hwDEwAAAKBj/RiYnHnmmWOLPvjBDxY31hwDEwAAAKBj/RiYbNu2bWzRBz7wgeLGmmNgAgAAAHSsHwOT008/fWzRDTfcUNxYcwxMAAAAgI71Y2By2mmnjS26/vrrixtrjoEJAAAA0LF+DEy2bt06tmjfvn3FjTXHwAQAAADoWD8GJps3bx5bdN111xU31hwDEwAAAKBj/RiYbNq0aWzRtddeW9xYcwxMAAAAgI71Y2CyceNGAxMAAACgufoxMNmwYcPYove///3FjTXHwAQAAADoWD8GJqeccsrYove9733FjTXHwAQAAADoWD8GJuvWrRtbdM011xQ31hwDEwAAAKBjfRuYvPe97y1urDkGJgAAAEDH+jEwWbNmzdiiq6++urix5hiYAAAAAB3rx8Bk9erVY4uuuuqq4saaY2ACAAAAdKwfA5OTTz7ZwAQAAABorn4MTE488cSxRe95z3uKG2uOgQkAAADQsX4MTFatWjW26MorryxurDkGJgAAAEDH+jEwWblypYEJAAAA0Fz9GJisWLFibNHevXuLG2uOgQkAAADQsb4NTN797ncXN9YcAxMAAACgY30bmLzrXe8qbqw5BiYAAABAx/o2MHnnO99Z3FhzDEwAAACAjvVtYPKOd7yjuLHmGJgAAAAAHevbwOSKK64obqw5BiYAAABAx/o2MPn5n//54saaY2ACAAAAdKxvA5PLL7+8uLHmGJgAAAAAHevbwOSyyy4rbqw5BiYAAABAxwxMAAAAACr6NjC59NJLixtrjoEJAAAA0LG+DUwuueSS4saaY2ACAAAAdKxvA5Of+7mfK26sOQYmAAAAQMf6NjB5+9vfXtxYcwxMAAAAgI71bWDytre9rbix5hiYAAAAAB3r28DkrW99a3FjzTEwAQAAADrWt4HJxRdfXNxYcwxMAAAAgI71bWBy0UUXFTfWHAMTAAAAoGN9G5i85S1vKW6sOQYmAAAAQMcMTAAAAAAq+jYwufDCC4sba46BCQAAANCxfgxMTjjhhLFFe/bsKW6sOQYmAAAAQMf6NjDZvXt3cWPNMTABAAAAOta3gckFF1xQ3FhzDEwAAACAjvVtYHL++ecXN9YcAxMAAACgY30bmJx33nnFjTXHwAQAAADoWN8GJueee25xY80xMAEAAAA61reBya5du4oba46BCQAAANCxvg1Mdu7cWdxYcwxMAAAAgI4ZmAAAAABU9G1gMjo6WtxYcwxMAAAAgI71bWCyY8eO4saaY2ACAAAAdKxvA5NzzjmnuLHmGJgAAAAAHevbwGT79u3FjTXHwAQAAADoWN8GJmeffXZxY80xMAEAAAA61reByVlnnVXcWHMMTAAAAICOGZgAAAAAVBiYAAAAAFT0bWBy5plnFjfWHAMTAAAAoGMGJgAAAAAVBiYAAAAAFX0bmGzbtq24seYYmAAAAAAdMzABAAAAqOjHwOT44483MAEAAACaq28DkzPOOKO4seYYmAAAAAAdMzABAAAAqDAwAQAAAKjo28Dk9NNPL26sOQYmAAAAQMcMTAAAAAAqDEwAAAAAKgxMAAAAACr6NjA57bTTihtrjoEJAAAA0DEDEwAAAIAKAxMAAACAir4NTLZu3VrcWHMMTAAAAICOGZgAAAAAVBiYAAAAAFT0bWCyZcuW4saaY2ACAAAAdMzABAAAAKDCwAQAAACgom8Dk82bNxc31hwDEwAAAKBjBiYAAAAAFQYmAAAAABV9G5hs2rSpuLHmGJgAAAAAHTMwAQAAAKjox8Bk+fLlBiYAAABAc/VtYHLqqacWN9YcAxMAAACgYwYmAAAAABUGJgAAAAAVfRuYbNy4sbix5hiYAAAAAB0zMAEAAACoMDABAAAAqOjbwGTDhg3FjTXHwAQAAADomIEJAAAAQIWBCQAAAEBF3wYmp5xySnFjzTEwAQAAADpmYAIAAABQYWACAAAAUNG3gcn69euLG2uOgQkAAADQMQMTAAAAgAoDEwAAAICKvg1M1q1bV9xYcwxMAAAAgI4ZmAAAAABUGJgAAAAAVBiYAAAAAFQYmAAAAABU9GNgctxxxxmYAAAAAM1lYAIAAABQ0beBydq1a4sba46BCQAAANAxAxMAAACACgMTAAAAgIq+DUzWrFlT3FhzDEwAAACAjhmYAAAAAFQYmAAAAABU9G1gsnr16uLGmmNgAgAAAHTMwAQAAACgwsAEAAAAoKJvA5OTTz65uLHmGJgAAAAAHTMwAQAAAKgwMAEAAACo6NvA5KSTTipurDkGJgAAAEDHDEwAAAAAKgxMAAAAACr6NjA58cQTixtrjoEJAAAA0DEDEwAAAIAKAxMAAACAir4NTFatWlXcWHMMTAAAAICOGZgAAAAAVPRjYPKzP/uzBiYAAABAc/VtYLJy5crixppjYAIAAAB0zMAEAAAAoMLABAAAAKCibwOTFStWFDfWHAMTAAAAoGMGJgAAAAAVBiYAAAAAFX0bmJxwwgnFjTXHwAQAAADomIEJAAAAQIWBCQAAAEBF3wYmxx9/fHFjzTEwAQAAADpmYAIAAABQYWACAAAAUNG3gcny5cuLG2uOgQkAAADQMQMTAAAAgAoDEwAAAIAKAxMAAACAir4NTI477rjixppjYAIAAAB0zMAEAAAAoMLABAAAAKDCwAQAAACgwsAEAAAAoMLABAAAAKDCwAQAAACgwsAEAAAAoMLABAAAAKCiHwOTNCsxMAEAAAAay8AEAAAAoMLABAAAAKDCwAQAAACgoh8Dk+XLlxuYAAAAAM1lYAIAAABQYWACAAAAUGFgAgAAAFDRj4HJ8ccfb2ACAAAANJeBCQAAAECFgQkAAABAhYEJAAAAQEU/BiYnnHCCgQkAAADQXAYmAAAAABUGJgAAAAAVBiYAAAAAFf0YmKxYscLABAAAAGguAxMAAACACgMTAAAAgAoDEwAAAICKfgxMVq5caWACAAAANJeBCQAAAECFgQkAAABAhYEJAAAAQEU/BiarVq0yMAEAAACay8AEAAAAoMLABAAAAKCiHwOTE0880cAEAAAAaC4DEwAAAIAKAxMAAACACgMTAAAAgIp+DExOOukkAxMAAACguQxMAAAAACoMTAAAAAAqDEwAAAAAKvoxMDn55JMNTAAAAIDmMjABAAAAqDAwAQAAAKgwMAEAAACo6MfAZPXq1QYmAAAAQHMZmAAAAABUGJgAAAAAVBiYAAAAAFT0Y2CyZs0aAxMAAACguQxMAAAAACoMTAAAAAAqDEwAAAAAKvoxMFm7dq2BCQAAANBcBiYAAAAAFQYmAAAAABUGJgAAAAAV/RiYrFu3zsAEAAAAaC4DEwAAAIAKAxMAAACACgMTAAAAgAoDEwAAAIAKAxMAAACACgMTAAAAgAoDEwAAAICKfgxM1q9fb2ACAAAANFffBibLly8vbqw5BiYAAABAxwxMAAAAACoMTAAAAAAq+jEwOeWUUwxMAAAAgOYyMAEAAACoMDABAAAAqDAwAQAAAKjox8Bkw4YNBiYAAABAcxmYAAAAAFQYmAAAAABUGJgAAAAAVPRjYLJx40YDEwAAAKC5DEwAAAAAKgxMAAAAACoMTAAAAAAq+jEwOfXUUw1MAAAAgOYyMAEAAACoMDABAAAAqOjHwGTTpk0GJgAAAEBzGZgAAAAAVBiYAAAAAFQYmAAAAABU9GNgsnnzZgMTAAAAoLkMTAAAAAAqDEwAAAAAKgxMAAAAACr6MTDZsmWLgQkAAADQXAYmAAAAABUGJgAAAAAVBiYAAAAAFf0YmGzdutXABAAAAGguAxMAAACACgMTAAAAgAoDEwAAAICKfgxMTjvtNAMTAAAAoLkMTAAAAAAqDEwAAAAAKgxMAAAAACr6MTA5/fTTDUwAAACA5jIwAQAAAKgwMAEAAACoMDABAAAAqOjHwOSMM84wMAEAAACay8AEAAAAoMLABAAAAKDCwAQAAACgoh8Dk23bthmYAAAAAM1lYAIAAABQYWACAAAAUGFgAgAAAFDRj4HJmWeeaWACAAAANJeBCQAAAECFgQkAAABAhYEJAAAAQEU/BiZnnXWWgQkAAADQXAYmAAAAABUGJgAAAAAVBiYAAAAAFf0YmJx99tkGJgAAAEBzGZgAAAAAVBiYAAAAAFQYmAAAAABU9GNgsn37dgMTAAAAoLkMTAAAAAAqDEwAAAAAKgxMAAAAACr6MTA555xzxhadcMIJxY01x8AEAAAA6FjfBiYrVqwobqw5BiYAAABAx/o2MFm1alVxY80xMAEAAAA61reByYknnljcWHMMTAAAAICO9WNgsmPHjrFFJ598cnFjzTEwAQAAADrWt4HJ6tWrixtrjoEJAAAA0LG+DUzWrl1b3FhzDEwAAACAjvVjYDI6Ojq2aN26dcWNNcfABAAAAOhY3wYm69evL26sOQYmAAAAQMf6NjA55ZRTihtrjoEJAAAA0LG+DUw2btxY3FhzDEwAAACAjvVjYLJz586xRaeeempxY80xMAEAAAA61reByebNm4sba04amDwbuS/O37B79+71+fcGAAAAmFbfBiZbtmwpbpyt7Nmz53+7+OKLL8q/NwAAAMC0+jYwOe2004obZysXXnjhWHLkyJGDkXdFTs/3AQAAAMBR+jEw2bVr19iiM844o7hxtnL++eePD0xa5fsAAAAA4Ch9G5hs27atuHG2kj6apyrfBwAAAABH6dvA5KyzzipunK2cffbZeUxSlu8PAAAAgP4NTNIAo7RxtnL66afn0chUR44c+f/yWYMTAAAAIA1M1i9evPiG4eHh+yLPxvlZH5ice+65Y4vOOeec4sbZSvoY46ojR468Eflx5NF8f4yLTevia5vyPwEAAIAF4siRI2vGxsZOu/322y8/dOjQv128ePGfRV5snTHMVsYHJjt27ChunK2cdNJJ40OSVi0Dk/873y/j4t+3Rb6QL2avEwAAAJhH4jn/msimyGjk8sj+yCfyGGDSoUOHijOG2cr4wCR9tnBp42xl2bJl+dedKu6Un0TS4OSvcl6MvJI3T8r367j8pffH5c6P32Vd/jIAAADQAPF8fUZDkXb6MjBJBzIpbexH/vk//+djK1euLGbDhg1jW7ZsmZKtW7eOf1TxRM4777xfjeu6MXJDZJ/IgOe6kZGRq4eGhi6N86NxfnN6/1466JGIzOusXbZs2ercYwAANN6RGoYi7cz1wOS8884bW5T+U9o46EkHgklHzxUZ8Pwg8r1Y049HHonzhyPpQEfp6NAiMn/z5chd8Xd/KE4PxqkXAkTmNl6wEJGZZMG9wLF///4173vf+zZde+21szIUaacvA5O0V0Zpo4g0Lm9E0tGgRWT+57XIq5GXIy8ODw8/H/FCgMjcxQsWIjKTLIQXONLvc+O+ffsORsb6mdHR0dJzpFnL+MBk9+7dxY0iIiIiIuIFCxGZNvPuBY74PUp1cEFmfGCyZ8+e4kYRERERERERkYWY9G6cRW95y1uKG0VEREREREREFmLGByYXX3xxcaOIiIiIiIiIyELM+MDkkksuKW4UEREREREREVmIGR+YXHHFFcWNIiIiIiIiIiILMRdccMHYor179xY3ioiIiIiIiIgsxIwPTK6++uriRhERERERERGRhZjxgcm1115b3CgiIiIiIiIishAzPjDZv39/caOIiIiIiIiIyELM7t27xxZ95CMfKW4UEREREREREVmIGR+Y3HbbbcWNIiIiIiIiIiILMeMDkxdeeGHs4YcfHnvggQfG7rnnnrE777xz7Pd+7/fGbr/99qPyW7/1W2NpuFLNL//yL4/dfPPNR+WDH/zg2L59+2pLOjBt+vjjunLJJZeMf6ZyXdm5c+fYli1basumTZvGVq5cKSIiIiLzJGvXri32fSKDnm3bthWfI4kMeg4cODD2/wOlWkhEyjJYEwAAAABJRU5ErkJggg==;" vertex="1" parent="1">
                    <mxGeometry x="226" y="261.5" width="70" height="54" as="geometry"/>
                </mxCell>
                <mxCell id="30" style="edgeStyle=orthogonalEdgeStyle;curved=1;rounded=0;html=1;exitX=0.5;exitY=1;entryX=0.75;entryY=0;dashed=1;startArrow=ERmany;startFill=0;endFill=1;jettySize=auto;orthogonalLoop=1;" edge="1" source="31" target="34" parent="1">
                    <mxGeometry relative="1" as="geometry"/>
                </mxCell>
                <mxCell id="31" value="" style="shape=image;aspect=fixed;image=data:image/png,iVBORw0KGgoAAAANSUhEUgAAAX8AAAF/CAMAAAHhnQnDAAAAAXNSR0IArs4c6QAAAARnQU1BAACxjwv8YQUAAABRUExURQAAAMXuUrXoHMDoRMbuT7XlHsbtUrbkHcbrT7XlHMDrRt3ylsbrT7TlHLTmHbXmHMLqRsXsULTmHMXrUbTmHcHrRd3zlbXmHcLrRsbsUd3zllW2GHUAAAAXdFJOUwAfLS0tOztNTVpaZHaWpLGxscPD0dHVsu0kqgAAAAlwSFlzAAAOwwAADsMBx2+oZAAAFYZJREFUeF7tneti3LoNhF2nPjl2Wid1nTjN+z9oBXG0EiVeABKQyDW/H8mKF2EGWF13tX6I8OsDL5h8EHjNYR4vmIHx7BkYTaAlDcY60JbkK8Y60JhENOPj6/SPYMbUL5ox9wtmoJ9mTLxjccI1HEDvbcZ3LE64hh3oI6ItW9AzE29aQbsj0baAVoDGRK7QdgPN0Rlo2YCOyAwsb6FW6grOwJLH3EydgRl47ePa5/59zfFqBzrm8f6MP3ixYxq1/E/Mr2ciARITIjOWQW68eMKaqu9Lx55bO41/dC8naHx4RrjZjQ92BVuX8aG+UOM6/tj5OrVtttCZ7fj9jOe57RVLDn/8bkagbT/e7z02Hcd73YeW0Pht/+O87Nc3BLonaGlf3xAYsCM+PjwjNT40Iz3+OCM3fj8jP96fwRm/ncEbv87gjl9m8Me7GZLxNAMveMwbG15zwMaJpTy3jRnLOXKH5z3ezgJtaTDWgbY0GOtAW4zv8wCMdcztMUg//e+GgrknjPNLr+YXC3NfiCU/WMTSBBr2rPlEA5Ym0OCzyT/tuyfesDjhGjw245fuJywSaFrZjv94cm3PWJxxTTe88bdeLDnQ5tiNz844jP94e3j4i3qw6JjHEsfxNOFpHoBlxzw6ON5NiMwIjceEZZWujZgW/EPlAiaEZuDFjmWCO/56J1j4f8cuwvzakZmAmq+63yOalgkIMb+c8ZdWbhN2I2gpOGOd4OHGh2aEJ2D4BBpWghMweAZNN2JtK2gE8bYVNM+gvptt+jjem4GWrQs0eaBr4rhNu4Y96JwILx9B98RxKQwG7EBnEAzxQFcEDNqAjigYdgPNCTAQoDEJhs6gKQMGT6AhC4azxy8zsMBCOj4C9jbTrsaE7U4bTZrsjwlo1iJ0yEGXBsEj2gS6q/HvOXhgRDV2Ib7jLpZRiDn3diFupbUJ4b1z1hBvb97hawUjuBzemEsIR/B9iz4Owfl+CDT6oC9HcPW3wy8Ind5MoDdFZPX7uZEA2RDR1e930mXvqMTqCYwC8hCZ1RP/xlCHLARj9fOp5cRft/n8EKzVLwGowPOLCV4I5uq3ATYh3l+f0ls3e/V+gH0WgquhDrxk4QfYh0Cjx4to/ZkAa/uG2A3xMCUBtleHWfYB3PICGj3m26d4zWAfwPOAli23u29YznIMgFsjj6E8eDf30JYhFCDG4d4h2pPwAwRvTaIvATdA9M4n+iOsB83EHmgiunoCY0JghANtAZKrJzDuALpBLE3Z1RMYuwOdIByAtXoC4z38YzIaPdirJzDHA10EWraIVk9gnsc7nRw9ZbdaLpjLoGj1BOZnKF49gXUkqFo9gfVEqF49gXUFUFk9gfXtUFs9gXVuUF09gfUC9dUTWPeEyeqJF1r7u/ug1YZp/b/w0gLSP+FfDiqC9ZtFwNoJkwhYt8MgAta8oB4B611RjoC1blGNgHX6KEbAGveoRcD6jmhFwOoCjAgrWF2Aygi300WsLkBVhGk+XtlEmOfjtUUEzMeSfgTMNouAuQRadCNgpgNtD3RnOXzzSRwB8xbQ6vC+7rAgjIBZK2gHaPQQRcCcLegBaPQQRMAMH/Q5gl9sYEfA+B3oBGj0YUbA6D3oBWjcwYqAsXvcjZYbaN3DiICRB3gB8hEwLgAGADQeyUTAqBAYAdAYIBkBY4LsPkVGa4BEBIyIsJuI1gDRCOiPUhsBvSkwEqAxQDAC+pJgpPtPGAE9aTD0dhWL5gCHCGjPsIyVR0BrjttgaQS0ZVlHyyKgJc9m+Brh7ek5c5zGMoPt+FuEmdRxGkscvAl+hOBq5gh4zWJe020GL0L4a4MRdmvyIwTXJDOwD4DlBTR6/KoKwDnK3UGAmiIzahBpjrFfkVsGwc8spvb0Bz4+bk1YmPCO02jzmDsEEebx2zVtdmihz5PRxY/gxmNhBt/XTK5fEMENxwKYvzES3NfNgx3cCG40FnK4wYAZwQ3GQgY39gYvghuLhTRu6AZWBDcUC0ncSA9OBDcSCyncwB2MCG4gFhK4cQeyEXBff30iKoIbFiATAaMm0BABg0IkI2DMDJqCYEiYRITbToEIbrkOjIgRj4ABAI1H0B8nFoF5BYXuFJEIvMtY9KYJR2A5QGeOcAR0AjT6oC9PMAL6HMFtDX0cshHQ5IEuHqEImzPR5PGRRzKCwvojWZq35shZtJhghBiYI0MQATOksCNgvBxmBIwugRUBY8tgRMDIUrIRMK6cTASMqiEZAWPqSETAiFqiEdBfTyQCejUIRkCfDoEI6NHiEAHteuwioFUTLwLadNlEQIs2twhYNuAnrd47zb6Qx+fbVxZ/vqCtIw5nTpu7Jh0QOvHryEJQPtGHhah8on0LSflE2xay8ol2LbDkE21aYMsn2rMgkk+0ZSF79zFEWxYOJ6wchgVlOrSw/2J9ZxZoz7OP3pGFZcfZqYXtfr9DC/vDVmcWQkfdjiyE5BOdWIjJJ/bRH5e97Ob6PouthZR8IhU9N/eGnQWOhIYtcMMnovNPWvUtsLN3+Hh2i+C0W9eCQP7+V1Z8Eh/IH9CzIJK///jah/NDASs6FmTyk+8gqQENC1L5E6mHV6UGai0UyE/fHo/8hEuScgtF8idSDk48wSiVP5H8iOIkCxXyiWTAEyxUyideU9uysQUF+URyf2poQUm+b+Cv/ZfgzSyoyfcN0P7/DAuK8o8G7C2oyg8ZsLWgLD9swM6CuvyYgYCF2w63/NrZQH7cQMDCFraW1YKJ/JQBXQtFn65wSBlIW2BvFnTx9A2v9UkbuP0qf4jQ8CA/49+5ridnIHWyxH9i6ToD2+4D7BLcgYHLtgGduxe/JGaFZAwkr9u4B7R5HUXHcgY5A5FTGoK7DS87MhsLWQPRGjDzvz2UWFjIGwgXgXkg3h8J9S1wDEw6/MMB9+Zp6ECubYFngHh/e3t9jv4seYDYeYiuBb4BISqnUQyMDKTkE3oWTAzk5BNaFgwMcOQTOhbUDXDlExoWtvt4hasmiXyi0sLxCCX5eOyIVD5RYSF8llO+whL5RGHE6Ily4RupVD5RYiFxol/ioEY+Ibeg9TnxTK18Qmhhu/c8INydasgnRBb0DGjJJyQWUm8hgQFN+QTfQuKGFf9zYm35BNtC/Gqde61rIZ/gWojFL7jW1abGQuG1rjZcC+/+G6nmWlcb/uZMF7sT/I9dzpBPCCxIOEs+YWDhTPmEsoWz5ROKFq6QTyhZuEo+oWDhSvlEpYWr5RMVFlqQTxRaaEU+UWChJfmE0EJr8gmBhRblE0wLrconGBZalk9kLLQun0hY6EE+EbHQi3wiYKEn+cRX/0IydbOoXX458ZZ/MMyUb+5vxv75huW+eFrvwiW/id8mnW8Ah11QXzugzvegwWNYPwY6PwRH5PdiICq/DwMJ+T0YSMpv30BGfusGsvLbNsCQ37IBlvx2DTDlt2qALb9NAwL5LRoQyW/PgFB+awbE8hszwH9AaqUpAyXPLQ4DmgwDVzMMXE1vBg63Nfsy8PUYuycDdNLQsQF3ztOtgeWUrVMD6xlnlwa2J8wdGtjK79CAL787A3v5nRk4yu/KQEh+RwbC8rsxEJMfNOC+Uy/4Ur25gbj8QOzbM0qbj+Jz2BpIyU/GfmQ7sDSQlp+OnZt7w85AXkLTBjgCGjbAC9+sAW7wVOwLN2J27lKx+U83axvgy08+mnrVcUAiP/VLZBc9WSuSn3y2+ZJTCZH8tH7JL0hrGZDJT//4sugXsHUMCOUnnywX/oK3hgGpfE39CgbE8lX1VxuQy09/VVWqv9JAgXy1/SeoMVAiP/kziCU/dVRuoEh+egd65kV9ofz071CeZ6BUfuYIdpaBcvnpApxkoEJ+LtwZBqrkX2+gUv7VBqrlH35UZIetAQX5E++ph3YsDejI90/k/oH/b9gZ0JLv6f/f33hxw8qAmnxP/38/TjKgJ9/TP503H3500MKAovy9/jMMaMo/6Lc3oCr/qN/agK78gH5bA8ryQ/otDWjLD+q3M6AuP6zfyoC+/Ij+kIG3t+enp9eaz4kN5Mf0Hw3cTvSKPye2kB/VfzSwUvY5sYn8uP6UAb6W1YCN/IR+XQNG8lP6NQ2Y/c2klP6kAfZPGM8G+Nu8kKT+pAH2IWG6yP6Cl/qk9acMsN8S7w8PP/BSn4z+1OesoeFBXgz/XlJGf+ouI3sL+H2d/tTnNPx9ynX6t90H2G+goT/K0M+ge/0llz88Mvp1vidhd/qT05/6nJgtakoC26qUjH6N4xetQ/wHK7hk9Kc2AG5O52Og1RaQ07+9AvRhv33cKZSRgZz++BbMFbScwtoYyOqPbQHcd/R6Bm5iIKs/8g7iXj9uLyAsDOT1Bw2UyDcxwNC//zuFE/I3j0PfAEf/fiN+5MrYyzcwwNP/8f5ccP/wKF/fAFP/xNvb2/Or5DmfkHx1A3z9UsLytQ2Y6Y/JVzZgpT8uX9eAkf6UfFUDNvrT8jUNmOjPyVc0YKE/L1/PgIF+jnw1A/r6efK1DKjr58pXMqCtny9fxYB3bq/wIY9Efr2B/fcnq+9yyOTXGjheWLHP7MNI5dcZCF7Y1qxQLr8mXvi6vGKFJfLL48XuixTfai2TX2wgel+qcC9UKr/QQOLGrPzxo4ly+WUGoukvK0CN/BIDqfviBc9P1ckvMKD7/FqtfLmBxNtHfh5UL19sYHvadkCoX0O+1ICifh35QgN6+rXkywyovf/15IsMaD2/rylfYkBp/6krX2Ig8b0q/vFLW77AgMb5g758voH4CQT7BNpCPt9A9Jth3BXYyK+OX/rRnB5VBso+GNWlwkAL8isMXP/mcXAN+H/zruJzXW24Sj5en2Dh8Zl92mAvX2Bg/mB3AgsMzpAvMiDjHPlmBs6Sb2TgPPkmBs6Ub2DgXPnqBs6Wr2zgfPmqBq6Qr2jgGvlqBq6Sr2TgOvkqBq6Ur2DgWvnVBq6WX2ngevlVBlqQX2GgDfnFBlqRX2igHflFBlqSX2CgLfliA63JFxpoT77IQIvyBQbalM820Kp8poF25bMMtCyfYaBt+VkDrcvPGGhfftJAD/ITBvqQHzXQi/yIgX7kBw30JD9goC/5+6/KvPcm/2H7U3qvye/0Ncu3P7P6P9+wPFh4fN5tX79/vHxB38CUx+fYD4W+v65P0g9s+Bo5NVn43t9+uiNy2SdGBazgZJ8YFbCAm31iVEAbSfaJUQFNpNknRgW0KMk+MSqgQWn2iVGBWmqyT4wK1FCbfWJUoBSN7BOjAiVoZZ8YFZCimX1iVECCdvaJUQEuFtknRgU4WGWfGBXIYZl9YlQghXX2iVGBGPy/fVfHqECEM97+M6MCEUYFrmZU4GpGBa5mVOBqRgWuZlTgakYFTPn6+przPSpghktt1veogAlrWkcFzsdP6ajAuRzTOSpwHuFUjgqcQzyNowL2pFM4KmBLPn2jAnbwUjcqYAM/baMC+shSNiqgizxdowJ6lKUqX4HXt9fnpy3Rp7Lr6LsC5W/UIt+Pz6/6Nei3AnW7iULfh1+GqKfPCtTvpEt96x8e+quATg5GBcrQ8z8qIEfXe6nvZ/VDcR8VaOadp1+ADiqgn33C/1tcXAwK0HgFbLL/8fFW9vtxFgVouAJW2f94T/5J2zhGDxS0WQGz7Be//R8enkR/LplPexUwzH7p7n/CKv+tVcA0++Vvf8P8t1QB2+y3mv9WKmCd/Xbz30IF7LNffvpjn/+rK3BG9ieaO//Zcl0FTsp+ef5PeqD4mgqclv2JwhPQsx7ovqACZ2Z/ovQK4DSZ51bg5OxPFF+C3WEFzs/+RHEB7q0Cl2R/osLdHVXgquwTowJXZp/43BW4OvvE9/I/MdJ5BVrI/kz5n3npuALNZH+m+IZEpxVoK/vx/P/zX3/jVZQOK9Ba9uP5/+u/H/+5twq0l/1E/ul+Z952RxVoMfvx/ON+891UoM3sZ/N/JxVoNfuM/N9BBdrNPiv/nVeg5ewz899xBdrOPjv/nVag9ewL8t9hBdrPvij/sgq8v01YfGva0dCboQpR/lm2X+fHiXFf7/Gq54n7yL44/9xNf8/JzxP3kv2C/JdWgGqgnpWwlH6yX5T/8goYZOYopafsF+a/4Qr0lf3i/LdaAZPn1Cwpzn95BQy+y7h8pemlt/TX5L+8AvrvUleAl59Y7Ieq/BdXwKAAXx4efv3GQkdU5r/wy4wGu6Af3x7wqisq8x+bnoNbXgF/PmH+y59nMjhR+YT5L337m2wAI/8CRv4dI//Xck/5/4UXPXE/+f/T4d2H2vyXP8uknqrv3yzWak5l/ks3APW3v3sjnPaYrBqV+W/l+nex0V0BavNfdgWmvZ/YqOjsA4Da/BdtAdrp9+8CdlWB+vyLC6C9jzjeg+2oAgr5F96EVk5OOHg3FdDIv6QCp2Sf6KQCOvnnVuC07BNdVEAr//Qwa6YEX5W/gpUveQcV0Mv/RPx5Yv3vv12ywemjmn/ifflzMlMl6NufNt//5GWfaLwC6vlfeVfP+gI/+0TTFTDMvxWy7BMNV6C7/MuzTzRbgc7yX5Z9otEKdJX/8uwTTVago/zXZZ9osALd5L8++0RzFegk/zrZJxqrQBf518s+0VQFOsi/bvaJhirQfP71s080U4HYh1eN5N8m+0QLFUjdMta+W1yCXfaJiyuQ//3Pi0tgm33iwgowzV2n0D77xEX+BOauUXhO9okL/AnNnf+lyvOyT5xdAfEXpk4uwLnZJ06tQMH31c7Ud372ifMcFqT/xKuBa7JPnFSBovSftQu6LvvEGRWI3W7Iccb3uq/NPmFfgcK3/wl7oOuzTxhXoPTtb57/NrJPmFag0fy3k33CsAJN5r+t7BNmFWgw/+1ln7CqQGvH3zazT9hUoHgDMMl/u9knLCpQ+oMxFuf/bWefMKhA4Qagf/3bfvYJ/QoUHQHU099H9gn1ChRY105/P9kntCsgPQbYP6/bOtoVEGVAOXh/2Scuq8DIPrikAiP7G9QrkPkC0PnP67aOdgWiD+w+Pl30vG7rqFdgqsHb8sSuw+TPtdxH9gmDCphzP9kneqvAfWWf6KkC95d9opcK3Gf2iR4qcL/ZJ1qvwH1nn2i5AveffaLVCnyO7BMtVuDzZJ9orQKfK/tESxX4fNknWqnA58w+0UIFPm/2iasr8LmzT1xZgZF94qoKjOwvXFGBkf0tZ1dgZH/PmRUY2Q9xVgVG9mOcUYGR/RTWFRjZz2FZgZF9DlYVGNnnYlGBkX0J2hUY2ZeiWYGR/RK0KjCyX4pGBUb2a6itwMh+LTUVGNnXoLQCI/talFRgZF8TaQVG9rWRVGBk3wJuBUb2reBUYGTfklwFRvatif5VXvojsqW/VDYQ8eXlx29kHeT/MEaLPDz8H+HJzqxEaDcvAAAAAElFTkSuQmCC;" vertex="1" parent="1">
                    <mxGeometry x="582" y="116.5" width="61" height="61" as="geometry"/>
                </mxCell>
                <mxCell id="32" style="rounded=0;html=1;exitX=1;exitY=0.5;entryX=0;entryY=0.5;dashed=1;startArrow=ERmany;startFill=0;endArrow=classic;endFill=1;jettySize=auto;orthogonalLoop=1;strokeColor=#000000;" edge="1" source="33" target="31" parent="1">
                    <mxGeometry relative="1" as="geometry"/>
                </mxCell>
                <mxCell id="33" value="" style="shape=image;aspect=fixed;image=data:image/png,iVBORw0KGgoAAAANSUhEUgAAAX8AAAF/CAMAAAHhnQnDAAAAAXNSR0IArs4c6QAAAARnQU1BAACxjwv8YQUAAABFUExURQAAAP+vxv+70f+sy/++0/+uyf+vyv+80/+syf+90f+80/+vyP+tyP+uyP+uyf+80v+tyf+uyf+90/+tyf+uyf+70v+903sFol8AAAAUdFJOUwAtLTs7TE1NWlpkdpaksbHD0dHVbYFLeQAAAAlwSFlzAAAOwwAADsMBx2+oZAAAFXVJREFUeF7tneti4zYOhZNNZzZtN2nSSfv+j7qCdGSLEgkCJCCRDr8fMzZFEucA1tWS85Tgxw+8EPJF4LWEub9iBPqLR6A3gRYe9F1AG8tP9F1AI4tqxNfP6R/FiGm5asS8XDECy2nE/R2xNBzA0tuIT7ydWBp2YBmRbNmCJTPppjtoX2DaVtAK0MjkCm030JwcgZYNUyNTD7zfQq3JEXgXMDcnRuB1yNIerSBe7cCCyIh/8GIHBiwatrMmAjADXvBix9pp6b8dkAixdlr6v86vifd1wZ5bO/V/Xl5OUP/4iHjz0j+6KNq69o8tizXe+x8Xvk1t73i9su2/H/E6t4Ujwv67EZG2ff9w6bHp2D9YfGiJ9d8uf57f31eFeP/tCHq3r28MdNiR7h8fwfWPjeD7H0fk+u9H5PuHIyT9tyNk/e8jpP3XEfL+ywhNf/Xx0rzq4LUErGp4l+e2auJ9js2qjBaeYNVHGw/6LqCNB30X0Jbife6AvgtzewrST/8vXcG8JM7il17NL1bmZTHW/OAt3k2gYc89n2jAuwk0hGzy/7G08AdYm/5fL0vTdn+5tGzY9l8HvOHtzNJ0I+gfMTGBtoVd/+yIQ39aOuvCu4W5LxHpTwPmDni7MPeO958HJEZE+y8D1imXJmJ6E+TuDqqwDAhG4MUeDFj2v0HN8f+eMML8eiEzADX/mNtmUprWWZcB88uZ8N2Gm4xj//iIQPeNpX90RHQAuk+gYUNsADrPoOlGqu0OGkG67Q6aZ+h4bGKT/WP/YARati7QFIBFE/gEBfWNgYUT8fdHsHji+C4OOuzAwijoEoBFCdBpAxYkQbcbaGZAR4BGFnSdQVMGdJ5AQxZ0F/dfR+CNCG3/BNhKfuKtNduNNpos2e8T0GxFfJdmRnyPZhcivOYQgB7V+IV4xxUNpxBz7v1C3ErrEyL45NxDfHwEu6876CHl8MFcQyxEP7dYJiE6PgyBxhAsyxGd/nZ4Be4XmQKwlCMx/T5A7PhpBstTJKffb6TLPlHM9AR6AX2IzPQEDrSALoRg+om560vBqieb/hZAu3ZLp98E0Kzd8umDAOK1Gy9lzFPd14H82v2mm38fYLm0uBI996sLML+9cW/fEJwd5tlNFK7daAyYk4jXEuaJtkrnhgW0bLldfcP7PHPvMBUfVIiXWB6Ci3toyzH3jeb6wOHaIdp55p6SANFLk1jGMffLB0he+cTyBPfVitkCTSSnJ9AnBnosoC0COz2Bfgdku8zs9AT67pAEEE1PoH8Ili2gLUA8PYExAVhEoGWLanoC4wI+KU/R7KinJzBWQNH0BMZnKJ6ewBwMVdMTmCdB9fQE5opgMj2B+XaYTU9gzg2m0xOYF5hPT2DuCZfpieXIJzzcMuUHgdcezPodHWB+twiYnXCJgLkXHCJg5hXzCJj3jnEEzLrFNALmDDGMgBn3mEXAfEesImC6CCPCHUwXoTLC7XAR00WoijCNxyufCPN4vPaIgPF4Zx8Bo90iYCyBFtsIGLmAtqkxde1JHQHjVtC6EL0oq4yAUXfQDtAYoIqAMVuwBKAxQBEBI0KwbCF6cUscAf13YCFAY4gwAnrvwVKAxh2iCOh7AIsBGvcIIqDnESwHaDyQjYB+EdABoPFIJgJ6xUAPgMYIbAT0ibL7FhmtEZgI6JFgNxCtEZIRsDwJ7tJYQWuERAQs5UBPgMYI0QhYxrJc9brFQWuESAQs4UGAkghoz7AG0EdAa45bAG0EtGW5B9BFQEueTYB7hI+Pj/h3ELcIeC9gG+AWYYbbT+OdhCBAGCE6zRwBr0WEAWQREl8Mx9kFCCNEC6EzwAeITvXLO4Dye7RdANw6u4LWkLYDCFL0IxE3ARsgelV+aue/8AnZBwj202gLmBcoIuwDbDdose+TsUge4RDgvp9m5ldEOAZAiOj2YO68II0QC5Bk7rsijKAJMHe9I4ugCDD33CKKIA8wdwyRRBAHmPvtEUSQBpi7HclGwF0O9yeiEizdImQioNcEGhKgUww2AvrMoCkKusRhIgQH74kHAAj0SJGOgA4AjUewPE0yApYDNB7AYo5EBNkpGpbyJCJgKUDjDizMEY+AhQCNIViWJxohuJcotf+VEo2AZTNoCsAiGbEIm+8X2f2jDDaCwfyJLL1NhXiO38qlJxohBcboUETACC3iCOivRxgBvUsQRUDfMgQR0LOUbAT0KycTAb1qYCOgTx1MBPSoJRkBy+tJRMBSC6IRsMyGSAQsseIQAe127CKg1ZIgAtps2URAizW3CHjvwN80/e4g8jJ+3i+xfYaPFXTB4chpc9WkA2IHfh1ZiMon+rCQlE+0b4GVT7RtISufaNeCSD7RpgWxfKI9Cyr5RFsWslcfY7Rl4XDAKmFYMKZDC+Fjht1ZoC3PPnpHFtYNZ6cWttv9Di3sd1udWYjtdTuyEJNPdGIhJZ/YR39+WTazzy9v8geqfS1w8gkm+nNu7A0/CxIJXPSLLUjDM9Hlq4W9BXH2DncvbUk9HR3B1oJC/uH22YDEIwRR7Cyo5K+3cMRRlGDCxoJSvqUBCwtq+bYGai0UyN//wk2IZh1YKbdQJH+CW4tPPMAolT/Bfh1wkoUK+QQb8AQLlfKJ9/358hZnCwbyZ7aboxNP/63kBwamzec+upMFO/l7A6dYsJR/NOBuwVZ+zICrBWv5cQNuFuzlpwwcoz+vm6iX19JzZw/5aQOpz8CCWMt9Eh/5nAFTC0XfrojgDLAWxI9E0X0hf+C1A7wB7txZ7ODv9D3XBmQMbBYfkJ83XGeAKUDccJz+DfyJFw5kPkLc8TbzPETIL+VTkCoyBrjzNukObb49rWhfLiFjgDl3lu4J1hw4WcgZSNZAmP/tb5u5WMgaiO/NhOnf/zSbgwWBgcO5s3SNjP2ynLkFkYGZjxn5oWhMPmFsQW5AR0o+YWrBxwAnnzC04GEgJ58ws2BvQCKfMLJgbUAqn7CwsN1NGZw1aeQTlRaOeyjx8VkUrXyiwkL8dLH8sLFEPlFoIfkEQ+EHqVQ+UWKBeQKjxEGNfEJvYbPxOaBeEWrlE1oLnAHl5tRCPqGzwJ0qqgxYySc0FrgKKDZElvIJuQXucoP4iNlaPiG2kD5bl67DHvIJqYVU/IJzXWtqLBSe61ojtfAZXDSJP/MfwVs+IV+dcbKL1wLOkE9oLCg4Sz7hYOFM+YSxhbPlE4YWrpBPGFm4Sj5hYOFK+USlhavlExUWWpBPFFpoRT5RYKEl+YTSQmvyCYWFFuUTQgutyicEFlqWT2QstC6fYCz0IJ9IWOhFPhGx0JN8YvPjNgR3Y0S7/FrE//L8i2GOvMx/7WyCu9bYLpvrKB/M/X2N0vkKcNgE9bUB6nwLGt2H9WOg811wQn4vBpLy+zDAyO/BACu/fQMZ+a0byMpv24BAfssGRPLbNSCU36oBsfw2DSjkt2hAJb89A0r5rRlQy2/MQMndk00ZKHlucRiwZBi4mmHganozcLiLtS8DP4+xezJABw0dG1iOebo1sB6ydWrgfsTZpYHtAXOHBrbyOzQQyu/OwF5+ZwaO8rsyEJPfkYG4/G4MpOTHDXzqnh/3N5CWH4n9ghsHXl7lzwX4GuDks7Hlv2PsaYCXz8cWPxTmZyAnn4+dHw28DEgENGxAFp6LfelHSJo9LvaFK7G4+Fxs+dPN1gbk8tlHU6/aD2jkc/overJWJZ/7+4SaR5vtDKjk879DdsWxkE4+r1/1C9g2BpTyDfWbGNDKt9RvYEAt31R/tQG9fFv9lQYK5LP6C35epMZAiXz2ty1Kfuqo3ECZfPb39888qS+Uz+6ATzRQKp8vwGkGyuXzv+5ykoEa+ZlwZxiokn+9gUr5U7hLP0LV8icuXIkt5E+bUe6hHU8DNvLDA4kTv6m3kh/o/zjE9jJgJj/Uf4ztY8BO/k7/OQYM5e/1n2HAUv5Bv78BU/lH/d4GbOVH9PsaMJYf0+9pwFp+VL+fAXP5cf1eBuzlJ/THDMxfE2t+fO0wiYP8lP6jgfWC+/OL/D72cBIP+Un9kerfEP96XzCJi/y0fs6AXMt9Eh/5jH5bA07yOf2WBgx+/TsOp581oPueuOTZFRGsftaA+FsmOsnWfCWlgtfPGZB/Tfmfp7/wyp6Mfu57VnFOf3f8e0kZ/dxlXnEB/r1O/3bxHvn3BNfp534SRb5NvE4/8/GPry9Rhv4kQ78Av93XSeuv2+FDTv928R7x9nOa5KrjB+5bMvH+azoAUtwTpSOnn/mGQ/rxn4+hSi4ASMjpTx9AiM8AlhI6GcjpTxdA+pFev+HxMZDVn1oDpJ/o+xdULgby+uOnANJPz/b7NQ8Def1RAyXyXQwI9Ee+J9Z/eBbsDUj071di8XMOe/kOBmT6vz7f1iMhxfXDo3x7A0L9E+rrtzH55gbk+rXE5VsbcNOfkm9swEt/Wr6tASf9nHxTAz76efmWBlz05+QbGvDQn5dvZ8BBv0S+mQF7/TL5VgbM9UvlGxmw1i+Xb2IguH/P4CqNRn69gfCPshlc5dDJrzVwPLHa/aC4Fq38OgPRE9uaCfXya+LFz8srrvSVyC83kLowVfxFeZn8YgPJ61KFW6FS+YUG0tcFy77qL5dfZoC5LltSgBr5RQaY6+IFz0/VyS8wsD1s2KP/ANXK1xvg9KuPg+rlqw1Y6reQrzXArL5a/TbylQbYP5Wi0m8lX2fA7PNjJ19lgNWvOASylK8xwN3Xo9j+28rXGGBuDJCfxVjLVxhgVmDxx99evsJA8gBCvPv1kC83kCyAdAIf+dXxS7+as6PKQNkXo7ZUGGhBfoWB6z88C1IDb8FW6FV7S4YfUgNfH6/Yk72I1Z8gX2FgOpagr3UvO+ZJoTCg4xz5bgbOku9k4Dz5LgbOlO9g4Fz55gbOlm9s4Hz5pgaukG9o4Br5Zgaukm9k4Dr5JgaulG9g4Fr51Qaull9p4Hr5VQZakF9hoA35xQZakV9ooB35RQZakl9goC35agOtyVcaaE++ykCL8hUG2pQvNtCqfKGBduWLDLQsX2CgbflZA63LzxhoXz5roAf5jIE+5CcN9CI/YaAf+VEDPcmPGOhL/v5WW/bHlNvk5+ZmH/aevmb5459F/Z/sT7V8P55f3+bnnbe8vb4w910PzHh+Te7e319HCZz5mUz+wnt/2+mOyGWfGBXwQpJ9YlTAA2n2iVEBazTZJ0YFLNFmnxgVsKIk+8SogAWl2SdGBWqpyT4xKlBDbfaJUYFSLLJPjAqUYJV9YlRAi2X2iVEBDdbZJ0YFpHhknxgVkOCVfWJUIIdn9olRAQ7v7BOjAinkf/uujlGBBGd8/GdGBRKMClzNqMDVjApczajA1YwKXM2owNWMCrjy8+0t53tUwI0ltVnfowIu3NM6KnA+YUpHBc7lmM5RgfOIp3JU4BzSaRwV8IdP4aiAL/n0jQr4IUvdqIAP8rSNCtijS9mogC36dI0K2FGWqnwF6AH4t9eXFXogvvyvAzL0XYHyD2qJ7+epDPZF6LcCdZuJQt8/7UvQZwXqN9Klvu13D/1VwCYHowJl2PkfFdBj673Qt8PNpH1UoJlPnvyPLolpvwL22SfCv8UlxaEAjVfAJ/tfXx9FP8Dmcz97uxXwyn7p5//pRffXhqW0WQG/7Bd+/B0f6GivAo7ZL8+/1wow0VYFXLPfZP5bqoBz9hvNfysVcM9+s/lvoQInZL/h/F9dgVOyX5F/jzOwPddV4KTsf319viKiEv+P/8w1FTgt+xOFK8BZD3RfUIEzsz9ReAJ8nsxzK3By9idKC/CIFTg/+xPl9h6sApdkf6J0JzzxQBW4KvtEhbsHqcCV2Se+dwWuzj7xmX1oNUnnFWgh+zOfb6V/5qXjCjST/YVvdj7QWPaTJ8TP/3vEZ+qby34y/3TBJ+u7swo0mH02/49VgSazn8n/41Sg0exn8/8YFWg2+4L891+BhrMvyn/fFWg6+8L891uBxrMvzn+fFWg++4r891eBDrKvyn9fFegi+8r8Syrwtn2aeMLrgWJeSSfZV+dfuu7veD73eeJusl+Q/8IKUA3MsxJX0lH2i/JfXAGHzByVdJX9wvy3W4HOsl+c/0YrcMZtqrYU57+4Ag73Mq5f4klUN0ZF/ksr4PZA93//wtuOqMp/4dfHDgX4+O3p6de/eNMTV+TfowB//fGEV31Rl//E6CwOG+p/Rv7lOOT/6xvmv/xOXocDxW+Y/9KPv8sKMPKvYOQfPFD+f+FFV1Tlv63t/w/7mvpTlf/iFcD+4//5Z4cX3ybq8t/O88Rv5OO0x2TtqMt/4Qpgnyech/dXgMr8l12AsN76b1bD3rZBtfkvKID5hzS8DNtXBarzr74IbZ3+Y/yeKlCff+VO2Dg58er3UwGD/GtWgVOyT/RSAZP8SytwWvaJPipglP9pK5R7YM/67wnkS95DBczyP/H59voSPxqyv//tkhXOAcv8z3yecf+nLPtE6xUwz/8JyLNPtF2B/vKvyz7RcgV6y78++0S7Fegr/2XZJ1qtQE/5L88+0WYF+sl/XfaJFivQS/7rs0+0V4E+8m+TfaK1CvSQf7vsE21VoP3822afaKkCreffPvtEOxVIfH3YSP59sk+0UAHu9w8d/vqsGr/sExdX4D3725NXC3TNPnGhQZk5h0empfhnn7ioAgpz1yg8J/vEBf505i64pey87BNnV0B9w9TJDzWfm33i1AoU3DB4ZgHOzz5xXgWauF8zyTXZJ06qQOJ0N8c5Bbgu+8QZFWjnfv0j12af8K9A4cf/hBXg+uwT3hUozr/zCtBG9gnfChTtfQnX/LeTfcKxAuXPKzrmv63sE34VaG/70172Ca8KtJb/NrNP+FSgNP8+F4HazT7hUoHCHbDHx7/t7BMOFSjbAzt8/NvPPmFfgaICmJ999ZF9wrwCBQWwTn8/2SesK6AtgP/zuq1jXQFVBoyD95d94rIKjOyDSyowsr/BvAL8DUDmj4z2nX3CugLJB3Yd/lxF/9knzCsw8fmxfWLX58+1PEb2CY8KePM42Sd6q8BjZZ/oqQKPl32ilwo8ZvaJHirwuNknWq/AY2efaLkCj599otUKfI/sEy1W4Ptkn2itAt8r+0RLFfh+2SdaqcD3zD7RQgW+b/aJqyvwvbNPXFmBkX3iqgqM7K9cUYGR/S1nV2Bkf8+ZFRjZj3FWBUb2U5xRgZF9Du8KjOzn8KzAyL4ErwqM7EvxqMDIvgbrCozsa7GswMh+CVYVGNkvxaICI/s11FZgZL+WmgqM7FtQWoGRfStKKjCyb4m2AiP71mgqMLLvgbQCI/teSCowsu9JrgIj+94wP++f/+sMAwv+89vvf/2LnAP6A779Jf/p6f889MZRE9MJBQAAAABJRU5ErkJggg==;" vertex="1" parent="1">
                    <mxGeometry x="226" y="114.5" width="64" height="64" as="geometry"/>
                </mxCell>
                <mxCell id="34" value="dev-base" style="shape=image;aspect=fixed;image=data:image/png,iVBORw0KGgoAAAANSUhEUgAABEwAAANSCAYAAAEIfWtJAAAAAXNSR0IArs4c6QAAAARnQU1BAACxjwv8YQUAAAAJcEhZcwAADdcAAA3XAUIom3gAAGcfSURBVHhe7d17kJz1eSd6Vc1oJO3WVoJAEqAbEroAAoRG4iJhsB0uwRdhMDYIFGdlTGzjYHbLyqWWU9mttZOsg9jEdnm9PoGi1gcHHIM2wevKAU4qfyTYZwtD+TiUt44pjs0lDsFOBdg4LJiU5jy/4TeT1ju/aU13vzP99sznU/WlW/P29PQ0v3n66afffnvRXFq8ePE5kU+Xctttt43dfPPNY/v27RvPFVdcMXb++eePZ8uWLWMbNmwYW7ly5VhcdsZJl1+3bt3496frSdcZP+MfY9vEzz073zT6Kf5H/ELkp5Hi/8iG5eXItnzTmStxp3+g5X/CwGR4eHhX/hWYC6X/CYOS/Csw2+LOPlS981Mee+yxsVZHjhy5Lk7W5W+bc9Gv7C3dzsihfBFmU/WOj3L+ZN7USHH7vla5zT/Nm5hNlTt9IEr5IN7mgRZ38oHKnf543tRoUVUebL3dIyMj1+RNzIa4k19ovcOXLFmyMW9qvNbbHQvn6fxlZkPrnZ2SvzwQBvm2D5zKnf1i/vJASLe39fbnL1O3uHO/1XpHRw7kTQMh3d7K7X84b6JOlTt5IP8i58Pv0GjVO3hQ7+Tq79D0GVBjLF26dN1E4o7b15q4E78ceS7doYX8OHLU5Qck6XZP+X3i93wqcm9K/Lv0fXOV61r/n9SZ/L98ZkZGRtJY+9XIlDtLFkzSK/7Tv4wRG19pubDI1PYhvqiKSCmv5CUyPr6+tXCBlyKj+SIsALEODlbWwHjy5uIzlpvyJhag6nqIBXRXacPXx7/Igta6JmKhPJ/KzW+0fjFfjgUu1kJrz/p6+kLaG91C4ShRQJ45al3EfywUprBQmBELhRmJhXLfUevilltu+cJRX4AQCyW9pvVP6+LDH/7w5D/GvwBhykK54YYbLBSmmLJQrr32WguFKaYslGuuucZCYYopC+Wqq66yUJhiykJ597vfbaEwxZSF8o53vMNCYYopC+Wyyy6zUJhiykJ5+9vfbqEwxZSFcvHFF1soTDFloezZs8dCYYopCyUdLfGoL0CYslB27txpoTDFlIVyzjnnWChMMWWhnHXWWRYKU0xZKGeeeaaFwhRTFsoZZ5xhoTDFlIVy+umnWyhMMWWhnHbaaRYKU0xZKOmTJ476AoQpC2Xz5s0WClNMWSibNm2yUJhiykI59dRTLRSmmLJQ0idrHfUFCFMWyimnnGKhMMWUhbJ+/XoLhSmmLJT04YxHfQHClIWydu1aC4UppiyUNWvWWChMMWWhrF692kJhiikL5aSTTrJQmGLKQjnxxBMtFKaYslBWrVploTDFlIWyYsUKC4UppiyUE044wUJhiikL5fjjj7dQmGLKQjnuuOMsFKawUJgRC4UZsVCYEQuFGbFQmBELhRmxUJgRC4UZsVCYEQuFGbFQmBELhRmxUJgRC4UZsVCYEQuFGbFQmJEpC2X58uUWClNYKMyIhcKMWCjMiIXCjFgozIiFwoxYKMyIhcKMWCjMiIXCjFgozIiFwoxYKMyIhcKMWCjMyJSF4hhulExZKCeffLKFwhRTForP66FkykLxKaWUTFko1Y/cT/JlWcCmLJTR0dEpC+XIkSP/T+Ss/D0sMGkNtK6JlEUXXHDBlC8ukLw+h3kt/kKfaUDui9xbStzG0n00mUVvf/vbixtEWrPofe97X3GDSGsWffKTnyxuEGlNbl9mX/yws+Kx8Dfi9NPV3HbbbQ/efPPNYyn79u0bu+KKK8Zz/vnnj6VnZekp/MqVK8cTl59x0uXT96brSUnX/ZGPfOQLse3TIyMje+NUw95vsSi+3fo/rcmJ2/pgvtnMldL/iAHIi/nmM9vizv5M5c4fpHwm/xrMpsIdP55WR44c2RfZnL+lL/7Tf/pPxduZNzNbhoaGLhm0O716eyOjeROzIRrAp1vv8Pj33XlTY8XtrD48Pp43MRsqd/bAlO5Bvd0DqXJnv5q/3HhxW19uve35y9QtHloOtt7RkUN5U+Ol21q57QfyJuoUd+xA/zW23vbIy/nL1KlyJw/6IvGQU7e4U7/eegfHQ89zedPASLe58js0/pnZwCj0ImMjIyPX5M0DI273gervkTcxnaVLl66byNDQ0KVxp+1ryY2xOA7H6U8jR92xOR+ItF5+EJJuc+l3eTV+14m9vNIfROl75yTxx7e59f9Lncn/248tbsjDkdIdJQsk8Yfw9LJly9bkJfFPYuOHqheWhZ1YLHfm5THeU+wpXUgksm18kRQ2pHxufCMLwpIlSzZFsTjq2V3OS+lV28urG/L3sQDF//8pbceU2UC+LAtYrIknjloTrf9ICyZfjgUsPbNpXRfVRXJvvhwLXOu6sEgoal0XFglFreuiukgO5suwwLWui6P+EdmXL8MC17ouLBKKWteFRUJR67qwSChqXRcWCUWt68Iioah1XVgkFLWuC4uEotZ1YZFQ1LouLBKKWteFRUJR67qwSChqXRcWCUWt68Iioah1XVgkFLWuC4uEotZ1YZFQ1LouLBKKWteFRUJR67qwSChqXRcWCUWt68Iioah1XVgkFLWuC4uEotZ1YZFQ1LouLBKKWteFRUJR67qwSChqXRcWCUWt68Iioah1XVgkFLWuC4uEotZ1YZFQ1LouLBKKWteFRUJR67qwSChqXRcWCUWt68Iioah1XVgkFLWuC4uEotZ1YZFQ1LouLBKKWteFRUJR67qwSChqXRcWCUWt68Iioah1XVgkFLWuC4uEotZ1YZFQ1LouLBKKWteFRUJR67qwSChqXRcWCUWt68Iioah1XVgkFLWuC4uEotZ1YZFQ1LouLBKKWteFRUJR67qwSChqXRcWCUWt68Iioah1XVgkFLWuC4uEotZ1YZFQ1LouLBKKWteFRUJR67qwSChqXRcWCUWt68Iioah1XVgkFLWuC4uEotZ1YZFQ1LouLBKKWtdFdZF8KF+GBa51XRz1j3POOWcsX4YFrnVdHPWP4447buzIkSPfyJdjARobG7s0MrkmUqoPNwslr89lhoeHn4880+d8L3JvKXEbS/fRZBbqIpEOYpHIMWORyDGT25XBFb/EaDyuHozcF0mPu8/H116LpH6g+EvL4jci6f55Ld9fj8fpXSMjI9fkuxUWhlj8H4qU/kikvrwYBWZXvsthflm2bNmaWOQ/qix6mcVEQXk23/0wP+RC8lJ1sXeTaOfHdu/ePXbzzTeP3XbbbWO/+Zu/OfYf/+N/HLvzzjvHHnjggYkcjMvuG+REIUhP/6pj1kcixfulTV5K93/+XwGDLf4Qni4s8qMSl3nyC1/4wo0/+clPRsfGxtblb6WNF154Ye+qVauK92dr0v2fvwUGVyzmO6qLu5I0SNydL04Xli5dui7ux2N1fofyxWHwLFmyZFMs4navzLwal9mYL04P8lPJVyr3b2tezheFwRMdx/2FRT2Z2P6JfFFqkF4eLt3PE4n7++58URgcsXhHI2mfiOLCjjyeL0qN0v1auZ9b83rqFvNFYTDEwm23qFORGc0XpUbpfs33b+l+T3koXxSaLxbs/soCrsaCnkXp/q3c39XszxeF5oqFuiOSdokvLeIUrfYsM/hm4MUi/XBl0U7J8PDwPfnizKJjDb8jXpKnWWJR7ox8s2WRtsur9sacG6nzSPd35f6fkigoz0UO6lSYkbywDqRHq8gP4vyLkfEjdRRSXHQiCzSlv5Gm5+X0dx45nB4o4t/dv9gR37wt8o1I6c4RkYWbl1KByaVienFBb+8XkZnm9lw6jhbV5pnChadL2g8htULpe9LBdY56d6qIDFTS05n0tCYdLCs9zSn9zRcT33P0CyLxhedKF2xNXOZuw09YOOJv/ldKtaCaoaGhyye+4Z7SBVry4fELAgtS1Ig0hC3Vhok8nmYk2yPT7SD208jOfH3AAha1oN1e6a+lC3y68sXJRDU6nK8HIHUoz5ZqReT1YxWTe/N1AKRiMu2LNIoJMGOKCVCLqAnfK9WKlLbFJOLDy4FJqcEo1InxLPr4xz/+j6UNOYoJMKltMfmX//JfFjfkKCbApLbFZN++fcUNOYoJMKltMXnf+95X3JCjmACT2haTq6++urghRzEBJrUtJldeeWVxQ45iAkxqW0ze+c53FjfkKCbApLbF5Od//ueLG3IUE2BS22JyySWXFDfkKCbApLbF5G1ve1txQ45iAkxqW0ze8pa3FDfkKCbApLbF5IILLihuyFFMgElti8m5555b3JCjmACT2haTHTt2FDfkKCbApLbF5Oyzzy5uyFFMgElti8mZZ55Z3JCjmACT2haTbdu2FTfkKCbApLbF5IwzzihuyFFMgElti8lpp51W3JCjmACT2haTrVu3FjfkKCbApLbFZMuWLcUNOYoJMKltMdm0aVNxQ45iAkxqW0xOPfXU4oYcxQSY1LaYbNy4sbghRzEBJrUtJhs2bChuyFFMgElti8n69euLG3IUE2BS22Kybt264oYcxQSYpJgAtWhbTNasWVPckKOYAJPaFpPVq1cXN+QoJsCktsXk5JNPLm7IUUyASW2LyYknnljckKOYAJPaFpNVq1YVN+QoJsCktsVk5cqVxQ05igkwqW0xWbFiRXFDjmICTGpbTI4//vjihhzFBJjUtpgsX768uCFHMQEmtS0mxx13XHFDjmICTFJMgFooJkAtFBOgFooJUAvFBKiFYgLUQjEBaqGYALVQTIBaKCZALRQToBaKCVALxQSohWIC1EIxAWqhmAC1aFtMHGkNmCnFBKiFYgLUQjEBaqGYALVQTIBaKCZALRQToBaKCVALxQSohWIC1EIxAWqhmAC1UEyAWigmQC0UE6AWiglQi7bFZNWqVcUNOYoJMKltMVm3bl1xQ45iAkxqW0xOPfXU4oYcxQSY1LaYnH766cUNKbt37x47cuTItfl6gAWubTHZvn17cUPK1q1bx5IoKF/J1wUsYFFMDpdqRcqic889t7jhWEkVasDy5bjdN0b2LcSMjIxcvXTp0vWRdfM0a/N6p0fRP2yMHBjvJCpiLU2bRRdeeGFxg4hIJ1n0rne9q7hBRKSTLPrFX/zF4gYRkU6SnyXNH0uWLNkQv9jZIyMje+P00x3k9ttuu+3lf/Nv/s3YzTffPJl9+/ZN5oorrpjM+eefP5ktW7ZMZuXKlZOJ65yVtP6M1p89cXsuu+yysSuvvHL8Nn/0ox/9bnzP5O85PDz8G3F6TuTsdF/luw2IonFN/IHcFX8cj8TpM3H6cuT1yBuR4h+jjN8/KS/HffaDyOHIwfj3aL5bYeGIxf9/xOJ/KVL6Y5Hu8tO4X5+OfDzfzTC/xaJ/rPJHIDUnCsqd+e6G+SkWukIyR1FQmLdigR+qLniZ3URBOZjvfpgfli1btiYWtxnJ3OeldN/n/w0w+GJRf6ayyLvOxo0bx97//vePv/R72223jd1+++1jd95559gDDzwwmbjcDZHirukDkhuiq7gr0vqWgvvi61PujxnkM/l/Awy+WNAz7krOPvvs/E6CqY4cOXJjZF+cvTSyLs4vuPd0fPzjH1+T7ovSfTdNXsrfCoMtFvP+yuIu5md+5mc+9z//5/+8OgrE+oVYJDr1t3/7t50Ulf3522BwxUKeySs4H84Xp0MrVqzYE/ffq5X7s5qH8sVhcMVCTnu1lhb4RL6eL0qX4j78bOU+reblfFEYTLGIj/UU55XItnxxujSTV8uGhoYuzReHwTM8PHx/aWFPJLbfky9Kj+L+/Fz1/q3kjnxRGDxRLJ4rLOrJxKPl5fmi9Cjuz+2R11rv39bE/4un8kVhsCxZsmRTLOL07tbi4o68kC9KTVLBKNzPE3nVDmwMpFjYnygs6Ml4ilO/uF/vqN7PlXiJmMETC/eRykI+Kp7i1C8NWUv39USigN+fLwqDIxbvi9XF3BIvVc6SdN9W7uvJRDF5Ll8MBsOxHiEjj+SLUrN031bu69b8NOKIbAyOWLBtn7vHI6S3xs+SdN+W7vOWeImYwREL+unCIp6IR8dZlO7bfB+X7vtUyJ/OF4Vmi6c4l5UW8UQ8b5996T4u3fc5qdDszBeF5oqF/GBl8R6V2O4VhVmW7uPSfT+R2O5leZotFunuWKzT7oWZcyBfnFmS7uPKfV6N90TRbFFMnqws2mpeXbJkycZ8cWbJDPY+TvFubZonFua2yOMtC7WYKDbeHzJH4r5u+76oHMeRoTli0aaXIlPbXFqsRyUue3f+NmZZ3Nf3lP4fVBOXe9DeyHRt2bJlq5cuXbqumpGRkc2xwK6LlA5yPJFDsQDvjdPUiRzrwEfVfD5Suk6pP+m+Lv0/mC5pj+X0Ma2tB7FOH9066Afn7jpp58vS30nDM7uHPM17pKbPrXk8FsizcZoO8zfxmbXVlBaayEJN6W+kyXkt/safj9P0t35X+jzvXAa6l4++lbqImTx3FpH5m/QM4qEoLHtzeZi5KCBpjuFDr0Skmm9EZrZbQFzw0ZZvFBGp5sVoOHblklEWF/LB4CIyk/zNtEfei0rztcI3iIgUEzVj6q4a8cWPly7cJuMT38gPIocjrS8HisgAJf6e0ys3z8Rpp7tqTN0jPa5oRq/YxOWeiNP9S5cuXZ+/FZhH0g6I8Xfe9s22lfxO/tbxQnJL4QJHJS7z7MjIyJX5W4B5Lv7ud0SO+RaXyOP5W8a/6Vjf8Fi+KLDApL//Sj2o5tXxZyrxfOfU9I/KxslER/Jkvk5ggUrPTEr1YSLjO7PFmRurG1qShqy78/UBC1QacRTqw2SiTvyrVHH+sLQx5+F8XcACF7Wi3XGZH0kX+H5hw0Qc0QwYF7Xi7kKNmMifpgv8sLAh5fVobTbn6wEWuKgJ6VASpVqR8mjbYpKObZCvB1jgoiakY7SUasV4FBNgRqImKCZA76ImKCZA76ImKCZA76ImKCZA70ZGRq4u1InJtCsmL+brAFgUzcX6qAvpgNOlejF9MYmvP5OvAyAVk3VRG6YvJvGfv6l+MUUxAVrNpJgUNygmQCvFBKiFYgLUQjEBaqGYALVQTIBaKCZALRQToBaKCVALxQSohWIC1EIxAWqhmAC1UEyAWigmQC0UE6AWiglQC8UEqIViAtRCMQFqoZgAtVBMgFooJkAtFBOgFooJUAvFBKiFYgLUQjEBaqGYALVQTIBaKCZALRQToBaKCVALxQSohWIC1EIxAWqhmAC1UEyAWigmQC0UE6AWiglQC8UEqIViAtRCMQFqoZgAtVBMgFooJkAtFBOgFooJUAvFBKiFYgLUQjEBaqGYALVQTIBaKCZALRQToBaKCVALxQSohWIC1EIxAWqhmAC1UEyAWigmQC0UE6AWiglQC8UEqIViAtRCMQFqoZgAtVBMgFooJkAtFBOgFooJUAvFBKiFYgLUQjEBaqGYALVQTIBaKCZALRQToBaKCVALxQSohWIC1EIxAWqhmAC1UEyAWigmQC0UE6AWiglQC8UEqIViAtRCMQFqoZgAtVBMgFooJkAtFBOgFooJUAvFBKiFYgLUQjEBaqGYALVQTIBaKCZALRQToBaKCVALxQSohWIC1EIxAWqhmAC1UEyAWigmQC0UE6AWiglQC8UEqIViAtRCMQFqoZgAtVBMgFooJkAtFBOgFooJUAvFBKiFYgLUQjEBaqGYALVQTIBaKCZALRQToBaKCVALxQSohWIC1EIxAWqhmAC1UEyAWigmQC0UE6AWiglQC8UEqIViAtRCMQFqoZgAtVBMgFooJkAtFBOgFooJUAvFBKiFYgLUopdi8ny+DoDui0lKkq8HWOB6LiZJvi5gAeu5mBw5cuTv83UBC9inP/3p06Mu9FRMfhL5o3Q+XyewQMSf/cbIgfT3n5TqxETaFpPpMjw8fF/k3kFK3O5DkX0LOKOpTZ2vyWufGkTNuPTN0jFVrKNp01UxkYHMG5HUos7XvBwPGs/I8DNxXzwSp8UH1XaJ7yutmxlHMRGRWqKYiEgtUUxEpJYoJiJSSxQTEakliomI1JL8yjJNsGzZsjVLliw5Jf7H7BwZGbkmTm+I3BT53eHh4a9Evhq5P/79Z3H6/cgPZyNx/X8d+btIcdFI4/Jq5G9K/y9zvh/b05q5P5LWUMpX4mu/G0nr6/qhoaHLY81tSWswL0cAFopoPjbGg8DeeEBIO+U+FA8ST8Xpi5H0AJP2v0r7l5UegERmM2ntpTX4Yl6TD0XuiOyPbM/LF4D5Ior7hyKPRf4hUnpgEGlqXotmJe2o/8U43ZWXNACDKIr5RENSKvgig5Y0UblTgwIwYKJwXxD5WhTyNB4vFXiRQU56+fGLkW15yQPQVGkfkmhKnmgp4iLzNd8YGhp6Z176ADSNpuTNz4KUWcuzcR+37iw9XYr/b2YjcZueSOs+/wkA0BRz2ZScdNJJYx/5yEfG7r///rEf/vCH+cDh3Tty5MiNkX05Vx8+fHj0gQceWP/Vr351Xcp/+2//bXX+NWmAZcuWrS4dor8l62OdjMaavDpOb9y0aVNxHdUVzQlAw0RxHo2kt1j+dKJY15EvfOELuXU4WqWRuC6+dGmcbo7TdSlxfm2+aTDpO9/5zponn3xyb1pDL7744lg0E8V110XSuk/rfzT/KAD6JR2YKgry5yKvREpFu5Okd/B8+N/9u3/nA+qYdf/9v//3NY8++uiVq1at+lJlHXaTlyN35KsGoF+iGB8YHh5+rqVAd5MfRQ4tXbrUpIO+iPWX1vGTLWuy48T3Px2n+/NVAjDXogj3/BJOFPO0U+PH81VC39Swn9Tr8f33L1myZFO+SgDmUhTidGj5NMIuFeljJor4t+PB4D356qDvem1O4nvT9PBAvjoA5srQ0NClUYAfby3KHeaFKOKfyFcHjRFrc3+szfSyTGndHit2hAXohyi8vUxLXo3Cf0/6UL98ddAosT5/NdZpOmZKaf0eK+nQ9QfzVQEw29JHxUfx7WVa8ni6jnx10DixRnvZfyp9SvYjEVMTgNmW3h4czwbvjqLb7efgeAmHgRBrtZd3nKVp4qF8VQDMlpGRkWuiWD9VKcIzjXctMDDSOk3rNa3byjqeadJk8NJ8dQDULe0TEoX6nii4XU1L4nsd54GBktZrXrfFNX2MOOgawGyKItvLaDvt8Hp3eikoXx00Xq8vXWrGAWZJFNeeDqYWBfqp9DJQvjoYGD2+fOntwwB1q+HzcIy0GWhp/eZ1XFrfx4r1D1CneLZ4MArrCy2FttPYCZCB1usBBeNv6LnILfnqAOhWFNNbU1EtFdsZxtsmmRfSOs7rubTOj5n4O/IRDADdSp/0G8U0FeL0yb/FQjvDmJYwL/Q6NUmJ5sSHVgJ0KgroTZHHWgtql3FobuaVWNM9TU1yUrN/KDX/+WoBqIpng++OJuLuyLOVItptHJabeaeOqUlLHo+/t1+J0x356gEWjvTsLLJuZGRkcy6uByLpnQYPR3HsZR+S6ZKmJb+efzzMG2ldp/VdWe+95LVI2rk8NSr3RA6mtyjHv0fjb3Z9+rstZdmyZavzTQI4tnQ469wAXBe5IRWbyF2RezvI4VysfhBJr013k+fjOtLoORW/dGjtbg+v3U1+HD//2crtERnkpInijyvrfLaSpo4Tf7OlpIO+pScA/sYWXn4Q/+/TY8PhSOmxQ+rLl+O+Ti/h3hi5Lj2upyf4jX5iEDd0Z9zwWyLpUO1poaTpQ2oEUuEoFRsREREZ3LQ+MUgHX0wHUUyvQOyPzP3uC9EtvTN+8GfixjwRpy9FujoSqoiIiMy7pJ7gpdwjfCb1DLl9qFdccd07hoqIiMgCSO4dvhinu3Jb0b24og9F6njbrIiIiCzspJd+fj9OO3+5J77pAxENiYiIiNSaaE6eGBkZuTK3HO3FN2yLb/jf43Su9rqfSOue9iIiIjK3KT02z1qi10jvrmr/+VlxwR1xoQfjNL2ttnhFXeaVuN6n4/SROP2DOJ1429G+yORbj0rHKRAREZHZTcvxvdLhPdJjc3qMPhSP2ffHaTqgYi8fYjtt4vrT52ftzW3I0eICdTYlqREZ3xs3/cBly5atyT8GABhA8Zie+oT0obYPRuo6KOnrcV33p+Oe5R/zpvjCxtiQjkGS3pNc+saZJh3D5GCcbstXDQDMQ/FYX9dnyr0QvcMn8tW+KX0hbahcsJOkG/ahfHUAwAIRj/+pQenl87PS1OTwyMjIGeNXODQ0dHl8sdsr9AmhALDARS+Q3jhzd5y+kvuDjhLfmz5i4EPpJZwNceZ3Ix1/hHlcyXORW/NtAgAWsLQ/afQHn4t005y8nBqbRWnH1PjHn0XSB2WVLjhdUiNzR74tAABpcjIaeSTSaV+R3q78p+kKPh0dyg9bNsw0j6e3FeXbAQAwLvqK9CaYFyt9w7HSU2OSdlK5N73vOd8GAIBx0Sfsiz7hmUrvMJO8oDEBAGoVfUK3jcmYxgQAqFX0CRoTAKAZok/QmAAAzRB9gsYEAGiG6BPmvDF5Nb7nrmXLlq3OtwEAYFz0Cd0ey6S7xiQu/2yc3pB/PgDApPSKSvQK90avkI5NUuwlpku3jUkaz+zLPx8AYFJPjckv//IvfzfOvFrd0C4aEwBgOj01Jh/72MeKG9pFYwIATKenxuRDH/pQcUO7aEwAgOn01Jjs37+/uKFdNCYAwHR6akyuv/764oZ20ZgAANPpqTG57rrrihvaRWMCAEynp8bk/e9/f3FDu2hMAIDp9NSYXHPNNcUN7aIxAQCm01Nj8t73vre4oV00JgDAdHpqTK666qrihnbRmAAA0+mpMXnPe95T3NAuGhMAYDo9NSZ79+4tbmgXjQkAMJ2eGpN3vetdxQ3tojEBAKbTU2Pyzne+s7ihXTQmAMB0empMrrjiiuKGdtGYAADT6akxufzyy4sb2kVjAgBMp6fG5NJLLy1uaBeNCQAwnZ4ak5/7uZ8rbmgXjQkAMJ2eGpO3v/3txQ3tojEBAKbTU2Py1re+tbihXTQmAMB0empMLrroouKGdtGYAADT6akxufDCC4sb2kVjAgBMp6fGZPfu3cUN7aIxAQCm01NjcsEFFxQ3tIvGBACYTk+NyXnnnVfc0C4aEwBgOj01Jrt27SpuaBeNCQAwnZ4ak9HR0eKGdtGYAADT6akxOeecc4ob2kVjAgBMp6fGZPv27cUN7aIxAQCm01NjctZZZxU3tIvGBACYjsYEAGiMnhqTM888s7ihXTQmAMB0empMtm3bVtzQLhoTAGA6GhMAoDF6akzOOOOM4oZ20ZgAANPpqTE5/fTTixvaRWMCAExHYwIANEZPjclpp51W3NAuGhMAYDo9NSZbt24tbmgXjQkAMB2NCQDQGD01Jlu2bCluaBeNCQAwnZ4ak82bNxc3tIvGBACYjsYEAGiMnhqTTZs2FTe0i8YEAJhOT43JqaeeWtzQLhoTAGA6GhMAoDF6akw2btxY3NAuGhMAYDoaEwCgMXpqTDZs2FDc0C4aEwBgOj01JqecckpxQ7toTACA6WhMAIDG6KkxWb9+fXFDu2hMAIDp9NSYrFu3rrihXTQmAMB0NCYAQGNoTACAxuipMVm7dm1xQ7toTACA6WhMAIDG6KkxWbNmTXFDu2hMAIDp9NSYrF69urihXTQmAMB0NCYAQGP01JicfPLJxQ3tojEBAKbTU2Ny0kknFTe0i8YEAJiOxgQAaIyeGpMTTzyxuKFdNCYAwHQ0JgBAY/TUmKxataq4oV00JgDAdHpqTFauXFnc0C4aEwBgOhoTAKAxempMVqxYUdzQLhoTAGA6PTUmJ5xwQnFDu2hMAIDpaEwAgMboqTE5/vjjixvaRWMCAEynp8Zk+fLlxQ3tojEBAKajMQEAGqOnxuS4444rbmgXjQkAMB2NCQDQGBoTAKAxNCYAQGNoTACAxtCYAACNoTEBABpDYwIANIbGBABoDI0JANAYGhMAoDE0JgBAY2hMAIDG0JgAAI2hMQEAGkNjAgA0hsYEAGgMjQkA0BgaEwCgMTQmAEBjaEwAgMbQmAAAjaExAQAaQ2MCADSGxgQAaAyNCQDQGBoTAKAxNCYAQGNoTACAxtCYAACNoTEBABpDYwIANIbGBABoDI0JANAYPTUmy5cvL25oF40JADAdjQkA0BgaEwCgMTQmAEBjaEwAgMbQmAAAjaExAQAaQ2MCADSGxgQAaAyNCQDQGBoTAKAxNCYAQGNoTACAxtCYAACNoTEBABpDYwIANIbGBABoDI0JANAYGhMAoDE0JgBAY2hMAIDG0JgAAI2hMQEAGkNjAgA0hsYEAGgMjQkA0BgaEwCgMTQmAEBjaEwAgMbQmAAAjaExAQAaQ2MCADSGxgQAaIyeGpPjjz++uKFdNCYAwHR6akxWrlxZ3NAuGhMAYDo9NSYnnXRScUO7aEwAgOn01JisWbOmuKFdNCYAwHR6akzWrVtX3NAuGhMAYDo9NSYbNmwobmgXjQkAMJ2eGpNNmzYVN7SLxgQAmE5PjcnWrVuLG46Viy66aOzIkSMX5tsAADCup8bkjDPOKG44Vnbt2jU2Id8OAIDeGpOzzjqruOFY2bZtW25L/km+PQDAAtZTY7Jjx47ihmMl7TQ74ciRIy/k27Io/vn+fBYAWECiHxiNXBP5t6XeYSZZlF6SKW2YSVrFjXgj8nr+51Hi658499xzd+3evXt96qJkVrM2rw8AqF08pk80Hwfzw3xRqW+YSRadf/75xQ2zmDTWkdnLa5GXh4eHn488Iwsu34v//4/E6X2Re2Xg8uX4/3cocmNkn0jKyMjI1XE6Gk885+rJ/fprr7129Prrr79m3759bZuPduI2d5VFe/bsKW4QERGRxuSNSOnJaF0p/cy+ZFF6229pg4iIiMhcZ9Hll19e3CAiIiIy11l01VVXFTeIiIiIzHUWXX/99cUNIiIiInOdRf/6X//r4gYRERGRuU5+VzJNNjIyckb8zzo7ZXh4eHfk5jj/25FPz0Zuu+22L0S+G/nHyNjNN99czAc+8IGxffv2Tcl73/vesSuuuKKY9Pb0UrZs2VLMypUri4n7pLigm5p/9s/+WfH3KP3O6aCHpfto4j6cuJ8/+tGPprz8kY985MH4GbdHSv8/fzutl7Ru4vz4GkpJayovLwAoS+8fjweMLUNDQ5fHg8f1kV+IB5Rfi/yXyFdzHox8J/JXkR/ORuLn/k3k1UjxQVYal7+L/HXp/2UkrZO0XtK6mVhDKWlN/Vp83y/EmrsmTncuWbLklLwUAViI4oFgYzQhl8aDwoHIoXig+HLkcJx/PE5/EHk2zr8YSU1CI99vLgOT1vWTktbUi2mNRSYOyvYHcZoO7nUgrcu0PvNSBWA+i8K/Mx4EboncE+dTE/JcnL4cSUdt1XhIP5IO3jRx1OC0HtO6vCfyiWhSLlu2bNmavHwBmC+i2I9GfivycC7+Xi6RJietzxci34p8JhqUd+alDMCgi0ZkV+T3c6H/aaT0QCDS1LwUeTTyobykARhUuSm5M4p62l+kVPRFBiWPRTQnAINKUyLzMJoTgEEUxXtb5IsRTYnMt2hOAAbN8PDwwUh6y2+psIsMelJz8oG83AFosvQOhija32gp4iLzLa9G4/21yAV52QPQROmYD1G0PxNJ72QoFXSR+ZIfRQ45zglAg42MjOyNZ5FPVAq4yLxMWutpzeflD0CTmJa8mXiwekZmLc/Hfdx6pODpUvx/MwtJa/0zpiYADdTUaUn6JNuzzz57/NNpP/jBD45/OvDHPvaxsfTpwSm33377eO68887xfOUrXxl74IEHjsqf/MmfpOu6MbJP+pr0/2Dis5XubZPxz12KTFkPdSd+lqkJQNPM9bTk8ssvH/ud3/mdsccff3zstddeG+vFkSNHDkZuiOyLXBdfujSakc1f/epX16U89NBDa/OvSUMsXbp0bfpE6ukSjcLm/CGR10fj8KvV9VNzTE0AmiZ92FkU5/S5IqXC3XM+9alPjb3xxhtvdhIzVGk4Uq6OjEbWx+Z1KXF+df4VmMc++tGP7jh8+PCt3//+98d2795dXGM95lvpbyD/OAD6LZ6VfiKKc/osnFLR7iobNmwY+/u///vxJqNVNBMaDrry3e9+d0fk1rSObrrppuK66zIvpL+B/GMA6KclS5ZsjKJ8TxTnOj4x+MeRr3/yk5/81c9//vPXR2Ny6SuvvLJZw0GdfvSjH+34xje+ceujjz5aWoPdJB3X5J70t5B/BAD9knd6/XahWHeaF+N67vzUpz61J181zKr7779/x1/8xV/8SmEtdpPHh4aGLs9XDUC/REH+nUivO72+Ek3JlyK78tXCnIl1V8dHKHg5B6DflixZsimK8f1RlHs9dsQ349nmu/PVwpyK9bct1vHdcfpKy5rsNF7OAei3NLqOgtzT8SKimD8XOZivEvpiZGTkyliHvR6HJ72cc2m+SgDmWhTyXt+Nk55l/nGc7shXCX1Rx7F4UpMdpwfyVQIwl+p4N058/5NxqpDTCDUcvTgdLv9QvjoA5lIaWUcR7uVlnPR6/ufSkTrzVUJf1TA1eT0am/vTvlf5KgGYK1GED+TRdalAHzPxvU/H6f58ddAINbz93duGAfohCvChSBpdl4rzsfLTyEOR0Xx10Ag1vETpbcMAc62GtwmnhuaOfHXQKLG2b4l0Ow1MO3Tf7UP9AOZQr/uXROH2Mg6NFetzV6zP/yvyxsSa7SDpex6JmAYCzJUour3sX+JlHBotTTvS1CPWaFcv58T3PjUyMnJNvjoAZlsU3zsi3e5f4mUcGi+ai16O0ZM+98lBAwHmQhTd0UiaeKTJR6kot00UbC/j0Hg9HtXY4ekB5koaUadRdaEYzyRexmEg1LCDt8PTA8yFNKKOovtipQjPNF7GYWDEWu36LfHxd+Lw9ACzrYadAhVrBkZaq3nNFtfzMZIaGoenB5hNUWjT/iXprZDdvI0yxXibgdHj2+Idnh5gtkWx3R/FNu28WirEx4odAhkoaa2mNZvWbmUtzzQOTw8wm6LQ9nIYem+hZOCkNZvWbmUtzzQOTw8wW3p9l0J8r4NOMXB6fBeaKSHAbOnxuA4O081ASms2r91e9qvycg5A3dJIOopst0fC9MFmDKRe34kW8XIOQN1q2AlQcWZgpbWb1nBlTc80Xs4BqNvIyMjeKK7fLhTdmcY4m4HV48uYKdY/QJ2isKZ347zUUmg7ieM5MNB63fE7kiaG3pEGUIcoqjsjD0e6+tC+iCNgMvDSGs5rubTGj5XXojF5ME6356sDoFtRUG+NdHtYboehZ15Ia7jHvwOfqg3QqyikO6Kgpmd6r00U2C7iMPQMvLSG01qurO1O8krkc0uXLl2XrxKATkVTcrCXZ4kR+5cwL9Swn0mamjwZp6aHAN2IZ4jvjiL6zdbC2kXsX8K8kdZyXtOltT6TpLcO/3Gc7shXCcBMRPHcFflSFNA0fi4V2BklrsPr6swbsZZ72s8kJX1/xDt0AGYqimZqSu6MItrtB5dNxGHomVdq2M9kIt9ME8l8tQBMJxXLaErSpKTXpiTFYeiZV+rYzyTnlfR3Fjk3XzUAraJQbosimT7ePe1T0tPLNy15MV1n/hEwL8S67nU/k4mkv48vjYyMXKl5B8jiGeDGKIzviQJ5d+TZQvHsOnF9T6WPjM8/CuaFWNv7Y22nfaeK677DpMnJE3H6ucj+iJc9gYUhnpGtTsdPiKxPxS81DFEQ01uB74mkz8Cpa0oykbR/yZ/GdZ+fbwLMC2lNp7Wd13hp7XeT1KCkZuehyB2RA2l/lvg73Zz/bktZm28SQPdSMakUl3aZaCKujtN9XeaGKHipAbkrcm/kvvjaI3H6VJym/Ui6/bTgYyUV7W/Gz/l4nJZul8hAJq/p9JJnnY3JRNLHPrwcPyO98+fxOD0cSX+3pXw5LpNeVroxUrytMn+THxdG0+NE5XFDak56Yp8fwgdbes04LZqWpiIVj0OpmFSKS7tMNBHfizzTZdLLMxMNSNphL2U2CmopP4mf/1eV2yMy6PmrtLYra322MvE3W0o6GnNqYp6v3D5ZGPle/P9Pjw/3RUqPH1Jf0hP7tA/mDa0NYX64b7Z0Y+NGT7xEcndeNBNNxfPx77TDXCompSIzXeaqiRARkcFKenwoPW5IvUlP7NPO6s+mx/Q4nx7b/yBO08Ry/GXXtL9mbgX6L+88ujffwIfixra+RKKpEBERmV9Jj+0TE8uJl13T/pqfiCbl8r41KXFD0ofb3ZJvTNp59KVIen249EuIiIjI/E0aRrwQmWhSbonzc/PRE/GD0vE+Ph55MJI6pdnaeVREREQGL+ngoumjJ1KfkHaW35ZbiPrlo6Km4308Ez8ojXFKN0hERETktdQvpL4h9Q+5lahHXPlsHBVVRERE5n9S3/Bo5EO5rehNNCS74sq+GKe1HhVVREREFlQei/TWnKSmJFLHp+yKiIiIdN+caEpERERkFvLo0NDQO3O7MTPxTdsiX4xoSkRERKTOpMOLfDYd7j63Hcc2/OaRW+1TIiIiIrUneown4/RAbjvaiwt+IPKtiW+eozissIiISP8y10dqT8c6+aM43Z7bj7K4QDqa6x+nb8jfWHfSL996zH0fxCQiItLfVD8wt/XDb2etYYmf83Sc7s8tSFlc6NZIOppr8Uq6TDoQ28RhatNHmE9+SmHER1eLiIj0N+vT43B+PN6XHp/T43Rk4sN4UwNRenzvNen4Jp9btmzZmtyGHC02pmnJg3Fa1xFd0xHfJg5JezB9sE/80pvjBqzOPxIAaKjUMMRj+Whkf+Rz8Vj+RH58rzOPRX9wSf6RR4sfWNu0JF1PJDUkt8a/5+ZDfACAWZGalJGRkb3xmP6ZeGyvrUHJfcfUnWDji9tTIxGnvU5L0ljmm3Fd6aUaDQkAzCO5QbkyHue/FI/zdRxS5OXIHfnq/0l8cX/8kF5fQ0o7tH6p9g/qAQAaJR7v6zoI608jD0V25qt+U3zhjkjqWkrfNJOkpuTOdEPzVQIA81hdzUlcx/dGRkauyVc73pSkHVtSt5K6luI3HSOaEgBYgFqakx9XeoMZJ77/+Ti9KV9lzy/jvBLf+6V0w/LVAQALSPQAeyJfi56g22OgpVdsfnfJkiUbxq8w/nEof7F04WPlm/YpAYCFLfqBA9GcpMPMl3qFYyUdXuQrcXrWopGRkdPjH/fHP9IRWUsXnjbxfektwQfzbQIAFqh0oLboDT4bSR/QV+wb2uT16CfSIUZ2p8YkvSf58coFZpLU3aS3F3tLMAAw3lNEb/DtSr8wo8T3fSdycxq9/FKc+UH1AjPIC/F9piUAwLglS5ZsjN7gnugROt7XJL7vr+L0t1Nj8qlIN2/zeTwdYj7fFgCAtCNsOsBqx31FfN8P4/TT6Qq62Ys2vRZ0f3RGm/LtAABIL+dcEz3CU4XeoW0mG5P4z59GOt3xNb2D51C+DQAA46I/SMdGeyTyRqTUQxTTU2MS35wOhHJjvg0AAOOWLl26PvqE+6JP6HTo8Tc33XTTF7ptTJ6J0335NgAAjEtvG44+4d7oEzptTF6NxuS7GhMAoDY9NCZjH/3oR/9RYwIA1KaXxuTGG28c05gAALXppTHZv3+/xgQAqE8vjcn73/9+jQkAUJ9eGpOrrrpKYwIA1KeXxuQd73iHxgQAqE8vjckll1yiMQEA6tNLY/LWt75VYwIA1KeXxuTiiy/WmAAA9emlMXnLW96iMQEA6rNs2bLV0SfcFX3Cq629w0xy4YUXdt2YfG9kZOTqfBsAACZFn3Aw+oUXq/3DsbJ79+6uGpP0Mcbp44xH888HAJgUPcIN0Zw8m/uGGeeCCy7oqjF5PX7YfUuXLl2ffz4AwKToFfZFr5B2+yj1EdPmvPPO67oxuTft3JJ/PgDApOgVumpMzj33XI0JAFCv6BW6akx27do13pg8GtGYAAC1iF6hq8ZkdHR0vDF5obrhGNGYAADTil6hq8Zkx44d441JcWObaEwAgGlFr9BVY7J9+3aNCQBQr+gVumpMzj77bI0JAFCv6BW6akzOOussjQkAUK/oFbpqTLZt26YxAQDqFb1CV43JGWecoTEBAOoVvUJXjcnpp5+uMQEA6hW9QleNydatWzUmAEC9olfoqjHZsmWLxgQAqFf0Cl01Jps2bdKYAAD1il6hq8bk1FNP1ZgAAPWKXqGrxmTjxo0aEwCgXtErdNWYnHLKKRoTAKBe0St01ZisX79eYwIA1Ct6ha4ak3Xr1mlMAIB6Ra/QVWOydu1ajQkAUK/oFbpqTNasWaMxAQDqFb1CV43JySefrDEBAOoVvUJXjclJJ52kMQEA6hW9QleNyYknnqgxAQDqFb1CV43JypUrNSYAQL2iV+iqMVmxYoXGBACoV/QKGhMAoBmiV9CYAADNEL2CxgQAaIboFTQmAEAzRK+gMQEAmiF6BY0JANAM0StoTACAZoheQWMCADRD9AoaEwCgGaJX0JgAAM0QvYLGBABohugVNCYAQDNEr6AxAQCaIXoFjQkA0AzRK2hMAIBmiF5BYwIANEP0ChoTAKAZolfQmAAAzRC9gsYEAGiG6BU0JgBAM0SvoDEBAJoheoWuGpMTTjhBYwIA1Ct6BY0JANAM0StoTACAZoheQWMCADRD9AoaEwCgGaJX0JgAAM0QvYLGBABohugVNCYAQDNEr6AxAQCaIXoFjQkA0AzRK2hMAIBmiF5BYwIANEP0ChoTAKAZolfQmAAAzRC9gsYEAGiG6BU0JgBAM0SvoDEBAJohegWNCQDQDNEraEwAgGaIXkFjAgA0Q/QKGhMAoBmiV+iqMTn++OM1JgBAvaJX0JgAAM0QvYLGBABohugVNCYAQDNEr6AxAQCaIXoFjQkA0AzRK2hMAIBmiF5BYwIANEP0ChoTAKAZolfQmAAAzRC9gsYEAGiG6BU0JgBAM0SvoDEBAJohegWNCQDQDNEraEwAgGaIXkFjAgA0Q/QKGhMAoBmiV9CYAADNEL2CxgQAaIboFTQmAEAzRK+gMQEAmiF6BY0JANAM0St01ZgsX75cYwIA1Ct6BY0JANAM0StoTACAZoheQWMCADRD9AoaEwCgGaJX0JgAAM0QvYLGBABohugVNCYAQDNEr6AxAQCaIXoFjQkA0AzRK2hMAIBmiF5BYwIANEP0ChoTAKAZolfQmAAAzRC9gsYEAGiG6BU0JgBAM0SvoDEBAJohegWNCQDQDNEraEwAgGaIXkFjAgA0Q/QKGhMAoBmiV9CYAADNEL1CV43JcccdpzEBAOoVvYLGBABohugVNCYAQDNEr6AxAQCaIXoFjQkA0AzRK2hMAIBmiF5BYwIANEP0ChoTAKAZolfQmAAAzRC9gsYEAGiG6BU0JgBAM0SvoDEBAJohegWNCQDQDNEraEwAgGaIXkFjAgA0Q/QKGhMAoBmiV9CYAADNEL2CxgQAaIboFTQmAEAzRK+gMQEAmiF6BY0JANAM0St01Zj87M/+rMYEAKhX9AoaEwCgGaJX0JgAAM0QvYLGBABohugVNCYAQDNEr6AxAQCaIXoFjQkA0AzRK2hMAIBmiF5BYwIANEP0ChoTAKAZolfQmAAAzRC9gsYEAGiG6BU0JgBAM0SvoDEBAJohegWNCQDQDNEraEwAgGaIXkFjAgA0Q/QKGhMAoBmiV9CYAADNEL2CxgQAaIboFTQmAEAzRK+gMQEAmiF6BY0JANAM0StoTACAZoheQWMCADRD9AoaEwCgGaJX6KoxOe644zQmAEC9olfQmAAAzRC9gsYEAGiG6BU0JgBAM0Sv0FVjsnz5co0JAFCv6BU0JgBAM0SvoDEBAJohegWNCQDQDNErdNWYHH/88RoTAKBe0StoTACAZoheQWMCADRD9AoaEwCgGaJX6KoxOeGEEzQmAEC9olfQmAAAzRC9gsYEAGiG6BU0JgBAM0Sv0FVjsmLFCo0JAFCv6BU0JgBAM0SvoDEBAJohegWNCQDQDNErdNWYrFy5UmMCANQregWNCQDQDNEraEwAgGaIXkFjAgA0Q/QKXTUmq1at0pgAAPWKXkFjAgA0Q/QKGhMAoBmiV9CYAADNEL1CV43JiSeeqDEBAOoVvYLGBABohugVNCYAQDNEr6AxAQCaIXqFrhqTk046SWMCANQregWNCQDQDNEraEwAgGaIXkFjAgA0Q/QKXTUmJ598ssYEAKhX9AoaEwCgGaJX0JgAAM0QvYLGBABohugVumpMVq9erTEBAOoVvYLGBABohugVNCYAQDNEr6AxAQCaIXqFrhqTNWvWaEwAgHpFr6AxAQCaIXoFjQkA0AzRK2hMAIBmiF6hq8Zk7dq1GhMAoF7RK2hMAIBmiF5BYwIANEP0ChoTAKAZolfoqjFZt26dxgQAqFf0ChoTAKAZolfQmAAAzRC9gsYEAGiG6BU0JgBAM0SvoDEBAJohegWNCQDQDNErdNWYrF+/XmMCANQregWNCQDQDNEraEwAgGaIXkFjAgA0Q/QKXTUmp5xyisYEAKhX9AoaEwCgGaJX0JgAAM0QvYLGBABohugVumpMNmzYoDEBAOoVvYLGBABohugVNCYAQDNEr6AxAQCaIXqFrhqTjRs3akwAgHpFr6AxAQCaIXoFjQkA0AzRK2hMAIBmiF6hq8bk1FNP1ZgAAPWKXkFjAgA0Q/QKGhMAoBmiV9CYAADNEL1CV43Jpk2bNCYAQL2iV9CYAADNEL2CxgQAaIboFTQmAEAzRK/QVWOyefNmjQkAUK/oFTQmAEAzRK+gMQEAmiF6BY0JANAM0St01Zhs2bJFYwIA1Ct6BY0JANAM0StoTACAZoheQWMCADRD9ApdNSZbt27VmAAA9YpeQWMCADRD9AoaEwCgGaJX0JgAAM0QvUJXjclpp52mMQEA6hW9gsYEAGiG6BU0JgBAM0SvoDEBAJoheoWuGpPTTz9dYwIA1Ct6BY0JANAM0StoTACAZoheQWMCADRD9ApdNSZnnHGGxgQAqFf0ChoTAKAZolfQmAAAzRC9QleNybZt2zQmAEC9olfQmAAAzRC9gsYEAGiG6BU0JgBAM0Sv0FVjcuaZZ2pMAIB6Ra+gMQEAmiF6BY0JANAM0StoTACAZoheoavG5KyzztKYAAD1il5BYwIANEP0ChoTAKAZolfQmAAAzRC9QleNydlnn60xAQDqFb2CxgQAaIboFTQmAEAzRK+gMQEAmiF6ha4ak+3bt2tMAIB6Ra+gMQEAmiF6BY0JANAM0StoTACAZoheoavG5JxzztGYAAD1il5BYwIANEP0ChoTAKAZolfQmAAAzRC9QleNyY4dOzQmAEC9olfQmAAAzRC9gsYEAGiG6BU0JgBAM0Sv0FVjMjo6qjEBAOoVvYLGBABohugVNCYAQDNEr6AxAQCaIXqFrhqTnTt3akwAgHpFrzCnjclY/LDDe/bs2Zp/PgDApOgV5rYxSTly5MjNkbX5NgAAjIs+Ye4bkxan5dsBANB1Y7Jr167eG5N8GwAAxkWf0L/GJMm3AwCg/41Jkm8LALDARZ/Q38bkyJEj/286zbcHAFjAok+4KRqT56u9w7Fy7rnn9t6YRFPy08gj6YbE6UXpa+O3CgBYMOLhf2Pk0ugFbjx06FCxdzhWamlMkrgRz0S+FvnTyFHTk/j3qfksADCPxGP8aOSayMHxhiDrS2Pyxhtv5B//prhRr0eO/mJ23nnnvef888/fnI4WK7ObZcuWrc7rBQBqFQ/p41ORyIH0+D6dvjQmnWZ4ePhw5F6Z9dwVORj3+Q2RfbKgct3Q0NClIyMjngQMaDyxoImmm4q0021jct55581dY9KS12VW82rkxWhOno08IwsqP4j/94/HqScBgxtPLKSaOX/Ccf3112++9tprL73uuuvaTkXaGbTGRERmN6WGVQYjnlhINXP+hCN+XqmuzEk0JiIiIoORUiNbV0o/ry/RmIiIiEhjcv7552tMREREpBnRmIiIiEhjojERERGRxkRjIiIiIo3JBRdcoDERERGRZkRjIiIiIo2JxkREREQak927d2tMREREpBnRmIiIiEhjojERERGRxmS8MQFmbunSpeuXLFmyMWfTyMjIGcPDw7vjdG/8Uf1C5EORm1ry4dj+r+L0U3F6d+Rrcf6RyJ8OWP4s8mjc/ifj9IXI/4oUC4uIdJT0t/RC/tt6NJL+1kp/g9PlkVRXUn2J86nOpHrz4UhrHZpIqk+/kOpVXC7VrTNSHUv1LNW2XOYAAAD+ybJly9akJw7xZGJ0aGjo0ngicXWcvy5yQ+TGeHJxME4PxeldkS9H0qeD3xc5HF9PA5D0qeTfi/wg0vqJ5enT65+P7S9GXo6kT7V/LVL6gM9ByBuR0pM+Eekt6W+r9Dd3rKR6kupKqi8vpnqT605rHZpIqk/fi8s9HkmDlsORVMdSTbsrvpZqXKp1N0auT3Uw1cM4P5rqY6qTuWQCAADzTWr4o/nfHk8CLovT/fHk4BNxmp4kpL0/7o/z1eHHTAYehggiMmhpHdCUhi7V4cr9kbQXS6qXqW7ujzp6eZymYcrGXGIBAIBBMTIycno09ZdEU39DNPnpldPPxemDcfqtOH06TtPbSyYGIYYfIiJTMzFcmRiqpLcQpfqZhikPxfl74jQNUm5Jb/eJ8zvsjQIAAA0VjfuuaNrT+/W/GPnz+PdTcZqGI69E0quppScFIiLSWX4aSYOUl6LOPhd5IvLH8e/bIx+IjOayDAAA9NPEoCRO74zTxyLprTSlJl9ERGYnaYDyN5HHohb/fpymmrwrl2kAAGAuGZSIiDQyqRanwUmqzQYnAAAwV6IBH81NeHoV06BERKSZMTgBAIC5sHTp0rVDQ0Pvjsb7UOTRSNr9u9Ski4hIczIxOBl/q07EMU4AAKAu0WBvixyIhjt9FPCTcT4dyLXUmIuISDOThtxp2H0oDb/TEDyXeAAAoBvRXO8YHh7+eOSPI8/Ev9PBBUvNuIiINDuvpKF35O44fyCyLZd6AACgE9FMp2HJrZEHI8/Fv308sIjIYOfVqOfPRNIQ/OPx7x255AMAADORmuhopg1LZCZ5XaSheSNSWrMLPa+lup7r+63xb0MTAACYidQ8pyY6N9OGJfMw8f/1XpF5nPsih2OtPxJ5PM5/L/KDSNqzops8G3m+9W9oHsTQBAAAOpGa5tQ85yZ6wQxLli9fPnbaaaeNXXTRRWNXXXXV2E033TR22223jf3e7/3e2D333DP2J3/yJ2N//ud/PvbEE0+Mff/73x978cUXx/7hH/5hbK488MADB//wD//wxji94atf/eq+1sTXrjt8+PDVcXppnI6OjIxsXrp06frIOpEFmvXp7yD+tkeHhoYujfNXx/nrIvu6zA2RG6MmHozTQ3F6V+QP4nyxngxQDE0AAGAmolneHk3zLbl5HthhSRp+7N27d+w//If/MD7o+OEPf5jHDnPryJEjByM3Rm6I7KvkusjVcbFL43Q0sjmyPv69biLx77WR1fl/D9AQy5YtW52GMhs3btwc2bVp06a9H/vYx279r//1v47F6djWrVuLtamhaR2a3BL/3p5/TQAAIFmyZMnGaJT3R8N8T+TpON/4T8NZsWLF2K/92q+N/eVf/uVYHY70OOBIia8ZcsACdfjw4TX333//jj/6oz/a+/nPf/7WqAnjvvvd7479+q//+vgwt1TLGpB0INinU/2P8/vT40H+lQAAgKGhocujUb4j8njk5Uipqe5rfuZnfmbsk5/85FFvhfnLv/zLg6+88kppyGHAAfTVd77znTXf/e53dzz55JN743RygHL48OGxf/Ev/kWxzvUxqe6n+n9HejzIvwIAACxs0SDvHH7zvfkPR16I/DRSaqjnMi9G0sEavxT5lX//7//9e37zN39z13/+z/958+c///n13/72tw05gIHyt3/7t+MDlL/4i7/Ye/jw4Vv/x//4H2OrVq0q1b9+JNX9VP8fipr7iTgdzTcbAAAWpmiKm3bckh9H0qDkzji9KU535ZsKMK989atfXffAAw9cuHLlyo9GrUvD4SdbamE/4q05AACQLFu2bM3IyMg10RzfHXkqNcstjfNcJzXq6aM7vxY5GNmTbybAvLZ06dK1Q0ND7446eCjyzciPcl3sR7w1BwAAoiEeTcOJOH0kkt4C80ak1EDPdl6J2/Fk5O44fyCyLd9EgAUjauDuXJO/Hqf92uPPW3MAAFjYGvSpOC/Fz38iTj87MjJy5dKlS9flmwiw4EQt3BE18dZIP98mmfb4eypyd9oLMe2NmG8eAADMfw35VJy02/k3Iofi9rxTUw7QiKFJ2tsw7XX4SPz8tMeLvUwAAFgYUvMbTXDa1fqhSD8+Fee1/CQg7XaejleyO980AELUx34PTexlAgDAwtKAA71OvD/+4fj56ZXLnfmmAdAi6mM/hyb2MgEAYGFJTW9ufvt1oFefwAAwQ1Erd+aa/XBkrvcI9DHDAAAsDA3Yu0TzDdChoaGhy6Jmpo8c/lbkpUipvs5WJobc6VhTl+abBAAA80s0vP3cu8RHVQJ0IQ+790bd/FzUz2/H6SuRUp2djbweP/O5yP1x/sCSJUs25ZsFAADzQwP2LvFWHIAupUFF1M8DaXCRBhhx/vVIqdbORuxlAgDA/BWNbj/3LvFWHIAepWFF1ND01py5/jh4e5kAADA/pQFFNLn708AiDS7i/FzuXeKtOAA16HMtt5cgAADzTx9flUzRZAPUJGppv/YWNPwGAGB+6fP73r0VB6BGfT4eVarpT6WfnW5Dui35ZgEAwODp494l6VXP9OrnI9Fcp1dDvRoJUINUT3Ndneu9TNR1AADmhwbsXeKVSICa2csEAAB6lI4ZEs3tHZG53rvEe90BZlGqq7m+PpTrbaq7pXpcd+xlAgDAYEtNbJ+a6RQHegWYZX0cijs+FQAAg6nPu2u/Hj/zucj9cf5AeltQvlkA1KjPb7s0GAcAYPBEA9uvAwKmTDTRh9IBZ/NNAmAWpDqb6m2uu956CQAA00m7Rkfjuj8a2HsiT8d5e5cAzFN93svEW3MAABgcfXxPe4q9SwDmWB/3MkmZqPvemgMAQHNFw7pz+M234jwcmesDvXqlEaAP+rxnobfmAADQbNGkbo9m9ZbIg5G0W/ZrkVJzOxvxMZMAfZTqbq6//Th2lYE5AADN1OdXF1NSs/xU5O706TzpU3ryTQNgDvT509FSXomf++04/Vzcjr0eBwAA6LvcJO9NTWpuVl/Jzetcxd4lAA2Q6m+uw/3YyyTlpci3Iuk4VpflmwUAAHOvZVjymWiSn8jNaqmJnc3YuwSgARqwl8nE8Uwejp+fBjc7800DAIC5s3Tp0nXRGF8ZDelnozHt17DE3iUADZLqcK7H/drL5LX4+ek4Wl9PtyOyO980AACYfdGIbosciEY0vYr4ZJyf67fhTMTeJQAN0oC9TCbyo8g3IuntOe/0+AAAwKyLBnhPJL1q97XIs9GM9qsZ9lGSAA2U6nF6nIjTfu1lMpGX4nakPSA/m/aITHtG5psIAAD1iaZzVzSdN8XpnXH6eOTHkVKDOld5OZJuxx1DQ0OX55sJQJ81aC+TlPTpOU+m2xLnD0S25ZsJAADdW7p06dpoMvdEg/nhOE2Dksci6dXCUlM6l3k9bs9zkfvj/IElS5ZsyjcZgAaI2tyUvUxS0ts3n42kPSPTHpJ78s0EAICZy0OSC6LBTK/EHcoNZjpOSb/3KGnNxN4l6b3pl+abDkBDNGwvk4mkx7HH4/bcFafphYA93qYDAEBbqWGMxnF3NJDVIUk6aF4TmtzW2LsEYABEjU57maRjTD0UScecSseeKtX1uc6P82Pc1yPpk95uHXnzI/J3xmPKxnzzAQBYSNIrfmnAEE3haDruR5zuj0Yx7TL9uUj6CMamDklaY+8SgAGRH2vuyHU71e9SXe9XXoukA8OmIfy34/zDcXpPnN4Rp2nQsz/f/tH02OmTdgAAuhBN1Or0Vpa0p8YcZ/3IyMjm1Myl4UGcvzrOXxfZl3ND5MZo/NJQJO05knaNTntmpPeUp92Sn47T9Kpf+ljg1DiWGsomZeKTcf7PuO2/Gr/z2+J33pLuh8r9IiIi/U16fNqS6nSq16lu5/rdlL1MSkm3Lb1gkAY7L+THyDToeSQ9dkbSgWPTY2l6TL0xkh5jJx5vZ5rr0mN1esyO86PpMTzdV5X7TkTmX9am5wv5qQPA3KgMKo41PKgz1UHEXZEvR+6d49wXORy3YWIA8r3IDyLP5KSD3D0f29IB91IDmBrB1yP9PPher/lJ+t3i9Btx+seRr0RK942IiPQ3qT7/ca7XqW7/JNfxQUt6zEyPnRPDlBfj93k+kh5jJx5vZ5r0GP29uI6JQczhSHosL91/IjJ/kp4npOMn9Tp0FWlSpnsRwIBwrqTdX1veQpKGINfE+QO50FQHFccaHtSZ0iAi7aGRGqp+ZJAHIN1mooEVEZFmZyE+Rs0kHsdEFk7S84Q6hq4iTcp0LwKUBoTXtw5XvNW1Q+nOijtue9yBl8VpOq5Geu9wuoOrbyF5KvJcnG83qNCYiYiIiIiIiMxNWl8EKA0Iq8OV1re6Vo8btrAPwF4YjqSp0+fi9ME4/VacThxXY2IgYggiIiIiIiIiMviZGK5MDFVajxv2UJyvHoA9zQ22z9s9UvKAZMfIyMje+KVvjfOfidPqcGRQDjoqIiIiIiIiIvWndAD2NDdI84M0R7g1zRXi/I6BHqCkA73EL3NB/CIHImk3m3Rwzici6e00L0UMR0RERERERETkWEnzg5fSPCHPFdJB5Q9F0vFNL0jzhzyKaK7CkORrkSfj/I8iaUpU+sVFRERERERERGaaNF/4UZo3pLlDnE/Dkw9ERvN4ojnSjco3zpBEREREREREROYqae7wN5HHhoeHfz9OPxSnu/K4on/Sjcg3Jt2ox/KNNCQRERERERERkblO+jTdNDi5M077MzhpGZSkG5EGJelGlW6siIiIiIiIiMhcZnxwEvliJL0bZlseZ8ye+CHprTete5QYlIiIiIiIiIhI0/Lq8PDwM5H0ATQfj3/vyKONeqWDuQ4NDb07fkA6kMqjkfTWm9INEhERERERERFpQl4bfvOTer8epwcju/OYox5xxTsjvxRX/KVIOpjrK5HSDRERERERERERaVrSh9J8I3JoaGjoncuWLVuTRx7dSVeQriiu8PbIfNir5I3I65Wkz3JOB6l9OfLi8PDw85FnI2m3HREREREREZH5nPT89/n0fDg/L07Pj9Pz5Opz5/R8uvQ8e5DyUuRbkTQ0uSyPPjqXhiUjIyN744o+E3feE/mKSz+wSflppDr8+EHke/HvxyOPxPnDkfsi9+Z8OXJXbEsfh3wwTm+M3BDZJyIiIiIiIjLPk57/3pifD6fnxXfl58kTz5nT8+fDse2RyONx/qlIeovLxICl9Ny8qUkzgxciD8fvkH7fnXkEMnMDNCxJU6+X0v+syLfjfPql74nTO/Ivn4Yf18fvcvXQ0NClcX40zm9eunTp+si6nLXx+67OvzoAAAAsWOn5cXqe3PKceX16Hp2eT6fn1XH+mjh/ID/nTs+903Pw9Fz825E0SCk9d29Sxo9pEnkwckv8e3v+1Y+t4cOS1gHJE+kXjH+n23lrvs07lyxZsjH/KgAAAMAsSs/B03Px9Jw8PTfPz9HTMCI9Z2/qACV9ek7aU+buNABKc5D860yvocOS9BabH8XtSQeb/Xrks3F+YkCyY0a/GAAAADDr0nP09Fy9ZYDy2fRcPj+nLz3n70fS8VjSW4rSYTvSnjKj+eZPLx30JC6YPjY4HQSl38OSH6c7NPK1OJ9uU9rlZ3faJSjfXAAAAKDB0nP4eC6/J57TfzhO74zTxyJpWFGaA8xl0l4mT0fSW4r2L1my5NR8k6eKC4zGBT8Rpw9F0kFQ0sFQSlc620l33GP5jkx36J64g9fmmwkAAAAMoHh+vyue538oP99vwuAkHbQ2fUBM+tScy/PNPFp+z9H+uNH3RJ6O8+ltMKUrm820DkrSHbgr3zwAAABgnkjP9/Pz/n4PTtIBYNMn6/5BnC/vZZImKbHxjkiarMz1xwL9OJI+mijdUTelOy7fLAAAAGCeSs//F7/5zpIvRdIxTl6JlOYGs5XWY5n8WmR3vmlvig0744v9eCtOer/Qs5GvRQ5G9uSbBAAAACwA6RAcQ0ND71785rFLvxn5UZ4ZzFXSbOJ7kf8S539hZGTkjPEbtmTJklPiH++PDXdHnkoXbPmm2cwr8fPSAV3vjvMHItvGbxAAAACw4AwPD++OpE+sSZ+okz6O+LVIaZ5Qd16Pn5d25rg/zn84ck7rDfq1+MIjkbQbStodpXQFdeal+JnpI4s/OzIycqVPvQEAAAAWL168Y3h4+NbIg5G5GppMvC3nzyKfSh+HvCjtZhL/+IW4Ef8l8r04Pxd7l6Q9S74dp59LNyJ9PnO+XwAAAIAFbvGbhw1Je5o8HJmrw4akt+V8P5IOGfIbE3uX/KtImtw8Hxd4vfINdaf6Gccb8/0BAAAAMK4PH0yT3pbzwzj908in08Dk5kg6dsl34guzfQNajzybJkWj+X4AAAAAmLRkyZJNixcvPjA8PHx/JL01Z7Z38Dh6YBL/+e1IGmD8VZzO9vuC0t4lT0XuHhkZucZbcQAAAIDpDA0NXbr4zU/OmYu9TKYMTD6d/pG/OJvTGnuXAAAAADM2MjKyefHixTcODw8fjsz2YUTSdf91JB349fa5HJhMfETPfXH+hqVLl67Pvz8AAADAFOkTdRcvXrxveHj43sgzabaQZwyzkbSjx9/Fz3nypptuenCuBybPpF8yzu/zMcIAAABAO3M8MJnI/7rpppteNjABAAAAGqlPA5OxX/qlXxozMAEAAAAaqV8Dk1/8xV80MAEAAACaqV8Dk3379hmYAAAAAM3Ur4HJe9/7XgMTAAAAoJn6NTDZu3evgQkAAADQTP0amFx++eUGJgAAAEAz9Wtg8ra3vc3ABAAAAGimfg1MLr74YgMTAAAAoJn6NTC56KKLDEwAAACAZlq6dOnaxYsXXzc8PPzlyA/i/Gt5xjCrufDCC+d0YPJa+uXSLxnnr0u/dP79AQAAAIqGhoYuXbx48aHI45GXI6WZQ63Zs2fPnA5M0i+VfrlD6ZfNvzcAAADAtEZGRjYvXrz4xuHh4cOR5+P8rL8t54ILLpizgUl6O87z6ZeL8zemXzb/3gAAAADT6sdxTM4///w5HZg4fgkAAADQkX4MTM477zwDEwAAAKC5+jEw2bVr1/jA5PbIn0X+OmJgAgAAADRGPwYmO3fuHFt0yy23PBg/8Mn4wt9F3mi9QI0xMAEAAAA61o+Byejo6PjAJH16zf+qbqw5BiYAAABAx/oxMDnnnHPGBybFjTXHwAQAAADoWD8GJtu3bx9b9NGPfrS4seYYmAAAAAAd68fA5KyzzhpbdNNNNxU31hwDEwAAAKBj/RiYnHnmmWOLPvjBDxY31hwDEwAAAKBj/RiYbNu2bWzRBz7wgeLGmmNgAgAAAHSsHwOT008/fWzRDTfcUNxYcwxMAAAAgI71Y2By2mmnjS26/vrrixtrjoEJAAAA0LF+DEy2bt06tmjfvn3FjTXHwAQAAADoWD8GJps3bx5bdN111xU31hwDEwAAAKBj/RiYbNq0aWzRtddeW9xYcwxMAAAAgI71Y2CyceNGAxMAAACgufoxMNmwYcPYove///3FjTXHwAQAAADoWD8GJqeccsrYove9733FjTXHwAQAAADoWD8GJuvWrRtbdM011xQ31hwDEwAAAKBjfRuYvPe97y1urDkGJgAAAEDH+jEwWbNmzdiiq6++urix5hiYAAAAAB3rx8Bk9erVY4uuuuqq4saaY2ACAAAAdKwfA5OTTz7ZwAQAAABorn4MTE488cSxRe95z3uKG2uOgQkAAADQsX4MTFatWjW26MorryxurDkGJgAAAEDH+jEwWblypYEJAAAA0Fz9GJisWLFibNHevXuLG2uOgQkAAADQsb4NTN797ncXN9YcAxMAAACgY30bmLzrXe8qbqw5BiYAAABAx/o2MHnnO99Z3FhzDEwAAACAjvVtYPKOd7yjuLHmGJgAAAAAHevbwOSKK64obqw5BiYAAABAx/o2MPn5n//54saaY2ACAAAAdKxvA5PLL7+8uLHmGJgAAAAAHevbwOSyyy4rbqw5BiYAAABAxwxMAAAAACr6NjC59NJLixtrjoEJAAAA0LG+DUwuueSS4saaY2ACAAAAdKxvA5Of+7mfK26sOQYmAAAAQMf6NjB5+9vfXtxYcwxMAAAAgI71bWDytre9rbix5hiYAAAAAB3r28DkrW99a3FjzTEwAQAAADrWt4HJxRdfXNxYcwxMAAAAgI71bWBy0UUXFTfWHAMTAAAAoGN9G5i85S1vKW6sOQYmAAAAQMcMTAAAAAAq+jYwufDCC4sba46BCQAAANCxfgxMTjjhhLFFe/bsKW6sOQYmAAAAQMf6NjDZvXt3cWPNMTABAAAAOta3gckFF1xQ3FhzDEwAAACAjvVtYHL++ecXN9YcAxMAAACgY30bmJx33nnFjTXHwAQAAADoWN8GJueee25xY80xMAEAAAA61reBya5du4oba46BCQAAANCxvg1Mdu7cWdxYcwxMAAAAgI4ZmAAAAABU9G1gMjo6WtxYcwxMAAAAgI71bWCyY8eO4saaY2ACAAAAdKxvA5NzzjmnuLHmGJgAAAAAHevbwGT79u3FjTXHwAQAAADoWN8GJmeffXZxY80xMAEAAAA61reByVlnnVXcWHMMTAAAAICOGZgAAAAAVBiYAAAAAFT0bWBy5plnFjfWHAMTAAAAoGMGJgAAAAAVBiYAAAAAFX0bmGzbtq24seYYmAAAAAAdMzABAAAAqOjHwOT44483MAEAAACaq28DkzPOOKO4seYYmAAAAAAdMzABAAAAqDAwAQAAAKjo28Dk9NNPL26sOQYmAAAAQMcMTAAAAAAqDEwAAAAAKgxMAAAAACr6NjA57bTTihtrjoEJAAAA0DEDEwAAAIAKAxMAAACAir4NTLZu3VrcWHMMTAAAAICOGZgAAAAAVBiYAAAAAFT0bWCyZcuW4saaY2ACAAAAdMzABAAAAKDCwAQAAACgom8Dk82bNxc31hwDEwAAAKBjBiYAAAAAFQYmAAAAABV9G5hs2rSpuLHmGJgAAAAAHTMwAQAAAKjox8Bk+fLlBiYAAABAc/VtYHLqqacWN9YcAxMAAACgYwYmAAAAABUGJgAAAAAVfRuYbNy4sbix5hiYAAAAAB0zMAEAAACoMDABAAAAqOjbwGTDhg3FjTXHwAQAAADomIEJAAAAQIWBCQAAAEBF3wYmp5xySnFjzTEwAQAAADpmYAIAAABQYWACAAAAUNG3gcn69euLG2uOgQkAAADQMQMTAAAAgAoDEwAAAICKvg1M1q1bV9xYcwxMAAAAgI4ZmAAAAABUGJgAAAAAVBiYAAAAAFQYmAAAAABU9GNgctxxxxmYAAAAAM1lYAIAAABQ0beBydq1a4sba46BCQAAANAxAxMAAACACgMTAAAAgIq+DUzWrFlT3FhzDEwAAACAjhmYAAAAAFQYmAAAAABU9G1gsnr16uLGmmNgAgAAAHTMwAQAAACgwsAEAAAAoKJvA5OTTz65uLHmGJgAAAAAHTMwAQAAAKgwMAEAAACo6NvA5KSTTipurDkGJgAAAEDHDEwAAAAAKgxMAAAAACr6NjA58cQTixtrjoEJAAAA0DEDEwAAAIAKAxMAAACAir4NTFatWlXcWHMMTAAAAICOGZgAAAAAVPRjYPKzP/uzBiYAAABAc/VtYLJy5crixppjYAIAAAB0zMAEAAAAoMLABAAAAKCibwOTFStWFDfWHAMTAAAAoGMGJgAAAAAVBiYAAAAAFX0bmJxwwgnFjTXHwAQAAADomIEJAAAAQIWBCQAAAEBF3wYmxx9/fHFjzTEwAQAAADpmYAIAAABQYWACAAAAUNG3gcny5cuLG2uOgQkAAADQMQMTAAAAgAoDEwAAAIAKAxMAAACAir4NTI477rjixppjYAIAAAB0zMAEAAAAoMLABAAAAKDCwAQAAACgwsAEAAAAoMLABAAAAKDCwAQAAACgwsAEAAAAoMLABAAAAKCiHwOTNCsxMAEAAAAay8AEAAAAoMLABAAAAKDCwAQAAACgoh8Dk+XLlxuYAAAAAM1lYAIAAABQYWACAAAAUGFgAgAAAFDRj4HJ8ccfb2ACAAAANJeBCQAAAECFgQkAAABAhYEJAAAAQEU/BiYnnHCCgQkAAADQXAYmAAAAABUGJgAAAAAVBiYAAAAAFf0YmKxYscLABAAAAGguAxMAAACACgMTAAAAgAoDEwAAAICKfgxMVq5caWACAAAANJeBCQAAAECFgQkAAABAhYEJAAAAQEU/BiarVq0yMAEAAACay8AEAAAAoMLABAAAAKCiHwOTE0880cAEAAAAaC4DEwAAAIAKAxMAAACACgMTAAAAgIp+DExOOukkAxMAAACguQxMAAAAACoMTAAAAAAqDEwAAAAAKvoxMDn55JMNTAAAAIDmMjABAAAAqDAwAQAAAKgwMAEAAACo6MfAZPXq1QYmAAAAQHMZmAAAAABUGJgAAAAAVBiYAAAAAFT0Y2CyZs0aAxMAAACguQxMAAAAACoMTAAAAAAqDEwAAAAAKvoxMFm7dq2BCQAAANBcBiYAAAAAFQYmAAAAABUGJgAAAAAV/RiYrFu3zsAEAAAAaC4DEwAAAIAKAxMAAACACgMTAAAAgAoDEwAAAIAKAxMAAACACgMTAAAAgAoDEwAAAICKfgxM1q9fb2ACAAAANFffBibLly8vbqw5BiYAAABAxwxMAAAAACoMTAAAAAAq+jEwOeWUUwxMAAAAgOYyMAEAAACoMDABAAAAqDAwAQAAAKjox8Bkw4YNBiYAAABAcxmYAAAAAFQYmAAAAABUGJgAAAAAVPRjYLJx40YDEwAAAKC5DEwAAAAAKgxMAAAAACoMTAAAAAAq+jEwOfXUUw1MAAAAgOYyMAEAAACoMDABAAAAqOjHwGTTpk0GJgAAAEBzGZgAAAAAVBiYAAAAAFQYmAAAAABU9GNgsnnzZgMTAAAAoLkMTAAAAAAqDEwAAAAAKgxMAAAAACr6MTDZsmWLgQkAAADQXAYmAAAAABUGJgAAAAAVBiYAAAAAFf0YmGzdutXABAAAAGguAxMAAACACgMTAAAAgAoDEwAAAICKfgxMTjvtNAMTAAAAoLkMTAAAAAAqDEwAAAAAKgxMAAAAACr6MTA5/fTTDUwAAACA5jIwAQAAAKgwMAEAAACoMDABAAAAqOjHwOSMM84wMAEAAACay8AEAAAAoMLABAAAAKDCwAQAAACgoh8Dk23bthmYAAAAAM1lYAIAAABQYWACAAAAUGFgAgAAAFDRj4HJmWeeaWACAAAANJeBCQAAAECFgQkAAABAhYEJAAAAQEU/BiZnnXWWgQkAAADQXAYmAAAAABUGJgAAAAAVBiYAAAAAFf0YmJx99tkGJgAAAEBzGZgAAAAAVBiYAAAAAFQYmAAAAABU9GNgsn37dgMTAAAAoLkMTAAAAAAqDEwAAAAAKgxMAAAAACr6MTA555xzxhadcMIJxY01x8AEAAAA6FjfBiYrVqwobqw5BiYAAABAx/o2MFm1alVxY80xMAEAAAA61reByYknnljcWHMMTAAAAICO9WNgsmPHjrFFJ598cnFjzTEwAQAAADrWt4HJ6tWrixtrjoEJAAAA0LG+DUzWrl1b3FhzDEwAAACAjvVjYDI6Ojq2aN26dcWNNcfABAAAAOhY3wYm69evL26sOQYmAAAAQMf6NjA55ZRTihtrjoEJAAAA0LG+DUw2btxY3FhzDEwAAACAjvVjYLJz586xRaeeempxY80xMAEAAAA61reByebNm4sba04amDwbuS/O37B79+71+fcGAAAAmFbfBiZbtmwpbpyt7Nmz53+7+OKLL8q/NwAAAMC0+jYwOe2004obZysXXnjhWHLkyJGDkXdFTs/3AQAAAMBR+jEw2bVr19iiM844o7hxtnL++eePD0xa5fsAAAAA4Ch9G5hs27atuHG2kj6apyrfBwAAAABH6dvA5KyzzipunK2cffbZeUxSlu8PAAAAgP4NTNIAo7RxtnL66afn0chUR44c+f/yWYMTAAAAIA1M1i9evPiG4eHh+yLPxvlZH5ice+65Y4vOOeec4sbZSvoY46ojR468Eflx5NF8f4yLTevia5vyPwEAAIAF4siRI2vGxsZOu/322y8/dOjQv128ePGfRV5snTHMVsYHJjt27ChunK2cdNJJ40OSVi0Dk/873y/j4t+3Rb6QL2avEwAAAJhH4jn/msimyGjk8sj+yCfyGGDSoUOHijOG2cr4wCR9tnBp42xl2bJl+dedKu6Un0TS4OSvcl6MvJI3T8r367j8pffH5c6P32Vd/jIAAADQAPF8fUZDkXb6MjBJBzIpbexH/vk//+djK1euLGbDhg1jW7ZsmZKtW7eOf1TxRM4777xfjeu6MXJDZJ/IgOe6kZGRq4eGhi6N86NxfnN6/1466JGIzOusXbZs2ercYwAANN6RGoYi7cz1wOS8884bW5T+U9o46EkHgklHzxUZ8Pwg8r1Y049HHonzhyPpQEfp6NAiMn/z5chd8Xd/KE4PxqkXAkTmNl6wEJGZZMG9wLF///4173vf+zZde+21szIUaacvA5O0V0Zpo4g0Lm9E0tGgRWT+57XIq5GXIy8ODw8/H/FCgMjcxQsWIjKTLIQXONLvc+O+ffsORsb6mdHR0dJzpFnL+MBk9+7dxY0iIiIiIuIFCxGZNvPuBY74PUp1cEFmfGCyZ8+e4kYRERERERERkYWY9G6cRW95y1uKG0VEREREREREFmLGByYXX3xxcaOIiIiIiIiIyELM+MDkkksuKW4UEREREREREVmIGR+YXHHFFcWNIiIiIiIiIiILMRdccMHYor179xY3ioiIiIiIiIgsxIwPTK6++uriRhERERERERGRhZjxgcm1115b3CgiIiIiIiIishAzPjDZv39/caOIiIiIiIiIyELM7t27xxZ95CMfKW4UEREREREREVmIGR+Y3HbbbcWNIiIiIiIiIiILMeMDkxdeeGHs4YcfHnvggQfG7rnnnrE777xz7Pd+7/fGbr/99qPyW7/1W2NpuFLNL//yL4/dfPPNR+WDH/zg2L59+2pLOjBt+vjjunLJJZeMf6ZyXdm5c+fYli1basumTZvGVq5cKSIiIiLzJGvXri32fSKDnm3bthWfI4kMeg4cODD2/wOlWkhEyjJYEwAAAABJRU5ErkJggg==;" vertex="1" parent="1">
                    <mxGeometry x="577" y="261.5" width="70" height="54" as="geometry"/>
                </mxCell>
                <mxCell id="35" style="edgeStyle=none;rounded=0;html=1;entryX=1;entryY=0.5;startArrow=none;startFill=0;endArrow=classic;endFill=1;jettySize=auto;orthogonalLoop=1;strokeColor=#6c8ebf;shape=arrow;fillColor=#dae8fc;" edge="1" source="36" target="29" parent="1">
                    <mxGeometry relative="1" as="geometry"/>
                </mxCell>
                <mxCell id="36" value="" style="verticalLabelPosition=bottom;html=1;verticalAlign=top;strokeColor=none;fillColor=#00BEF2;shape=mxgraph.azure.visual_studio_online;" vertex="1" parent="1">
                    <mxGeometry x="506" y="268.5" width="50" height="37.5" as="geometry"/>
                </mxCell>
                <mxCell id="37" value="1" style="ellipse;whiteSpace=wrap;html=1;strokeColor=#000000;fillColor=none;fontSize=15;fontStyle=1" vertex="1" parent="1">
                    <mxGeometry x="156" y="363.5" width="30" height="30" as="geometry"/>
                </mxCell>
                <mxCell id="38" value="2" style="ellipse;whiteSpace=wrap;html=1;strokeColor=#000000;fillColor=none;fontSize=15;fontStyle=1" vertex="1" parent="1">
                    <mxGeometry x="416" y="163.5" width="30" height="30" as="geometry"/>
                </mxCell>
                <mxCell id="39" value="3" style="ellipse;whiteSpace=wrap;html=1;strokeColor=#000000;fillColor=none;fontSize=15;fontStyle=1" vertex="1" parent="1">
                    <mxGeometry x="686" y="368.5" width="30" height="30" as="geometry"/>
                </mxCell>
                <mxCell id="40" value="4" style="ellipse;whiteSpace=wrap;html=1;strokeColor=#000000;fillColor=none;fontSize=15;fontStyle=1" vertex="1" parent="1">
                    <mxGeometry x="416" y="300.5" width="30" height="30" as="geometry"/>
                </mxCell>
                <mxCell id="41" value="&lt;font style=&quot;font-size: 12px&quot;&gt;&lt;b&gt;&lt;u&gt;TODO&lt;/u&gt;&lt;/b&gt;: Handle #2 &amp;amp; #3 to base PR&lt;/font&gt;&lt;div&gt;&lt;font style=&quot;font-size: 12px&quot;&gt;from flat-file only (work not deployed&lt;/font&gt;&lt;/div&gt;&lt;div&gt;&lt;font style=&quot;font-size: 12px&quot;&gt;to dev/green server)&lt;/font&gt;&lt;/div&gt;" style="text;html=1;resizable=0;points=[];autosize=1;align=left;verticalAlign=top;spacingTop=-4;fontSize=15;" vertex="1" parent="1">
                    <mxGeometry x="686" y="41.5" width="210" height="60" as="geometry"/>
                </mxCell>
                <mxCell id="42" value="1. script &lt;font color=&quot;#ff3333&quot;&gt;&lt;b&gt;TARGET&lt;/b&gt;&lt;/font&gt; code to prod-base&lt;div&gt;2. forward prod-base to dev-base&amp;nbsp;&lt;span&gt;(to prevent&lt;/span&gt;&lt;/div&gt;&lt;div&gt;&amp;nbsp; &amp;nbsp; merge conflicts where files already exist)&lt;/div&gt;&lt;div&gt;3. script &lt;b&gt;&lt;font color=&quot;#009900&quot;&gt;DEV&lt;/font&gt;&lt;/b&gt; code to dev-base&lt;/div&gt;&lt;div&gt;4. in VSTS, base dev to prod for PR&lt;/div&gt;" style="text;html=1;resizable=0;points=[];autosize=1;align=left;verticalAlign=top;spacingTop=-4;fontSize=15;" vertex="1" parent="1">
                    <mxGeometry x="276" y="398.5" width="310" height="90" as="geometry"/>
                </mxCell>
                <mxCell id="43" value="&lt;font style=&quot;font-size: 12px&quot;&gt;git push -u origin $sourceBranch&lt;/font&gt;" style="text;html=1;resizable=0;points=[];autosize=1;align=left;verticalAlign=top;spacingTop=-4;fontSize=15;" vertex="1" parent="1">
                    <mxGeometry x="651" y="209.5" width="190" height="20" as="geometry"/>
                </mxCell>
            </root>
        </mxGraphModel>
    </diagram>
</mxfile>